<svg width="68" height="63" viewBox="0 0 68 63" fill="none" xmlns="http://www.w3.org/2000/svg">
<path d="M8.9389 14.9146C8.96826 25.8747 9.00046 36.8348 9.03039 47.795C9.03406 48.9815 9.24207 50.3089 11.1874 50.9573C26.4486 56.2546 40.8206 43.494 56.082 48.7915C57.2696 49.272 58.2303 48.844 58.2268 47.6575C58.1967 36.6974 58.1896 25.7368 58.1356 14.7769C58.1269 13.018 57.1661 12.0952 55.9782 11.6145C40.7172 6.31708 26.3448 19.0776 11.0833 13.78C9.89576 13.3 8.93547 13.7279 8.9389 14.9146ZM13.3256 47.3957C13.3176 44.3719 13.3084 41.348 13.3004 38.3242C16.6031 39.0936 19.6695 39.2073 23.0388 38.8803C23.0467 41.9041 23.0558 44.9282 23.0637 47.9518C19.6949 48.2785 16.6283 48.1654 13.3256 47.3957ZM53.8655 24.3811C53.876 27.817 53.8848 31.2531 53.8943 34.6889C50.4263 33.8665 47.1729 33.7941 43.6406 34.2008C43.6494 37.2248 43.6578 40.2487 43.6658 43.2725C40.1696 43.8315 36.7768 44.7133 33.365 45.6487C33.3569 42.6251 33.3478 39.601 33.3396 36.5771C36.7515 35.6419 40.1446 34.7596 43.6406 34.2008C43.6309 30.765 43.6216 27.3289 43.6121 23.8931C47.1445 23.4867 50.3976 23.559 53.8655 24.3811ZM43.5863 14.6886C43.5951 17.7567 43.6035 20.8251 43.612 23.8935C40.1403 24.4478 36.7722 25.3211 33.3847 26.25C33.3762 23.1816 33.3676 20.1133 33.3592 17.0449C36.7464 16.1158 40.1148 15.243 43.5863 14.6886ZM33.3116 26.2698C33.3205 29.7056 33.3302 33.1416 33.3395 36.5775C29.9291 37.5091 26.5404 38.367 23.0389 38.8801C23.029 35.4443 23.0195 32.0083 23.0101 28.5726C26.5112 28.059 29.9008 27.2015 33.3116 26.2698ZM22.9245 19.375C22.9333 22.4431 22.9417 25.5115 22.9504 28.58C19.6025 28.8994 16.553 28.7818 13.2721 28.0164C13.2634 24.9479 13.2548 21.8797 13.2459 18.8116C16.527 19.5769 19.5769 19.6947 22.9245 19.375Z" fill="#A8A8A8"/>
</svg>
