<svg width="41" height="50" viewBox="0 0 41 50" fill="none" xmlns="http://www.w3.org/2000/svg">
<path d="M23.5352 48.5352L23.5352 43.8282C23.5352 42.0403 22.0807 40.5859 20.293 40.5859C18.5053 40.5859 17.0508 42.0403 17.0508 43.8282L17.0508 48.5352C17.0508 49.3441 16.3949 50 15.5859 50L1.46484 50C0.655859 50 -2.1569e-06 49.3441 -2.12154e-06 48.5352L-1.50429e-06 34.4141C-1.46892e-06 33.6051 0.655859 32.9492 1.46484 32.9492L6.17187 32.9492C7.95957 32.9492 9.41406 31.4947 9.41406 29.707C9.41406 27.9193 7.95967 26.4648 6.17187 26.4648L1.46484 26.4648C0.65586 26.4648 -1.12815e-06 25.809 -1.09278e-06 25L-4.75532e-07 10.8789C-4.4017e-07 10.0699 0.65586 9.41406 1.46484 9.41406L14.1211 9.41406L14.1211 6.17187C14.1211 2.76875 16.8898 -1.03579e-06 20.293 -8.87034e-07C23.6961 -7.38278e-07 26.4648 2.76875 26.4648 6.17187L26.4648 9.41406L39.1211 9.41406C39.9301 9.41406 40.5859 10.0699 40.5859 10.8789L40.5859 23.5352L40.5859 35.8789L40.5859 48.5352C40.5859 49.3441 39.9301 50 39.1211 50L25 50C24.191 50 23.5352 49.3441 23.5352 48.5352Z" fill="#A8A8A8"/>
</svg>
