<svg width="390" height="390" viewBox="0 0 390 390" fill="none" xmlns="http://www.w3.org/2000/svg">
<path d="M110.359 32.3708C57.3316 63.2043 -3.20319 129.551 3.08236 205.084C5.78824 237.624 19.9613 260.582 30.4983 277.653C37.4368 288.892 105.422 395.461 209.951 389.78C323.42 383.615 402.807 249.366 383.297 218.316C375.175 205.385 352.837 215.018 341.487 199.629C318.238 168.1 396 105.982 380.953 59.6943C363.069 4.68553 214.109 -27.9476 110.359 32.3708Z" fill="#CADDFF"/>
<path d="M379.862 37.1533H206.169C200.569 37.1533 196.031 41.6924 196.031 47.2933V161.173C196.031 166.774 200.569 171.313 206.169 171.313H379.862C385.462 171.313 390 166.774 390 161.173V47.2933C390 41.6924 385.462 37.1533 379.862 37.1533Z" fill="#99B9FF"/>
<path d="M381.938 54.5012H204.087C203.698 54.5012 203.383 54.1864 203.383 53.7964C203.383 53.4064 203.698 53.0916 204.087 53.0916H381.938C382.328 53.0916 382.643 53.4064 382.643 53.7964C382.643 54.1817 382.328 54.5012 381.938 54.5012Z" fill="black"/>
<path d="M214.098 44.9533C214.098 46.3911 212.933 47.5517 211.5 47.5517C210.067 47.5517 208.902 46.3864 208.902 44.9533C208.902 43.5155 210.067 42.3549 211.5 42.3549C212.933 42.3549 214.098 43.5202 214.098 44.9533Z" fill="#99B9FF"/>
<path d="M224.494 44.9533C224.494 46.3911 223.329 47.5517 221.897 47.5517C220.464 47.5517 219.299 46.3864 219.299 44.9533C219.299 43.5155 220.464 42.3549 221.897 42.3549C223.329 42.3549 224.494 43.5202 224.494 44.9533Z" fill="#99B9FF"/>
<path d="M234.891 44.9533C234.891 46.3911 233.726 47.5517 232.293 47.5517C230.856 47.5517 229.695 46.3864 229.695 44.9533C229.695 43.5155 230.86 42.3549 232.293 42.3549C233.731 42.3549 234.891 43.5202 234.891 44.9533Z" fill="#99B9FF"/>
<path d="M382.07 45.6581H367.427C367.037 45.6581 366.723 45.3432 366.723 44.9532C366.723 44.5632 367.037 44.2484 367.427 44.2484H382.07C382.46 44.2484 382.775 44.5632 382.775 44.9532C382.775 45.3432 382.46 45.6581 382.07 45.6581Z" fill="black"/>
<path d="M360.841 45.6581H300.189C299.799 45.6581 299.484 45.3432 299.484 44.9532C299.484 44.5632 299.799 44.2484 300.189 44.2484H360.841C361.231 44.2484 361.546 44.5632 361.546 44.9532C361.546 45.3432 361.231 45.6581 360.841 45.6581Z" fill="black"/>
<path d="M254.038 45.6581H241.128C240.739 45.6581 240.424 45.3432 240.424 44.9532C240.424 44.5632 240.739 44.2484 241.128 44.2484H254.038C254.428 44.2484 254.743 44.5632 254.743 44.9532C254.743 45.3432 254.428 45.6581 254.038 45.6581Z" fill="black"/>
<path d="M375.766 161.526H210.265C206.855 161.526 204.088 158.758 204.088 155.347V70.4395C204.088 67.0282 206.855 64.2606 210.265 64.2606H375.766C379.177 64.2606 381.944 67.0282 381.944 70.4395V155.347C381.939 158.758 379.177 161.526 375.766 161.526Z" fill="#99B9FF"/>
<path d="M376.151 64.1292H212.68V157.161H376.151V64.1292Z" fill="#CADDFF"/>
<path d="M135.459 59.6935L126.538 62.992L127.905 73.2918C125.974 74.4242 124.165 75.7023 122.488 77.1119L113.243 72.399L107.164 79.7151L113.497 87.952C112.412 89.8786 111.486 91.8849 110.73 93.9665L100.353 94.5116L98.7461 103.886L108.334 107.847C108.353 110.036 108.56 112.245 108.954 114.444L100.24 120.101L103.538 129.024L113.835 127.657C114.967 129.588 116.245 131.397 117.654 133.075L112.943 142.322L120.257 148.402L128.492 142.063C130.413 143.149 132.424 144.074 134.505 144.831L135.045 155.211L144.417 156.818L148.378 147.227C150.567 147.209 152.77 147.002 154.973 146.607L160.629 155.323L169.55 152.025L168.183 141.725C170.114 140.593 171.922 139.315 173.6 137.905L182.845 142.618L188.924 135.302L182.591 127.065C183.676 125.143 184.606 123.127 185.358 121.05L195.735 120.505L197.342 111.131L187.754 107.17C187.735 104.98 187.524 102.777 187.134 100.573L195.843 94.9157L192.545 85.9926L182.248 87.36C181.116 85.4288 179.838 83.6198 178.429 81.9423L183.141 72.6951L175.826 66.6148L167.591 72.9488C165.665 71.8634 163.655 70.9377 161.578 70.1812L161.033 59.8016L151.661 58.1946L147.701 67.7848C145.512 67.8036 143.304 68.0104 141.105 68.4051L135.459 59.6935ZM171.016 99.013C175.704 111.7 169.221 125.782 156.537 130.471C143.854 135.161 129.775 128.677 125.086 115.99C120.398 103.303 126.881 89.2207 139.565 84.5313C152.248 79.8419 166.328 86.3263 171.016 99.013Z" fill="white"/>
<path d="M142.477 161.761C142.44 161.761 142.397 161.756 142.36 161.751L132.988 160.144C132.664 160.088 132.419 159.815 132.405 159.487L131.888 149.572C130.085 148.891 128.313 148.078 126.618 147.147L118.749 153.2C118.486 153.402 118.124 153.392 117.87 153.185L110.556 147.105C110.302 146.894 110.227 146.537 110.378 146.241L114.878 137.407C113.666 135.927 112.543 134.334 111.529 132.656L101.691 133.963C101.367 134.005 101.053 133.817 100.94 133.507L97.6421 124.584C97.5293 124.274 97.6421 123.926 97.9192 123.747L106.244 118.344C105.919 116.413 105.736 114.472 105.699 112.56L96.5381 108.777C96.2327 108.65 96.0589 108.331 96.1106 108.007L97.7172 98.6324C97.7736 98.3082 98.0461 98.0639 98.3749 98.0451L108.287 97.5282C108.968 95.7192 109.781 93.9477 110.711 92.2561L104.66 84.3857C104.458 84.1225 104.468 83.7607 104.679 83.507L110.758 76.191C110.969 75.9372 111.327 75.862 111.618 76.0124L120.449 80.5138C121.929 79.3016 123.522 78.1785 125.199 77.1683L123.893 67.329C123.851 67.0048 124.039 66.69 124.349 66.5772L133.27 63.2787C133.58 63.1659 133.927 63.2787 134.106 63.5559L139.508 71.8775C141.439 71.5532 143.384 71.37 145.291 71.3324L149.073 62.1697C149.2 61.8643 149.519 61.6858 149.843 61.7422L159.215 63.3492C159.539 63.4055 159.783 63.6781 159.798 64.007L160.314 73.9214C162.123 74.6028 163.894 75.4157 165.585 76.346L173.454 70.294C173.712 70.0919 174.079 70.1013 174.332 70.3128L181.647 76.393C181.9 76.6045 181.976 76.9616 181.825 77.2529L177.325 86.0866C178.537 87.562 179.66 89.1596 180.67 90.8371L190.507 89.5308C190.835 89.4885 191.145 89.6765 191.258 89.9866L194.556 98.9096C194.669 99.2198 194.556 99.5675 194.279 99.746L185.954 105.15C186.279 107.086 186.462 109.026 186.499 110.934L195.66 114.716C195.965 114.843 196.139 115.163 196.087 115.487L194.481 124.861C194.424 125.185 194.152 125.43 193.823 125.448L183.911 125.965C183.23 127.774 182.417 129.546 181.487 131.237L187.538 139.108C187.74 139.371 187.73 139.733 187.519 139.987L181.44 147.303C181.229 147.556 180.872 147.631 180.58 147.481L171.749 142.98C170.273 144.192 168.676 145.315 166.999 146.33L168.305 156.169C168.347 156.493 168.16 156.808 167.849 156.921L158.928 160.22C158.618 160.332 158.271 160.22 158.092 159.942L152.69 151.616C150.759 151.94 148.814 152.123 146.907 152.161L143.125 161.324C143.017 161.592 142.759 161.761 142.477 161.761ZM133.777 158.852L142.04 160.267L145.784 151.198C145.892 150.935 146.146 150.766 146.428 150.761C148.561 150.742 150.74 150.535 152.906 150.15C153.183 150.103 153.465 150.22 153.62 150.46L158.971 158.702L166.835 155.793L165.543 146.053C165.505 145.771 165.642 145.498 165.886 145.353C167.784 144.239 169.574 142.975 171.204 141.603C171.42 141.42 171.725 141.387 171.979 141.514L180.721 145.968L186.077 139.517L180.087 131.726C179.913 131.5 179.894 131.195 180.031 130.951C181.097 129.067 182.008 127.079 182.751 125.044C182.849 124.777 183.094 124.598 183.375 124.579L193.189 124.067L194.603 115.802L185.536 112.057C185.273 111.949 185.104 111.695 185.099 111.413C185.081 109.28 184.874 107.1 184.489 104.933C184.437 104.656 184.559 104.374 184.799 104.219L193.039 98.8673L190.131 91.0016L180.392 92.2984C180.115 92.336 179.838 92.1998 179.692 91.9554C178.579 90.0571 177.315 88.2669 175.944 86.6364C175.76 86.4202 175.728 86.1148 175.854 85.8611L180.308 77.1166L173.858 71.76L166.069 77.751C165.844 77.9248 165.538 77.9436 165.294 77.8073C163.41 76.7407 161.423 75.8291 159.389 75.0867C159.121 74.9881 158.943 74.7437 158.924 74.4618L158.412 64.646L150.148 63.2317L146.404 72.3004C146.296 72.5635 146.043 72.7326 145.761 72.7373C143.628 72.7561 141.448 72.9629 139.283 73.3482C139.005 73.3999 138.724 73.2777 138.569 73.0381L133.218 64.7964L125.354 67.7049L126.65 77.4455C126.688 77.7275 126.552 78.0047 126.308 78.1457C124.414 79.2593 122.625 80.5185 120.99 81.8953C120.774 82.0785 120.468 82.1114 120.215 81.9846L111.472 77.5301L106.117 83.9816L112.106 91.7722C112.28 91.9977 112.299 92.3031 112.163 92.5475C111.096 94.4317 110.185 96.4193 109.443 98.4538C109.344 98.7217 109.1 98.9049 108.818 98.919L99.0044 99.4312L97.5904 107.696L106.657 111.441C106.92 111.549 107.089 111.803 107.094 112.085C107.113 114.223 107.319 116.403 107.705 118.565C107.756 118.842 107.634 119.124 107.395 119.279L99.1547 124.631L102.063 132.497L111.801 131.2C112.083 131.162 112.36 131.298 112.501 131.543C113.614 133.436 114.873 135.227 116.25 136.862C116.433 137.078 116.466 137.383 116.339 137.637L111.886 146.382L118.336 151.738L126.124 145.747C126.35 145.573 126.655 145.555 126.899 145.691C128.788 146.757 130.775 147.674 132.804 148.411C133.072 148.51 133.251 148.754 133.27 149.036L133.777 158.852ZM146.08 136.956C142.491 136.956 138.916 136.18 135.562 134.635C129.45 131.82 124.8 126.797 122.47 120.482C120.139 114.171 120.403 107.33 123.216 101.217C126.03 95.1036 131.052 90.4518 137.366 88.1212C143.675 85.7906 150.52 86.0537 156.627 88.8683C162.738 91.6829 167.389 96.7059 169.719 103.021C172.049 109.332 171.786 116.173 168.972 122.286C166.158 128.399 161.136 133.051 154.823 135.382C151.981 136.434 149.026 136.956 146.08 136.956ZM146.108 87.9567C143.327 87.9567 140.537 88.4501 137.855 89.4463C131.898 91.65 127.153 96.0387 124.499 101.809C121.845 107.579 121.596 114.04 123.794 119.998C125.997 125.956 130.385 130.702 136.154 133.357C141.923 136.011 148.382 136.26 154.339 134.061C160.296 131.858 165.04 127.469 167.694 121.699C170.349 115.929 170.602 109.468 168.399 103.51C166.196 97.5517 161.808 92.8059 156.039 90.1511C152.868 88.6898 149.495 87.9567 146.108 87.9567Z" fill="black"/>
<path d="M208.808 132.948L202.043 135.447L203.081 143.257C201.62 144.117 200.244 145.085 198.975 146.151L191.966 142.58L187.358 148.129L192.159 154.374C191.337 155.831 190.632 157.358 190.059 158.932L182.195 159.345L180.979 166.455L188.251 169.457C188.265 171.116 188.424 172.789 188.72 174.462L182.115 178.752L184.615 185.518L192.422 184.479C193.282 185.941 194.25 187.317 195.316 188.586L191.746 195.597L197.294 200.206L203.537 195.404C204.993 196.226 206.52 196.931 208.094 197.504L208.507 205.37L215.615 206.587L218.617 199.313C220.275 199.299 221.947 199.14 223.62 198.844L227.909 205.45L234.673 202.95L233.635 195.141C235.096 194.281 236.473 193.313 237.741 192.246L244.75 195.818L249.359 190.268L244.557 184.024C245.38 182.567 246.084 181.04 246.657 179.466L254.521 179.052L255.738 171.943L248.466 168.94C248.452 167.282 248.292 165.609 247.996 163.936L254.601 159.646L252.102 152.88L244.294 153.918C243.435 152.457 242.467 151.08 241.401 149.812L244.971 142.801L239.423 138.192L233.18 142.994C231.723 142.171 230.197 141.467 228.623 140.893L228.209 133.028L221.102 131.811L218.095 139.084C216.437 139.098 214.765 139.258 213.092 139.554L208.808 132.948ZM235.763 162.757C239.315 172.375 234.401 183.051 224.789 186.608C215.173 190.16 204.5 185.245 200.944 175.632C197.392 166.013 202.306 155.337 211.918 151.78C221.534 148.223 232.212 153.138 235.763 162.757Z" fill="#5479F7"/>
<path d="M214.131 210.501C214.093 210.501 214.051 210.497 214.013 210.492L206.906 209.275C206.582 209.218 206.337 208.946 206.318 208.617L205.933 201.212C204.627 200.714 203.35 200.126 202.119 199.454L196.242 203.975C195.984 204.177 195.617 204.167 195.363 203.956L189.815 199.346C189.562 199.135 189.487 198.778 189.637 198.486L192.996 191.889C192.122 190.813 191.309 189.662 190.572 188.45L183.225 189.427C182.9 189.469 182.586 189.281 182.473 188.971L179.974 182.205C179.861 181.895 179.974 181.547 180.251 181.369L186.466 177.332C186.236 175.937 186.104 174.532 186.071 173.146L179.231 170.322C178.926 170.195 178.752 169.875 178.804 169.551L180.021 162.442C180.077 162.118 180.349 161.873 180.678 161.855L188.082 161.469C188.58 160.163 189.167 158.88 189.839 157.654L185.32 151.776C185.118 151.513 185.127 151.151 185.338 150.897L189.947 145.348C190.158 145.094 190.515 145.019 190.811 145.169L197.407 148.534C198.483 147.66 199.634 146.847 200.846 146.109L199.869 138.76C199.826 138.436 200.014 138.121 200.324 138.008L207.089 135.508C207.399 135.396 207.747 135.508 207.925 135.786L211.96 142.002C213.36 141.772 214.765 141.64 216.146 141.608L218.969 134.766C219.096 134.461 219.416 134.282 219.74 134.338L226.848 135.555C227.172 135.612 227.416 135.884 227.435 136.213L227.82 143.619C229.131 144.117 230.408 144.704 231.634 145.376L237.511 140.856C237.774 140.654 238.136 140.663 238.39 140.87L243.938 145.479C244.192 145.691 244.267 146.048 244.116 146.339L240.753 152.936C241.627 154.012 242.439 155.164 243.177 156.376L250.524 155.398C250.848 155.351 251.163 155.544 251.276 155.854L253.775 162.621C253.888 162.931 253.775 163.278 253.498 163.457L247.283 167.493C247.513 168.893 247.644 170.298 247.677 171.68L254.517 174.504C254.822 174.631 254.996 174.95 254.945 175.274L253.728 182.384C253.671 182.708 253.399 182.952 253.07 182.971L245.667 183.356C245.169 184.663 244.581 185.945 243.91 187.172L248.429 193.05C248.631 193.313 248.621 193.675 248.41 193.929L243.802 199.478C243.59 199.732 243.233 199.807 242.942 199.656L236.346 196.292C235.271 197.166 234.12 197.979 232.908 198.717L233.885 206.066C233.927 206.39 233.739 206.705 233.429 206.817L226.664 209.317C226.354 209.43 226.007 209.317 225.828 209.04L221.793 202.823C220.393 203.054 218.988 203.185 217.602 203.218L214.779 210.064C214.671 210.332 214.413 210.501 214.131 210.501ZM207.695 207.978L213.689 209.007L216.475 202.255C216.583 201.992 216.837 201.823 217.119 201.818C218.725 201.804 220.369 201.649 222.004 201.357C222.286 201.306 222.563 201.428 222.718 201.668L226.702 207.799L232.41 205.69L231.447 198.439C231.409 198.158 231.545 197.88 231.79 197.739C233.218 196.903 234.566 195.949 235.797 194.915C236.013 194.732 236.318 194.699 236.572 194.826L243.078 198.143L246.968 193.463L242.51 187.665C242.336 187.44 242.317 187.134 242.453 186.89C243.257 185.471 243.947 183.972 244.502 182.435C244.6 182.168 244.844 181.989 245.126 181.97L252.427 181.59L253.455 175.594L246.705 172.808C246.442 172.699 246.273 172.446 246.268 172.164C246.254 170.557 246.099 168.912 245.808 167.282C245.756 167.005 245.878 166.723 246.118 166.568L252.248 162.583L250.139 156.874L242.89 157.837C242.613 157.875 242.331 157.738 242.19 157.494C241.354 156.066 240.4 154.717 239.367 153.486C239.184 153.27 239.151 152.964 239.278 152.711L242.594 146.203L237.915 142.317L232.118 146.776C231.893 146.95 231.588 146.969 231.343 146.833C229.925 146.029 228.426 145.343 226.89 144.784C226.622 144.685 226.444 144.441 226.425 144.159L226.044 136.852L220.05 135.823L217.264 142.575C217.156 142.839 216.902 143.008 216.621 143.012C215.014 143.027 213.37 143.182 211.74 143.473C211.458 143.52 211.181 143.402 211.026 143.163L207.042 137.031L201.334 139.141L202.297 146.391C202.335 146.673 202.199 146.95 201.954 147.091C200.526 147.932 199.178 148.881 197.947 149.92C197.731 150.103 197.426 150.136 197.172 150.009L190.666 146.692L186.781 151.372L191.239 157.17C191.413 157.395 191.431 157.701 191.295 157.945C190.492 159.364 189.801 160.863 189.247 162.395C189.148 162.663 188.904 162.846 188.622 162.86L181.317 163.241L180.288 169.236L187.039 172.023C187.302 172.131 187.471 172.385 187.476 172.667C187.49 174.278 187.645 175.918 187.936 177.549C187.988 177.826 187.866 178.108 187.626 178.263L181.496 182.247L183.605 187.956L190.854 186.993C191.135 186.956 191.413 187.092 191.554 187.336C192.394 188.765 193.343 190.113 194.382 191.344C194.565 191.56 194.598 191.866 194.471 192.12L191.154 198.627L195.833 202.518L201.63 198.059C201.856 197.885 202.161 197.866 202.405 198.002C203.829 198.806 205.327 199.497 206.859 200.051C207.126 200.15 207.305 200.394 207.324 200.676L207.695 207.978ZM216.86 191.697C214.117 191.697 211.383 191.105 208.818 189.921C204.143 187.768 200.587 183.925 198.802 179.094C197.017 174.269 197.219 169.034 199.371 164.359C201.522 159.684 205.365 156.127 210.194 154.341C220.158 150.657 231.259 155.77 234.942 165.736C236.727 170.561 236.525 175.796 234.373 180.471C232.222 185.147 228.379 188.704 223.55 190.489C221.375 191.293 219.115 191.697 216.86 191.697ZM216.879 154.548C214.788 154.548 212.698 154.919 210.678 155.666C206.206 157.32 202.64 160.619 200.648 164.951C198.652 169.283 198.464 174.137 200.117 178.611C203.533 187.848 213.821 192.585 223.056 189.173C227.529 187.519 231.094 184.221 233.086 179.889C235.083 175.556 235.266 170.702 233.612 166.229C231.959 161.756 228.661 158.19 224.33 156.197C221.957 155.098 219.425 154.548 216.879 154.548Z" fill="black"/>
<path d="M143.976 164.547L139.151 166.333L139.893 171.905C138.85 172.521 137.869 173.207 136.962 173.973L131.964 171.421L128.675 175.378L132.104 179.832C131.517 180.875 131.015 181.961 130.606 183.084L124.992 183.375L124.123 188.445L129.309 190.588C129.319 191.772 129.431 192.965 129.648 194.159L124.936 197.218L126.721 202.044L132.292 201.301C132.903 202.344 133.594 203.326 134.359 204.233L131.813 209.233L135.769 212.522L140.222 209.092C141.265 209.679 142.35 210.182 143.473 210.591L143.764 216.206L148.833 217.075L150.975 211.888C152.159 211.878 153.352 211.765 154.545 211.549L157.604 216.262L162.428 214.477L161.686 208.904C162.729 208.293 163.711 207.602 164.617 206.836L169.616 209.383L172.904 205.427L169.475 200.972C170.062 199.934 170.565 198.844 170.973 197.721L176.587 197.425L177.456 192.355L172.27 190.212C172.261 189.028 172.148 187.834 171.932 186.641L176.644 183.582L174.858 178.756L169.287 179.499C168.676 178.456 167.986 177.474 167.22 176.567L169.766 171.567L165.811 168.278L161.357 171.708C160.314 171.121 159.229 170.618 158.106 170.209L157.81 164.594L152.737 163.725L150.595 168.912C149.411 168.922 148.218 169.034 147.024 169.251L143.976 164.547ZM163.213 185.819C165.75 192.684 162.24 200.3 155.382 202.838C148.518 205.375 140.903 201.865 138.367 195.005C135.83 188.14 139.339 180.523 146.198 177.986C153.061 175.448 160.676 178.954 163.213 185.819Z" fill="#99B9FF"/>
<path d="M338.923 304.844C338.744 304.844 338.566 304.778 338.43 304.642C338.152 304.369 338.148 303.923 338.42 303.645C367.386 274.245 373.536 230.875 373.592 230.443C373.644 230.058 374.005 229.785 374.386 229.837C374.771 229.888 375.044 230.246 374.992 230.631C374.931 231.068 368.73 274.894 339.426 304.637C339.289 304.773 339.106 304.844 338.923 304.844Z" fill="black"/>
<path d="M343.466 288.68C343.321 288.68 343.175 288.633 343.048 288.543C342.733 288.313 342.668 287.872 342.903 287.557C350.165 277.722 355.981 266.041 360.19 252.828C360.308 252.457 360.702 252.255 361.073 252.372C361.445 252.49 361.651 252.889 361.529 253.256C357.278 266.614 351.391 278.436 344.035 288.393C343.899 288.581 343.682 288.68 343.466 288.68Z" fill="black"/>
<path d="M328.443 317.751C327.419 317.751 326.394 317.338 325.652 316.52C324.248 314.979 324.36 312.587 325.901 311.187C326.643 310.506 327.602 310.149 328.621 310.205C329.626 310.252 330.557 310.689 331.238 311.431C331.919 312.178 332.267 313.142 332.22 314.152C332.173 315.157 331.736 316.088 330.993 316.769C330.261 317.427 329.349 317.751 328.443 317.751ZM328.438 311.61C327.846 311.61 327.287 311.826 326.845 312.225C325.882 313.104 325.812 314.603 326.69 315.571C327.569 316.534 329.067 316.605 330.035 315.726C330.5 315.298 330.777 314.716 330.806 314.086C330.834 313.456 330.618 312.85 330.19 312.38C329.763 311.915 329.18 311.638 328.551 311.61C328.513 311.61 328.475 311.61 328.438 311.61Z" fill="black"/>
<path d="M282.662 11.1595C282.286 11.1595 281.971 10.8635 281.957 10.4829L281.844 7.49447C281.83 7.10447 282.131 6.78026 282.521 6.76146C282.911 6.74737 283.235 7.04809 283.254 7.43809L283.366 10.4265C283.38 10.8165 283.08 11.1407 282.69 11.1595C282.676 11.1595 282.671 11.1595 282.662 11.1595Z" fill="black"/>
<path d="M283.019 20.6041C282.643 20.6041 282.329 20.3081 282.314 19.9275L282.202 16.9391C282.188 16.5491 282.488 16.2248 282.878 16.206C283.268 16.1919 283.592 16.4927 283.611 16.8827L283.724 19.8711C283.738 20.2611 283.437 20.5853 283.047 20.6041C283.033 20.6041 283.028 20.6041 283.019 20.6041Z" fill="black"/>
<path d="M276.564 14.6225C276.189 14.6225 275.874 14.3265 275.86 13.9459C275.846 13.5559 276.151 13.2317 276.536 13.2129L279.524 13.1001C279.928 13.0766 280.238 13.3914 280.257 13.7767C280.271 14.1667 279.966 14.491 279.58 14.5098L276.593 14.6225C276.583 14.6225 276.574 14.6225 276.564 14.6225Z" fill="black"/>
<path d="M286.012 14.2654C285.636 14.2654 285.321 13.9694 285.307 13.5888C285.293 13.1988 285.594 12.8746 285.984 12.8558L288.971 12.743C289.361 12.7336 289.69 13.0343 289.704 13.4196C289.718 13.8096 289.418 14.1339 289.028 14.1527L286.04 14.2654C286.026 14.2654 286.021 14.2654 286.012 14.2654Z" fill="black"/>
<path d="M72.1765 161.451C70.645 161.451 69.1182 160.873 67.9485 159.712C66.807 158.584 66.1775 157.076 66.1681 155.469C66.1587 153.862 66.7788 152.349 67.9062 151.212C69.0337 150.07 70.5416 149.44 72.1483 149.431C73.7455 149.436 75.2675 150.042 76.4044 151.17C78.758 153.5 78.7767 157.316 76.4467 159.67C75.2722 160.854 73.722 161.451 72.1765 161.451ZM72.1765 150.841C72.1671 150.841 72.1624 150.841 72.153 150.841C70.9222 150.845 69.7712 151.329 68.9068 152.203C68.0425 153.077 67.568 154.233 67.5727 155.464C67.5774 156.695 68.0613 157.847 68.935 158.711C70.739 160.497 73.6562 160.483 75.4414 158.678C77.2265 156.874 77.2124 153.956 75.4085 152.17C74.5441 151.311 73.3979 150.841 72.1765 150.841Z" fill="black"/>
<path d="M26.2711 103.965C26.1772 103.965 26.0832 103.947 25.9893 103.909C25.6322 103.754 25.4678 103.34 25.6228 102.983C36.949 76.8439 56.0406 54.5294 80.8304 38.4548C91.1466 31.7637 102.261 26.2849 113.86 22.1735C114.227 22.0466 114.631 22.2345 114.757 22.601C114.889 22.9675 114.696 23.3716 114.33 23.5032C102.835 27.5818 91.8231 33.0089 81.5962 39.6389C57.0412 55.5631 38.1329 77.6615 26.9147 103.547C26.802 103.806 26.5436 103.965 26.2711 103.965Z" fill="black"/>
<path d="M24.7533 107.598C24.664 107.598 24.5795 107.583 24.4902 107.546C24.1285 107.4 23.9547 106.991 24.1003 106.63C24.5889 105.413 25.1009 104.186 25.6224 102.979C25.7774 102.622 26.1908 102.457 26.5478 102.612C26.9048 102.767 27.0693 103.181 26.9142 103.538C26.3975 104.731 25.8901 105.948 25.4063 107.156C25.2982 107.433 25.0351 107.598 24.7533 107.598Z" fill="black"/>
<path d="M13.1637 110.783C13.0791 110.783 12.9945 110.769 12.9147 110.736C12.553 110.595 12.3698 110.191 12.506 109.825C18.9982 92.8151 28.4125 77.0084 40.4903 62.8415C52.9862 48.186 68.0236 35.6684 85.1797 25.6318C85.518 25.4344 85.9454 25.5472 86.1427 25.8855C86.34 26.2191 86.2273 26.6514 85.8891 26.8488C52.5118 46.3723 26.9186 76.017 13.8213 110.332C13.7133 110.609 13.4455 110.783 13.1637 110.783Z" fill="black"/>
<path d="M257.474 226.036C257.084 226.036 256.77 225.721 256.77 225.331V221.684C256.77 221.294 257.084 220.98 257.474 220.98C257.864 220.98 258.179 221.294 258.179 221.684V225.331C258.179 225.721 257.859 226.036 257.474 226.036Z" fill="black"/>
<path d="M257.474 234.526C257.084 234.526 256.77 234.211 256.77 233.821V230.175C256.77 229.785 257.084 229.47 257.474 229.47C257.864 229.47 258.179 229.785 258.179 230.175V233.821C258.179 234.211 257.859 234.526 257.474 234.526Z" fill="black"/>
<path d="M255.049 228.46H251.404C251.014 228.46 250.699 228.145 250.699 227.755C250.699 227.365 251.014 227.05 251.404 227.05H255.049C255.439 227.05 255.754 227.365 255.754 227.755C255.754 228.145 255.439 228.46 255.049 228.46Z" fill="black"/>
<path d="M263.538 228.46H259.892C259.502 228.46 259.188 228.145 259.188 227.755C259.188 227.365 259.502 227.05 259.892 227.05H263.538C263.928 227.05 264.242 227.365 264.242 227.755C264.242 228.145 263.928 228.46 263.538 228.46Z" fill="black"/>
<path d="M211.074 229.165H12.3084C5.90076 229.165 0.705078 234.362 0.705078 240.771V371.092C0.705078 377.501 5.90076 382.698 12.3084 382.698H211.078C217.486 382.698 222.682 377.501 222.682 371.092V240.766C222.677 234.357 217.481 229.165 211.074 229.165Z" fill="#99B9FF"/>
<path d="M211.073 383.398H12.308C5.52452 383.398 0 377.877 0 371.087V240.766C0 233.981 5.51982 228.455 12.308 228.455H211.078C217.861 228.455 223.386 233.976 223.386 240.766V371.087C223.381 377.872 217.861 383.398 211.073 383.398ZM12.308 229.87C6.29964 229.87 1.40932 234.761 1.40932 240.771V371.092C1.40932 377.102 6.29964 381.993 12.308 381.993H211.078C217.086 381.993 221.977 377.102 221.977 371.092V240.766C221.977 234.756 217.086 229.865 211.078 229.865H12.308V229.87Z" fill="black"/>
<path d="M213.456 248.909H9.92731C9.5374 248.909 9.22266 248.594 9.22266 248.204C9.22266 247.814 9.5374 247.5 9.92731 247.5H213.456C213.846 247.5 214.161 247.814 214.161 248.204C214.161 248.594 213.841 248.909 213.456 248.909Z" fill="black"/>
<path d="M21.3809 238.088C21.3809 239.732 20.0515 241.062 18.4073 241.062C16.763 241.062 15.4336 239.732 15.4336 238.088C15.4336 236.443 16.763 235.114 18.4073 235.114C20.0515 235.114 21.3809 236.448 21.3809 238.088Z" fill="#99B9FF"/>
<path d="M33.2793 238.088C33.2793 239.732 31.9499 241.062 30.3057 241.062C28.6615 241.062 27.332 239.732 27.332 238.088C27.332 236.443 28.6615 235.114 30.3057 235.114C31.9452 235.114 33.2793 236.448 33.2793 238.088Z" fill="#99B9FF"/>
<path d="M45.1797 238.088C45.1797 239.732 43.8503 241.062 42.2061 241.062C40.5619 241.062 39.2324 239.732 39.2324 238.088C39.2324 236.443 40.5619 235.114 42.2061 235.114C43.8456 235.114 45.1797 236.448 45.1797 238.088Z" fill="white"/>
<path d="M213.602 238.793H196.845C196.455 238.793 196.141 238.478 196.141 238.088C196.141 237.698 196.455 237.383 196.845 237.383H213.602C213.992 237.383 214.307 237.698 214.307 238.088C214.307 238.478 213.992 238.793 213.602 238.793Z" fill="black"/>
<path d="M189.311 238.793H119.902C119.512 238.793 119.197 238.478 119.197 238.088C119.197 237.698 119.512 237.383 119.902 237.383H189.311C189.701 237.383 190.015 237.698 190.015 238.088C190.015 238.478 189.701 238.793 189.311 238.793Z" fill="black"/>
<path d="M67.0883 238.793H52.314C51.9241 238.793 51.6094 238.478 51.6094 238.088C51.6094 237.698 51.9241 237.383 52.314 237.383H67.0883C67.4783 237.383 67.793 237.698 67.793 238.088C67.793 238.478 67.4783 238.793 67.0883 238.793Z" fill="black"/>
<path d="M207.277 371.491H16.1033C12.6927 371.491 9.92578 368.724 9.92578 365.312V266.365C9.92578 262.954 12.6927 260.186 16.1033 260.186H207.277C210.688 260.186 213.454 262.954 213.454 266.365V365.312C213.454 368.724 210.688 371.491 207.277 371.491Z" fill="#CADDFF"/>
<path d="M259.258 365.406H206.395L269.743 305.121C271.721 303.237 274.314 302.095 276.607 302.095H319.506C322.231 302.095 322.719 305.013 320.366 307.249L259.258 365.406Z" fill="black"/>
<path d="M287.429 323.235C284.653 325.875 280.101 328.018 277.264 328.018C274.426 328.018 274.374 325.875 277.151 323.235C279.927 320.594 284.479 318.451 287.317 318.451C290.159 318.451 290.21 320.594 287.429 323.235Z" fill="#CADDFF"/>
<path d="M255.077 371.355H148.96C145.982 371.355 143.562 368.94 143.562 365.956V364.894H260.475V365.956C260.475 368.94 258.06 371.355 255.077 371.355Z" fill="black"/>
<path d="M257.003 366.177H203.355C202.965 366.177 202.65 365.862 202.65 365.472C202.65 365.082 202.965 364.767 203.355 364.767H257.003C257.393 364.767 257.708 365.082 257.708 365.472C257.708 365.862 257.388 366.177 257.003 366.177Z" fill="white"/>
<path d="M97.5297 259.914C97.5297 259.914 86.5934 249.802 82.5816 247.448C78.5697 245.094 73.5714 235.443 87.0538 229.531C91.4227 227.614 92.2824 222.305 100.701 221.398C109.119 220.491 116.109 224.767 117.016 230.072C117.923 235.381 112.891 239.982 109.128 240.592C105.366 241.208 97.5297 259.914 97.5297 259.914Z" fill="black"/>
<path d="M116.535 247.434L117.704 245.737L113.068 239.803L109.887 232.012C100.905 231.401 97.307 233.859 97.1895 240.747C97.1144 245.164 94.789 245.268 94.789 245.268C94.789 245.268 91.3738 241.593 89.6074 245.954C87.8411 250.314 95.1836 253.345 95.1836 253.345C96.1372 255.361 95.9071 257.733 94.587 259.528L81.5273 277.28C81.5273 277.28 106.012 283.765 106.27 279.902C106.345 278.808 105.97 277.873 105.401 277.093C102.578 273.249 107.68 262.85 107.68 262.85L115.854 259.547C117.352 258.941 118.151 257.301 117.7 255.746L116.084 250.183C115.816 249.252 115.98 248.237 116.535 247.434Z" fill="white"/>
<path d="M102.804 281.805C96.1005 281.805 83.1301 278.432 81.359 277.962C81.1335 277.901 80.9503 277.736 80.8752 277.515C80.8 277.295 80.8329 277.05 80.9738 276.862L94.0335 259.11C95.1515 257.593 95.3864 255.61 94.663 253.881C93.2724 253.251 87.1466 250.183 88.9646 245.691C89.5612 244.215 90.4209 243.365 91.5202 243.163C93 242.89 94.4046 243.952 95.0059 244.492C95.471 244.29 96.4434 243.529 96.4951 240.733C96.5514 237.463 97.3876 235.128 99.0553 233.596C101.151 231.674 104.608 230.941 109.945 231.308C110.212 231.326 110.447 231.495 110.551 231.745L113.693 239.446L118.269 245.301C118.457 245.545 118.466 245.883 118.292 246.137L117.123 247.833C116.686 248.463 116.559 249.252 116.77 249.99L118.386 255.553C118.941 257.461 117.968 259.458 116.132 260.2L108.211 263.4C106.797 266.375 103.936 273.883 105.984 276.674C106.727 277.689 107.065 278.789 106.99 279.945C106.966 280.278 106.83 280.758 106.295 281.143C105.642 281.613 104.401 281.805 102.804 281.805ZM82.7214 276.862C90.8437 278.953 103.415 281.477 105.468 280.001C105.576 279.926 105.576 279.879 105.58 279.855C105.637 279.038 105.388 278.248 104.848 277.511C101.808 273.371 106.844 262.982 107.06 262.54C107.135 262.385 107.267 262.263 107.427 262.197L115.601 258.894C116.77 258.424 117.386 257.156 117.034 255.943L115.417 250.38C115.084 249.233 115.281 248.012 115.962 247.03L116.841 245.761L112.524 240.235C112.481 240.184 112.453 240.127 112.425 240.066L109.414 232.684C104.744 232.416 101.747 233.037 100.014 234.634C98.6278 235.908 97.9561 237.853 97.9091 240.757C97.8245 245.78 94.9589 245.968 94.8368 245.972C94.6254 245.982 94.4281 245.902 94.2871 245.747C93.916 245.352 92.7416 244.365 91.7786 244.544C91.1866 244.657 90.6793 245.216 90.2753 246.217C88.7908 249.877 95.4005 252.664 95.4663 252.692C95.626 252.758 95.7575 252.884 95.8327 253.044C96.8991 255.295 96.6454 257.94 95.1656 259.947L82.7214 276.862Z" fill="black"/>
<path d="M95.4531 239.46L101.663 247.866C104.299 251.428 109.123 252.565 113.07 250.554L116.442 248.834L122.672 260.313C123.339 261.948 122.474 263.8 120.793 264.34L111.735 268.099C109.147 268.926 106.314 268.231 104.402 266.295L94.6639 256.423C94.6639 256.423 98.3563 252.997 94.7907 245.277C91.2298 237.552 95.4531 239.46 95.4531 239.46Z" fill="black"/>
<path d="M200.044 264.852L182.3 267.451C182.3 267.451 175.103 295.098 157.05 296.005C148.364 296.442 141.792 293.736 137.31 290.813C130.527 286.382 122.78 283.647 114.705 282.98L82.2623 280.307C64.3311 278.831 47.2408 288.168 38.8131 304.064C29.8029 321.064 18.6317 343.736 11.5053 363.912C10.1899 367.634 12.9287 371.534 16.8748 371.534H102.97L121.911 324.09C131.349 328.107 145.893 331.655 166.323 329.775C209.519 325.8 200.044 264.852 200.044 264.852Z" fill="#5479F7"/>
<path d="M102.969 372.243H16.8737C14.7692 372.243 12.8666 371.256 11.6499 369.541C10.4285 367.817 10.1325 365.679 10.8419 363.682C18.1515 342.993 29.7502 319.664 38.192 303.739C46.7606 287.576 64.0811 278.108 82.3224 279.606L114.765 282.28C122.821 282.943 130.751 285.691 137.699 290.226C143.411 293.952 149.908 295.662 157.016 295.305C174.351 294.436 181.552 267.549 181.623 267.277C181.693 267.004 181.923 266.798 182.201 266.755L199.939 264.157C200.324 264.1 200.677 264.364 200.738 264.744C200.789 265.082 205.797 298.622 190.99 317.61C185.08 325.189 176.803 329.517 166.383 330.48C145.657 332.388 131.061 328.638 122.295 325.02L103.617 371.801C103.518 372.069 103.255 372.243 102.969 372.243ZM78.5407 280.861C62.2349 280.861 47.1646 289.822 39.4369 304.397C31.0186 320.279 19.4528 343.543 12.1666 364.152C11.617 365.712 11.8472 367.38 12.7961 368.728C13.7451 370.068 15.2295 370.838 16.869 370.838H102.49L121.257 323.836C121.328 323.658 121.464 323.521 121.642 323.446C121.816 323.371 122.013 323.376 122.187 323.446C130.723 327.083 145.295 331.011 166.257 329.075C176.267 328.154 184.216 324.005 189.877 316.746C203.143 299.731 200.061 270.514 199.441 265.651L182.858 268.08C181.801 271.83 174.374 295.841 157.082 296.71C149.669 297.081 142.89 295.296 136.924 291.4C130.173 286.993 122.469 284.324 114.647 283.68L82.2049 281.007C80.9788 280.908 79.7574 280.861 78.5407 280.861Z" fill="black"/>
<path d="M125.447 333.544C112.035 329.104 104.787 308.25 104.787 308.25L65.293 316.205C65.293 316.205 92.6666 359.9 111.533 363.898C123.291 366.393 146.911 355.299 163.048 346.583C160.981 342.011 158.007 335.447 155.799 330.617C144.003 333.488 131.536 335.56 125.447 333.544Z" fill="#5479F7"/>
<path d="M115.276 364.96C113.876 364.96 112.575 364.843 111.387 364.589C92.4454 360.571 65.8187 318.372 64.6959 316.581C64.4892 316.252 64.5879 315.815 64.9167 315.609C65.2456 315.402 65.6825 315.501 65.8892 315.83C66.1616 316.262 93.3192 359.317 111.678 363.207C120.453 365.068 138.356 359.058 162.131 346.273C160.135 341.856 157.462 335.959 155.4 331.439C140.583 335.001 130.431 335.936 125.226 334.211C111.64 329.71 104.425 309.345 104.124 308.476C103.997 308.109 104.19 307.705 104.556 307.578C104.923 307.452 105.327 307.644 105.453 308.011C105.524 308.217 112.744 328.587 125.668 332.867C130.614 334.507 140.973 333.488 155.63 329.926C155.959 329.846 156.297 330.01 156.438 330.316C158.627 335.104 161.586 341.64 163.686 346.282C163.837 346.621 163.705 347.015 163.381 347.194C147.888 355.572 127.73 364.96 115.276 364.96Z" fill="black"/>
<path d="M205.942 335.231L187.658 325.072C184.835 323.503 181.49 323.174 178.418 324.165C173.321 325.81 164.748 328.441 155.789 330.621C157.997 335.452 160.971 342.011 163.038 346.588C172.79 341.32 179.809 336.922 179.809 336.922L191.609 343.139C191.609 343.139 190.951 353.5 193.296 353.786C195.64 354.073 196.518 344.511 196.518 344.511C196.518 344.511 198.534 356.38 202.015 353.786L203.349 339.45C203.349 339.45 205.66 345.798 206.985 346.061C208.31 346.325 208.31 346.325 208.31 346.325L205.942 335.231Z" fill="white"/>
<path d="M201.037 354.858C200.741 354.858 200.478 354.792 200.267 354.707C198.585 354.035 197.41 351.042 196.687 348.449C196.264 350.699 195.56 353.208 194.46 354.096C193.981 354.482 193.521 354.519 193.215 354.482C190.622 354.167 190.688 347.067 190.885 343.548L179.841 337.731C178.31 338.68 171.831 342.641 163.38 347.208C163.206 347.302 163.004 347.316 162.821 347.255C162.638 347.194 162.483 347.058 162.403 346.879C160.303 342.237 157.344 335.701 155.154 330.917C155.065 330.725 155.07 330.504 155.159 330.316C155.253 330.128 155.422 329.987 155.629 329.94C164.39 327.811 172.743 325.26 178.206 323.498C181.452 322.45 185.023 322.802 188.006 324.461L206.289 334.62C206.468 334.719 206.595 334.888 206.637 335.09L209.009 346.179C209.061 346.409 208.99 346.654 208.821 346.823C208.657 346.992 208.417 347.067 208.182 347.02L206.858 346.757C205.838 346.555 204.701 344.511 203.785 342.439L202.724 353.857C202.705 354.054 202.601 354.237 202.442 354.355C201.925 354.731 201.446 354.858 201.037 354.858ZM196.523 343.801C196.866 343.801 197.157 344.05 197.218 344.389C197.791 347.762 199.28 352.79 200.788 353.396C200.92 353.448 201.093 353.486 201.347 353.368L202.648 339.385C202.677 339.056 202.935 338.792 203.259 338.75C203.583 338.703 203.898 338.896 204.011 339.206C205.134 342.293 206.571 345.117 207.149 345.375L207.398 345.422L205.317 335.691L187.315 325.688C184.67 324.217 181.509 323.907 178.634 324.832C173.321 326.547 165.283 329 156.785 331.096C158.819 335.555 161.412 341.269 163.366 345.601C172.644 340.564 179.362 336.358 179.432 336.316C179.644 336.18 179.911 336.171 180.137 336.288L191.938 342.505C192.182 342.636 192.332 342.895 192.313 343.172C191.966 348.632 192.605 352.978 193.38 353.072C193.399 353.072 193.455 353.082 193.572 352.988C194.719 352.062 195.56 347.25 195.818 344.431C195.851 344.079 196.137 343.806 196.494 343.792C196.504 343.801 196.513 343.801 196.523 343.801Z" fill="black"/>
<path d="M112.772 284.474L113.575 279.583C113.843 277.953 112.786 276.397 111.166 276.054C103.095 274.353 80.7196 269.504 77.807 267.451C74.2461 264.937 48.4415 289.253 52.3125 288.614C81.1189 283.868 112.772 284.474 112.772 284.474Z" fill="#5479F7"/>
<path d="M52.1817 289.333C51.5898 289.333 51.3596 288.938 51.2985 288.807C51.0871 288.337 50.763 287.632 55.4654 282.816C58.176 280.039 61.7745 276.74 65.0911 273.987C75.7549 265.139 77.6105 266.445 78.2165 266.877C80.1332 268.226 92.5023 271.402 111.312 275.368C113.304 275.786 114.605 277.689 114.271 279.7L113.468 284.592C113.412 284.94 113.102 285.184 112.759 285.184C112.444 285.179 80.8378 284.634 52.4307 289.319C52.3414 289.328 52.2569 289.333 52.1817 289.333ZM77.1266 267.977C76.8964 267.977 76.5018 268.038 75.8535 268.301C69.5351 270.829 55.3386 284.272 52.9615 287.801C79.1231 283.582 107.676 283.713 112.181 283.765L112.886 279.475C113.092 278.211 112.275 277.013 111.025 276.75C99.6992 274.363 80.2741 270.054 77.4085 268.033C77.3991 268.024 77.3239 267.977 77.1266 267.977Z" fill="black"/>
<path d="M191.151 235.654C191.645 234.672 194.111 231.735 195.234 230.894L207.091 219.866C207.091 219.866 208.632 225.18 206.762 228.314C210.403 228.437 213.282 229.057 213.282 229.057C213.282 229.057 218.699 224.283 220.047 223.461C221.395 222.638 223.157 221.332 224.97 221.355C226.788 221.379 228.592 222.77 228.592 222.77L218.177 235.973L199.236 241.189L200.298 269.913L182.301 267.451L191.151 235.654Z" fill="white"/>
<path d="M200.302 270.618C200.269 270.618 200.236 270.618 200.208 270.613L182.211 268.151C182.009 268.123 181.831 268.01 181.718 267.841C181.605 267.671 181.572 267.46 181.629 267.263L190.474 235.466C190.488 235.424 190.503 235.381 190.521 235.339C191.052 234.282 193.542 231.303 194.777 230.354L206.606 219.349C206.785 219.18 207.039 219.119 207.273 219.185C207.508 219.25 207.696 219.434 207.762 219.669C207.823 219.875 209.082 224.325 207.847 227.657C210.322 227.802 212.3 228.145 213.075 228.291C214.193 227.314 218.449 223.601 219.675 222.85C219.859 222.737 220.051 222.615 220.253 222.488C221.554 221.666 223.17 220.641 224.918 220.641C224.937 220.641 224.956 220.641 224.979 220.641C227.009 220.669 228.939 222.14 229.019 222.201C229.169 222.314 229.263 222.488 229.287 222.671C229.31 222.859 229.259 223.047 229.141 223.193L218.726 236.396C218.632 236.514 218.506 236.598 218.36 236.641L199.959 241.706L200.997 269.871C201.007 270.077 200.922 270.279 200.767 270.42C200.645 270.552 200.476 270.618 200.302 270.618ZM183.198 266.863L199.564 269.1L198.536 241.213C198.522 240.884 198.738 240.592 199.052 240.508L217.768 235.358L227.568 222.939C226.952 222.572 225.942 222.079 224.965 222.065C224.951 222.065 224.937 222.065 224.927 222.065C223.589 222.065 222.16 222.967 221.014 223.691C220.808 223.822 220.61 223.949 220.418 224.062C219.356 224.71 215.245 228.272 213.752 229.588C213.582 229.738 213.357 229.794 213.136 229.748C213.108 229.743 210.271 229.141 206.743 229.024C206.494 229.014 206.268 228.878 206.146 228.657C206.029 228.437 206.033 228.173 206.16 227.957C207.353 225.956 206.996 222.878 206.681 221.219L195.717 231.416C195.698 231.434 195.679 231.448 195.661 231.463C194.641 232.224 192.325 234.973 191.813 235.917L183.198 266.863Z" fill="black"/>
<path d="M76.8394 132.309C74.8523 132.309 73.1893 130.749 73.0906 128.738C71.8175 103.646 80.3956 79.5599 97.2322 60.9198C114.074 42.2797 137.163 31.3127 162.244 30.044C164.32 29.9454 166.082 31.5336 166.185 33.6104C166.289 35.6826 164.696 37.4493 162.624 37.5527C139.545 38.7227 118.301 48.811 102.808 65.9616C87.3153 83.1122 79.4278 105.272 80.5929 128.357C80.6962 130.429 79.1037 132.196 77.032 132.299C76.9709 132.309 76.9052 132.309 76.8394 132.309Z" fill="#5479F7"/>
<path d="M91.5158 122.244L61.8262 123.747L77.6152 141.593L91.5158 122.244Z" fill="#5479F7"/>
<path d="M235.61 280.499C233.642 280.499 231.988 278.972 231.861 276.98C231.73 274.908 233.299 273.122 235.37 272.991C279.087 270.2 312.38 232.355 309.594 188.633C309.463 186.561 311.032 184.775 313.104 184.644C315.185 184.503 316.96 186.086 317.092 188.154C320.145 236.016 283.701 277.44 235.85 280.495C235.774 280.499 235.69 280.499 235.61 280.499Z" fill="#5479F7"/>
<path d="M299.902 194.38L327.243 192.636L312.483 176.379L299.902 194.38Z" fill="#5479F7"/>
<path d="M367.879 48.0922L361.673 37.3649L348.755 41.4012C346.871 39.1739 344.837 37.1299 342.652 35.2927L346.655 22.3804L335.916 16.1968L326.746 26.1536C324.035 25.1809 321.249 24.4385 318.417 23.931L315.424 10.7274L303.032 10.7415L300.072 23.9357C297.263 24.4432 294.482 25.1997 291.738 26.1959L282.55 16.2579L271.825 22.465L275.86 35.3867C273.633 37.2709 271.59 39.3102 269.753 41.4904L256.844 37.4871L250.662 48.2285L260.616 57.4006C259.644 60.1118 258.901 62.8981 258.394 65.7315L245.193 68.7246L245.207 81.1201L258.399 84.0803C258.906 86.8902 259.662 89.6719 260.658 92.416L250.723 101.607L256.928 112.334L269.847 108.298C271.731 110.525 273.77 112.569 275.949 114.406L271.947 127.319L282.686 133.502L291.856 123.545C294.566 124.518 297.352 125.261 300.185 125.768L303.177 138.972L315.57 138.958L318.529 125.763C321.339 125.256 324.12 124.499 326.863 123.503L336.043 133.446L346.767 127.239L342.732 114.317C344.959 112.433 347.002 110.394 348.839 108.213L361.748 112.217L367.931 101.475L357.972 92.3032C358.944 89.592 359.686 86.8056 360.194 83.9675L373.394 80.9744L373.38 68.579L360.189 65.6187C359.681 62.8089 358.925 60.0272 357.929 57.2831L367.879 48.0922ZM325.271 102.462C310.022 111.291 290.508 106.08 281.681 90.8325C272.854 75.5802 278.063 56.0614 293.312 47.2324C308.561 38.4033 328.075 43.6143 336.902 58.8666C345.725 74.1142 340.52 93.633 325.271 102.462Z" fill="#5479F7"/>
<path d="M297.277 138.398C296.812 138.398 296.408 138.074 296.304 137.623L293.457 125.058C291.015 124.589 288.595 123.94 286.242 123.132L277.513 132.609C277.199 132.952 276.687 133.032 276.283 132.797L265.544 126.614C265.14 126.383 264.952 125.9 265.088 125.453L268.898 113.166C267.038 111.554 265.266 109.778 263.613 107.87L251.324 111.709C250.882 111.85 250.398 111.662 250.163 111.258L243.958 100.531C243.723 100.127 243.803 99.6145 244.146 99.2996L253.597 90.5552C252.766 88.1729 252.108 85.7483 251.638 83.3331L239.091 80.5185C238.635 80.4152 238.311 80.0111 238.311 79.5459L238.297 67.1505C238.297 66.6853 238.621 66.2812 239.072 66.1778L251.634 63.3304C252.103 60.887 252.752 58.4671 253.56 56.113L244.084 47.3826C243.742 47.0678 243.662 46.5557 243.897 46.1516L250.079 35.4101C250.314 35.006 250.793 34.8181 251.239 34.9543L263.524 38.7651C265.135 36.9043 266.911 35.1282 268.818 33.4789L264.98 21.1869C264.839 20.7405 265.027 20.2612 265.431 20.0263L276.156 13.8192C276.56 13.5842 277.072 13.6641 277.387 14.0071L286.129 23.4611C288.506 22.6341 290.93 21.9763 293.349 21.5017L296.163 8.9512C296.267 8.49542 296.671 8.1712 297.136 8.1712L309.528 8.1571C309.993 8.1571 310.397 8.48132 310.501 8.93241L313.348 21.497C315.79 21.9669 318.214 22.6153 320.563 23.4235L329.292 13.946C329.606 13.603 330.118 13.5231 330.522 13.7581L341.261 19.9417C341.665 20.1719 341.853 20.6559 341.717 21.1023L337.907 33.3896C339.768 35.0013 341.539 36.7775 343.192 38.6852L355.481 34.8463C355.928 34.71 356.407 34.8932 356.642 35.2973L362.847 46.0247C363.082 46.4288 363.003 46.941 362.66 47.2558L353.208 56.0002C354.039 58.3825 354.692 60.8071 355.167 63.2223L367.714 66.0416C368.17 66.1449 368.494 66.549 368.494 67.0142L368.508 79.4096C368.508 79.8748 368.184 80.2789 367.733 80.3823L355.171 83.2298C354.702 85.6731 354.053 88.093 353.245 90.4471L362.721 99.1775C363.064 99.4923 363.143 100.004 362.909 100.409L356.726 111.15C356.496 111.554 356.017 111.742 355.566 111.606L343.281 107.795C341.67 109.656 339.894 111.427 337.987 113.081L341.825 125.373C341.966 125.82 341.778 126.299 341.374 126.534L330.649 132.741C330.245 132.976 329.733 132.896 329.419 132.553L320.671 123.099C318.29 123.931 315.87 124.584 313.451 125.058L310.637 137.609C310.534 138.065 310.13 138.389 309.665 138.389L297.277 138.398ZM285.951 120.975C286.063 120.975 286.176 120.994 286.289 121.032C288.938 121.981 291.691 122.714 294.458 123.212C294.853 123.282 295.167 123.583 295.257 123.973L298.075 136.401L308.875 136.392L311.661 123.978C311.75 123.588 312.06 123.287 312.455 123.217C315.189 122.723 317.937 121.976 320.624 121.003C321 120.867 321.423 120.97 321.695 121.262L330.344 130.612L339.688 125.204L335.887 113.039C335.77 112.654 335.887 112.24 336.193 111.982C338.377 110.135 340.392 108.119 342.182 106C342.441 105.695 342.859 105.568 343.239 105.69L355.388 109.458L360.776 100.098L351.404 91.4667C351.108 91.1942 351.005 90.776 351.141 90.3954C352.09 87.7453 352.823 84.9965 353.321 82.2195C353.391 81.8248 353.692 81.51 354.082 81.4254L366.507 78.6061L366.498 67.8036L354.086 65.0172C353.696 64.9279 353.396 64.6178 353.325 64.2231C352.832 61.4884 352.085 58.7396 351.113 56.0519C350.976 55.676 351.08 55.2531 351.371 54.9806L360.719 46.3301L355.317 36.9795L343.159 40.7808C342.779 40.903 342.361 40.7808 342.102 40.4754C340.256 38.2905 338.241 36.2747 336.122 34.4845C335.817 34.226 335.695 33.8078 335.812 33.4272L339.58 21.2761L330.217 15.8819L321.587 25.256C321.315 25.552 320.897 25.6554 320.516 25.5192C317.867 24.57 315.119 23.837 312.342 23.3389C311.948 23.2684 311.633 22.9677 311.548 22.5777L308.73 10.1494L297.934 10.1588L295.149 22.573C295.059 22.963 294.749 23.2637 294.355 23.3342C291.621 23.8323 288.868 24.5747 286.181 25.5473C285.805 25.6836 285.382 25.5802 285.11 25.2889L276.461 15.9383L267.117 21.3466L270.918 33.5071C271.035 33.8877 270.918 34.3059 270.612 34.5643C268.428 36.411 266.413 38.422 264.623 40.5459C264.365 40.8513 263.946 40.9735 263.566 40.856L251.418 37.0876L246.02 46.4523L255.392 55.084C255.688 55.3565 255.791 55.7747 255.655 56.1553C254.706 58.8054 253.973 61.5589 253.475 64.3265C253.405 64.7212 253.104 65.036 252.714 65.1206L240.289 67.9399L240.298 78.7424L252.709 81.5288C253.099 81.6181 253.4 81.9282 253.47 82.3229C253.964 85.0576 254.711 87.8064 255.683 90.4988C255.819 90.8747 255.716 91.2976 255.425 91.5701L246.076 100.221L251.483 109.566L263.641 105.765C264.026 105.648 264.44 105.765 264.698 106.071C266.544 108.256 268.56 110.271 270.678 112.062C270.984 112.32 271.106 112.738 270.988 113.119L267.221 125.27L276.579 130.659L285.213 121.285C285.41 121.088 285.678 120.975 285.951 120.975ZM303.459 106.174C292.095 106.174 281.023 100.286 274.934 89.7611C270.533 82.1537 269.358 73.2871 271.622 64.7964C273.887 56.3057 279.322 49.2011 286.928 44.7983C302.627 35.7061 322.79 41.091 331.875 56.7943C340.961 72.4977 335.582 92.6649 319.882 101.752C314.705 104.75 309.045 106.174 303.459 106.174ZM303.351 42.3737C298.099 42.3737 292.786 43.7129 287.924 46.5228C280.778 50.6577 275.672 57.33 273.544 65.3086C271.416 73.2871 272.52 81.6134 276.658 88.7602C285.194 103.51 304.135 108.566 318.886 100.028C333.632 91.4902 338.687 72.5447 330.151 57.7905C324.425 47.9042 314.024 42.3737 303.351 42.3737ZM319.379 100.888H319.384H319.379Z" fill="black"/>
</svg>
