<svg width="47" height="47" viewBox="0 0 47 47" fill="none" xmlns="http://www.w3.org/2000/svg">
<path d="M0.621314 37.6431L9.71906 46.7409C10.0645 47.0864 10.6403 47.0864 11.0146 46.7409L19.4502 38.3053L21.5231 40.3782C21.8686 40.7237 22.4444 40.7237 22.8186 40.3782L45.6828 17.385C47.4391 15.6 47.439 12.7209 45.6828 10.9647L36.2972 1.57905C34.5122 -0.205951 31.6331 -0.20595 29.8769 1.57905L7.01277 24.5723C6.66728 24.9178 6.66728 25.4936 7.01277 25.8679L9.08567 27.9408L0.6501 36.3764C0.275825 36.7218 0.275828 37.2977 0.621314 37.6431ZM11.8495 39.2266L10.0358 41.0404L8.74019 39.7448L10.554 37.931L11.8495 39.2266ZM7.84769 35.2248L9.14326 36.5203L7.32946 38.3341L6.0339 37.0385L7.84769 35.2248Z" fill="#A8A8A8"/>
</svg>
