<svg width="390" height="390" viewBox="0 0 390 390" fill="none" xmlns="http://www.w3.org/2000/svg">
<g clip-path="url(#clip0)">
<path d="M370.419 268.859C378.803 250.154 391.211 214.34 386.224 169.793C379.82 112.643 348.146 67.5878 317.328 42.2683C215.078 -41.7504 27.8987 12.5279 3.11309 91.6692C-1.38414 106.029 -0.120657 119.875 1.43812 136.913C6.38556 191.107 32.4491 207.217 49.9781 264.758C65.929 317.125 50.2008 323.02 65.1206 346.301C97.4774 396.803 190.883 399.35 255.156 375.137C279.84 365.839 339.742 337.308 370.419 268.859Z" fill="#CADDFF"/>
<path d="M260.955 231.374L190.099 221.078C189.639 221.078 189.489 221.492 189.489 221.892V280.521C189.489 286.132 149.232 300.718 148.839 299.974L148.791 306.179C148.786 307.333 149.779 308.119 151.163 308.359L211.471 319.088C214.226 319.088 216.951 318.49 219.444 317.474L252.106 304.098C257.988 301.692 261.696 296.518 261.696 290.878V232.188C261.701 231.793 261.415 231.374 260.955 231.374Z" fill="#99B9FF"/>
<path d="M182.314 217.664V276.302C182.314 282.084 178.49 287.352 172.478 289.847L150.442 298.995C149.004 299.593 149.343 301.207 151.09 301.466L211.631 312.196C214.352 312.196 217.043 311.673 219.502 310.666L243.915 300.671C249.971 298.19 253.834 292.903 253.834 287.093V228.394C253.834 228.154 253.612 227.961 253.331 227.961L182.813 217.231C182.537 217.231 182.314 217.424 182.314 217.664Z" fill="white"/>
<path d="M208.155 312.285C208.112 312.285 208.068 312.281 208.025 312.276L150.96 302.163C149.793 301.989 148.951 301.273 148.83 300.336C148.718 299.494 149.227 298.731 150.156 298.345L172.192 289.197C177.899 286.829 181.588 281.768 181.588 276.307V264.01C181.588 263.619 181.913 263.303 182.314 263.303C182.716 263.303 183.04 263.619 183.04 264.01V276.307C183.04 282.338 179.008 287.907 172.763 290.497L150.727 299.644C150.417 299.771 150.248 299.965 150.272 300.162C150.301 300.393 150.606 300.685 151.202 300.77L208.286 310.887C208.683 310.958 208.944 311.325 208.872 311.706C208.809 312.05 208.504 312.285 208.155 312.285Z" fill="black"/>
<path d="M216.23 389.939H146.119C145.717 389.939 145.393 389.623 145.393 389.233C145.393 388.842 145.717 388.526 146.119 388.526H215.504V342.082C215.504 341.691 215.828 341.376 216.23 341.376H274.273V307.46C274.273 307.069 274.597 306.753 274.999 306.753H389.269C389.671 306.753 389.995 307.069 389.995 307.46C389.995 307.85 389.671 308.166 389.269 308.166H275.725V342.082C275.725 342.473 275.401 342.788 274.999 342.788H216.956V389.233C216.956 389.623 216.632 389.939 216.23 389.939Z" fill="black"/>
<path d="M202.617 339.083C200.593 339.083 198.947 337.482 198.947 335.514C198.947 333.547 200.593 331.946 202.617 331.946C204.64 331.946 206.286 333.547 206.286 335.514C206.286 337.482 204.64 339.083 202.617 339.083ZM202.617 333.358C201.392 333.358 200.4 334.328 200.4 335.514C200.4 336.706 201.392 337.671 202.617 337.671C203.841 337.671 204.834 336.706 204.834 335.514C204.834 334.323 203.837 333.358 202.617 333.358Z" fill="black"/>
<path d="M194.731 367.816C192.068 367.816 189.904 365.711 189.904 363.122C189.904 360.533 192.068 358.428 194.731 358.428C197.393 358.428 199.557 360.533 199.557 363.122C199.557 365.711 197.393 367.816 194.731 367.816ZM194.731 359.841C192.872 359.841 191.357 361.314 191.357 363.122C191.357 364.93 192.872 366.404 194.731 366.404C196.59 366.404 198.105 364.93 198.105 363.122C198.105 361.314 196.59 359.841 194.731 359.841Z" fill="black"/>
<path d="M371.1 278.364L363.195 285.539L76.9701 237.372C73.0199 236.708 70.1541 233.342 70.2219 229.444L73.2475 51.7031L82.7308 46.7503C84.4736 45.8464 86.4729 45.5403 88.4141 45.884L366.603 94.6917C370.776 95.4261 373.816 98.9571 373.816 103.086L373.874 272.145C373.874 274.504 372.867 276.754 371.1 278.364Z" fill="white"/>
<path d="M356.825 286.476L76.2741 237.212C72.7886 236.6 70.252 233.648 70.252 230.202V58.6615C70.252 54.2219 74.3861 50.8603 78.8785 51.6513L359.43 100.916C362.915 101.528 365.452 104.48 365.452 107.926V279.466C365.457 283.91 361.323 287.267 356.825 286.476Z" fill="#99B9FF"/>
<path d="M357.716 287.38C357.236 287.38 356.757 287.338 356.278 287.253L90.9416 240.978C90.5447 240.908 90.2832 240.54 90.3559 240.159C90.4285 239.773 90.8061 239.519 91.1982 239.589L356.534 285.864C358.466 286.203 360.436 285.695 361.942 284.475C363.447 283.251 364.309 281.457 364.309 279.551V108.011C364.309 104.903 362.029 102.248 358.882 101.692L337.989 98.0249C337.592 97.9543 337.331 97.5871 337.403 97.2057C337.476 96.8197 337.858 96.5702 338.245 96.6361L359.139 100.304C362.978 100.977 365.761 104.221 365.761 108.011V279.551C365.761 281.876 364.711 284.07 362.871 285.558C361.409 286.744 359.589 287.38 357.716 287.38Z" fill="black"/>
<path d="M373.876 271.594C373.474 271.594 373.15 271.279 373.15 270.888L373.092 103.081C373.092 99.2914 370.308 96.057 366.479 95.3838L290.66 82.079C290.263 82.0084 290.002 81.6412 290.075 81.2598C290.147 80.8785 290.525 80.6242 290.917 80.6901L366.736 93.9949C371.262 94.7906 374.544 98.6134 374.544 103.081L374.602 270.883C374.602 271.279 374.278 271.594 373.876 271.594Z" fill="black"/>
<path d="M142.158 203.018L159.063 242.249C159.707 243.737 161.517 244.462 163.139 243.874L200.545 228.634L204.398 237.574C205.042 239.062 206.852 239.787 208.474 239.199L334.096 188.013C341.919 184.751 345.627 175.942 342.365 168.372L324.928 127.897C321.612 120.2 312.554 116.593 304.731 119.856L179.109 171.041C177.579 171.667 176.834 173.428 177.439 175.005L181.292 183.946L143.886 199.185C142.26 199.764 141.519 201.525 142.158 203.018ZM277.917 150.105C280.507 148.975 283.363 148.979 285.987 150.029C288.616 151.075 290.654 153.019 291.719 155.5C292.881 158.019 292.876 160.796 291.796 163.348C290.722 165.905 288.722 167.887 286.171 168.922C283.489 170.015 280.546 169.972 278.009 168.965C275.565 167.99 273.488 166.135 272.365 163.527C270.123 158.32 272.558 152.294 277.917 150.105ZM175.444 221.93L167.404 225.206L164.998 219.618L173.039 216.341L175.444 221.93ZM168.009 204.67L170.415 210.259L162.374 213.535L159.968 207.947L168.009 204.67Z" fill="#5479F7"/>
<path d="M70.8995 164.878C70.5025 164.878 70.1782 164.568 70.1734 164.177L69.1035 58.7462C69.1035 56.4111 70.1588 54.2219 71.9936 52.7294C73.8283 51.237 76.2342 50.6202 78.5869 51.0298L166.256 66.4249C166.653 66.4956 166.915 66.8628 166.842 67.2441C166.769 67.6302 166.392 67.8797 166 67.8138L78.3303 52.4187C76.3988 52.0797 74.4285 52.5882 72.923 53.8076C71.4175 55.0316 70.5558 56.8254 70.5558 58.7321L71.6256 164.153C71.6305 164.544 71.3061 164.864 70.9043 164.864C70.9043 164.878 70.8995 164.878 70.8995 164.878Z" fill="black"/>
<path d="M194.227 65.1538C194.184 65.1538 194.14 65.1491 194.097 65.1444L88.2883 46.5761C86.5262 46.2654 84.6866 46.5431 83.1036 47.3576L72.2696 54.2831C71.9356 54.4949 71.4854 54.4055 71.2627 54.0806C71.04 53.7558 71.1369 53.3179 71.4709 53.1013L82.3339 46.1571C82.3533 46.1477 82.3727 46.1335 82.392 46.1241C84.2703 45.1496 86.4584 44.82 88.5497 45.1825L194.358 63.7461C194.755 63.8167 195.016 64.1839 194.944 64.5653C194.876 64.9137 194.571 65.1538 194.227 65.1538Z" fill="black"/>
<path d="M126.78 187.267C131.334 180.836 129.833 172.145 123.427 167.855C117.022 163.565 108.137 165.3 103.583 171.731C99.0296 178.162 100.531 186.853 106.936 191.143C113.342 195.433 122.226 193.698 126.78 187.267Z" fill="white"/>
<path d="M114.729 194.652C110.77 194.652 107.066 193.183 104.259 190.494C101.33 187.688 99.7323 183.894 99.7662 179.817C99.8339 171.479 106.786 164.549 115.272 164.365C120.393 164.266 125.167 166.653 128.013 170.782C128.236 171.107 128.149 171.545 127.815 171.761C127.481 171.978 127.03 171.893 126.808 171.568C124.295 167.924 120.127 165.773 115.611 165.773C115.509 165.773 115.407 165.773 115.306 165.778C107.599 165.942 101.281 172.246 101.223 179.826C101.194 183.517 102.637 186.949 105.28 189.487C107.884 191.982 111.346 193.305 115.044 193.235C122.751 193.07 129.068 186.766 129.126 179.186C129.131 178.8 129.456 178.484 129.853 178.484H129.857C130.259 178.489 130.584 178.805 130.579 179.195C130.511 187.533 123.559 194.463 115.073 194.647C114.962 194.652 114.846 194.652 114.729 194.652Z" fill="black"/>
<path d="M113.946 187.962L113.955 186.705C113.955 186.488 113.781 186.314 113.563 186.3C112.401 186.229 111.302 185.965 110.538 185.622C110.354 185.537 110.252 185.344 110.305 185.151L110.775 183.39C110.838 183.15 111.109 183.023 111.341 183.126C112.217 183.513 113.336 183.819 114.555 183.79C115.814 183.762 116.676 183.268 116.681 182.401C116.685 181.578 115.988 181.074 114.362 180.565C112.009 179.836 110.412 178.786 110.426 176.686C110.441 174.864 111.699 173.39 113.873 172.821C114.052 172.774 114.183 172.618 114.188 172.439L114.197 171.079C114.197 170.862 114.376 170.683 114.599 170.679L115.935 170.65C116.168 170.646 116.356 170.829 116.356 171.055L116.347 172.162C116.347 172.378 116.521 172.552 116.744 172.566C117.799 172.628 118.588 172.821 119.198 173.056C119.392 173.131 119.493 173.334 119.445 173.532L118.995 175.217C118.932 175.452 118.675 175.58 118.443 175.49C117.842 175.255 116.952 174.968 115.708 174.996C114.275 175.029 113.805 175.645 113.8 176.248C113.795 176.964 114.56 177.402 116.429 178.056C119.043 178.908 120.094 180.08 120.079 182.03C120.064 183.875 118.782 185.49 116.443 186.055C116.259 186.097 116.124 186.257 116.119 186.441L116.109 187.947C116.109 188.164 115.93 188.343 115.708 188.348L114.372 188.376C114.134 188.371 113.941 188.188 113.946 187.962Z" fill="#5479F7"/>
<path d="M181.699 48.3662C191.025 42.1776 193.456 29.85 187.129 20.8317C180.802 11.8135 168.112 9.51952 158.787 15.7081C149.461 21.8967 147.03 34.2242 153.357 43.2425C159.684 52.2608 172.373 54.5548 181.699 48.3662Z" fill="white"/>
<path d="M170.153 52.5458C168.938 52.5458 167.708 52.4422 166.469 52.2304C160.916 51.2794 156.085 48.2804 152.876 43.789C149.666 39.2975 148.451 33.8551 149.463 28.4598C151.549 17.3254 162.572 9.86793 174.035 11.8312C179.588 12.7822 184.419 15.7812 187.629 20.2726C190.838 24.764 192.053 30.2064 191.042 35.6018C189.178 45.5403 180.203 52.5458 170.153 52.5458ZM170.351 12.9375C160.984 12.9375 152.629 19.4675 150.891 28.7187C149.947 33.7421 151.075 38.8079 154.067 42.9839C157.058 47.1646 161.551 49.9517 166.721 50.8415C177.4 52.6729 187.667 45.7239 189.609 35.3522C190.553 30.3288 189.425 25.263 186.433 21.0871C183.441 16.9064 178.949 14.1192 173.779 13.2294C172.627 13.0317 171.479 12.9375 170.351 12.9375Z" fill="black"/>
<path d="M182.671 24.4062L175.584 26.9391C175.216 27.0709 175.12 27.5323 175.405 27.7912L176.243 28.5492C176.456 28.7422 176.465 29.0624 176.267 29.2695L172.457 33.2525C172.259 33.4596 171.929 33.4691 171.716 33.2807L166.846 28.8741C166.633 28.681 166.304 28.6952 166.106 28.9023L157.615 37.7298C157.416 37.9369 157.431 38.2571 157.644 38.4501L159.425 40.0602C159.638 40.2533 159.968 40.2391 160.166 40.032L166.285 33.6856C166.483 33.4785 166.813 33.4691 167.026 33.6574L171.896 38.064C172.109 38.2571 172.438 38.2429 172.636 38.0358L178.813 31.5812C179.012 31.374 179.346 31.3646 179.554 31.5576L180.454 32.3768C180.74 32.6357 181.214 32.5086 181.316 32.1414L183.354 25.0229C183.47 24.618 183.073 24.2602 182.671 24.4062Z" fill="#5479F7"/>
<path d="M112.683 77.0179L108.161 69.4192L98.7505 72.277C97.3805 70.6998 95.8944 69.2545 94.3066 67.9503L97.2208 58.8027L89.3979 54.4196L82.7174 61.4722C80.7423 60.7848 78.7139 60.2575 76.6468 59.8997L74.4684 50.5449L65.4401 50.5543L63.2859 59.8997C61.243 60.2622 59.2098 60.7942 57.2153 61.5004L50.5203 54.462L42.7071 58.8592L45.6455 68.0115C44.0238 69.3439 42.5376 70.7893 41.1967 72.3335L31.7908 69.4993L27.2839 77.1074L34.5356 83.6044C33.8288 85.5252 33.2866 87.4979 32.9139 89.5082L23.2949 91.6268L23.3046 100.407L32.9187 102.502C33.2866 104.489 33.8385 106.466 34.5646 108.406L27.3274 114.917L31.8488 122.516L41.2596 119.658C42.6296 121.235 44.1158 122.685 45.7036 123.985L42.7894 133.132L50.6123 137.516L57.2928 130.463C59.2679 131.15 61.2962 131.678 63.3633 132.04L65.5417 141.395L74.5701 141.385L76.7243 132.04C78.7672 131.682 80.8004 131.146 82.7948 130.439L89.4898 137.478L97.3031 133.081L94.3646 123.928C95.9864 122.596 97.4725 121.151 98.8135 119.606L108.219 122.441L112.726 114.832L105.475 108.335C106.181 106.415 106.724 104.442 107.096 102.432L116.715 100.313L116.706 91.5326L107.096 89.4376C106.728 87.4508 106.177 85.4734 105.45 83.5338L112.683 77.0179ZM81.6427 115.525C70.5376 121.777 56.3198 118.09 49.891 107.286C43.4622 96.4854 47.2527 82.6581 58.3626 76.4059C69.4677 70.1537 83.6855 73.84 90.1143 84.6448C96.5431 95.4497 92.7526 109.272 81.6427 115.525Z" fill="#5479F7"/>
<path d="M61.2533 140.976C60.9144 140.976 60.6191 140.745 60.5465 140.425L58.4697 131.527C56.6931 131.193 54.9262 130.736 53.2125 130.162L46.8563 136.875C46.6288 137.12 46.2561 137.172 45.9608 137.007L38.1378 132.624C37.8425 132.459 37.707 132.12 37.8086 131.805L40.5825 123.1C39.227 121.96 37.9345 120.699 36.7339 119.352L27.7782 122.073C27.4539 122.172 27.1053 122.04 26.9311 121.753L22.4096 114.155C22.2402 113.867 22.2934 113.505 22.5452 113.284L29.429 107.088C28.8239 105.402 28.3446 103.684 28.0009 101.975L18.8612 99.9788C18.532 99.9081 18.2948 99.6209 18.2948 99.2914L18.2852 90.511C18.2852 90.1814 18.5175 89.8943 18.8515 89.8236L28.0009 87.8039C28.3446 86.0761 28.8142 84.3577 29.4048 82.691L22.5016 76.5095C22.2499 76.2835 22.1966 75.9257 22.3661 75.6385L26.873 68.0304C27.0424 67.7432 27.3909 67.6114 27.7153 67.7102L36.6662 70.4079C37.8425 69.0897 39.135 67.8326 40.5196 66.6651L37.7215 57.9553C37.6198 57.6399 37.7554 57.3009 38.0507 57.1314L45.8639 52.7341C46.1592 52.5694 46.532 52.6259 46.7595 52.866L53.1302 59.5607C54.8632 58.9722 56.6302 58.5061 58.3874 58.1719L60.44 49.2832C60.5126 48.963 60.8079 48.7323 61.1468 48.7323L70.1751 48.7229C70.514 48.7229 70.8093 48.9536 70.8819 49.2738L72.9586 58.1719C74.7401 58.5061 76.5022 58.9628 78.2159 59.5372L84.572 52.8236C84.7995 52.5835 85.1723 52.527 85.4676 52.6918L93.2906 57.0749C93.5858 57.2397 93.7214 57.5787 93.6197 57.8941L90.8459 66.5992C92.2013 67.7385 93.4939 69.0002 94.6944 70.3467L103.65 67.6255C103.974 67.5266 104.323 67.6584 104.497 67.9456L109.019 75.5443C109.188 75.8315 109.135 76.194 108.883 76.4153L101.999 82.611C102.604 84.2965 103.084 86.0149 103.427 87.7239L112.567 89.7201C112.896 89.7907 113.134 90.0779 113.134 90.4074L113.143 99.1878C113.143 99.5174 112.911 99.8046 112.577 99.8752L103.427 101.895C103.084 103.627 102.614 105.341 102.024 107.008L108.927 113.189C109.178 113.415 109.232 113.773 109.062 114.06L104.555 121.668C104.386 121.956 104.037 122.087 103.713 121.989L94.7622 119.291C93.5907 120.609 92.2933 121.866 90.9088 123.034L93.7069 131.744C93.8085 132.059 93.673 132.398 93.3777 132.567L85.5644 136.965C85.2691 137.129 84.8964 137.073 84.6688 136.833L78.2982 130.138C76.5651 130.727 74.7982 131.193 73.0409 131.527L70.9884 140.416C70.9158 140.736 70.6205 140.966 70.2816 140.966L61.2533 140.976ZM53.0043 128.636C53.0866 128.636 53.1689 128.65 53.2512 128.679C55.1827 129.352 57.1869 129.87 59.2007 130.223C59.4863 130.275 59.7187 130.486 59.7816 130.76L61.8342 139.563L69.7007 139.554L71.729 130.76C71.792 130.482 72.0195 130.27 72.3099 130.218C74.2996 129.87 76.3037 129.338 78.2643 128.65C78.5402 128.556 78.8452 128.627 79.0437 128.834L85.3466 135.458L92.1529 131.626L89.3839 123.015C89.2968 122.742 89.3839 122.45 89.6066 122.266C91.1993 120.958 92.6661 119.531 93.9683 118.029C94.1571 117.813 94.4621 117.723 94.738 117.808L103.587 120.477L107.513 113.848L100.687 107.733C100.474 107.54 100.397 107.243 100.494 106.975C101.186 105.096 101.719 103.152 102.082 101.184C102.135 100.906 102.353 100.685 102.634 100.619L111.686 98.6229L111.676 90.9724L102.634 88.9997C102.348 88.9385 102.13 88.7173 102.077 88.4348C101.719 86.4998 101.172 84.5507 100.465 82.644C100.363 82.3756 100.441 82.079 100.654 81.886L107.47 75.7656L103.529 69.1462L94.6751 71.8391C94.3943 71.9239 94.0941 71.8391 93.9053 71.6226C92.5596 70.0736 91.0928 68.6471 89.5485 67.3807C89.3258 67.1971 89.2387 66.9052 89.321 66.6321L92.0658 58.0259L85.2498 54.2077L78.9614 60.846C78.7629 61.0531 78.4579 61.1285 78.182 61.0343C76.2505 60.3611 74.2512 59.8432 72.2276 59.4901C71.942 59.4383 71.7145 59.2264 71.6467 58.9534L69.5942 50.1494L61.7277 50.1589L59.6993 58.9534C59.6364 59.2312 59.4089 59.443 59.1184 59.4948C57.124 59.8479 55.1246 60.3752 53.1641 61.0626C52.8881 61.1614 52.5832 61.0861 52.3847 60.8789L46.0818 54.2548L39.2754 58.0871L42.0444 66.7027C42.1316 66.9758 42.0444 67.2677 41.8218 67.4513C40.2291 68.7601 38.7623 70.1819 37.4601 71.6885C37.2713 71.905 36.9663 71.9945 36.6904 71.9098L27.8412 69.2403L23.9152 75.8692L30.7409 81.9848C30.9539 82.1779 31.0313 82.4745 30.9345 82.7428C30.2423 84.6213 29.7098 86.5704 29.3467 88.5289C29.2934 88.8067 29.0756 89.0327 28.7948 89.0939L19.7423 91.0901L19.752 98.7406L28.7948 100.713C29.0804 100.774 29.2983 100.996 29.3515 101.278C29.7098 103.213 30.2568 105.162 30.9636 107.069C31.0652 107.337 30.9878 107.634 30.7748 107.827L23.9636 113.957L27.9041 120.576L36.7582 117.883C37.0389 117.798 37.3391 117.883 37.5279 118.1C38.8736 119.649 40.3404 121.075 41.8847 122.342C42.1074 122.525 42.1945 122.817 42.1122 123.09L39.3674 131.696L46.1834 135.515L52.4718 128.876C52.6074 128.716 52.801 128.636 53.0043 128.636ZM65.7553 118.152C57.4773 118.152 49.4123 113.98 44.9732 106.523C41.7685 101.137 40.9117 94.8565 42.5576 88.8397C44.2083 82.8229 48.1682 77.7947 53.7062 74.678C65.1405 68.2375 79.8328 72.051 86.4503 83.176C93.0679 94.2962 89.1515 108.585 77.7124 115.021C73.951 117.144 69.8265 118.152 65.7553 118.152ZM65.6779 72.9643C61.8535 72.9643 57.9808 73.9106 54.4372 75.9068C49.2332 78.8352 45.5154 83.562 43.9615 89.2116C42.4124 94.8612 43.216 100.76 46.227 105.821C52.4476 116.268 66.2443 119.851 76.9863 113.801C87.7283 107.756 91.4123 94.3339 85.1917 83.8869C81.0285 76.8814 73.4524 72.9643 65.6779 72.9643Z" fill="black"/>
<path d="M354.26 75.3466C354.003 75.3466 353.756 75.2148 353.626 74.9794C331.638 36.1856 288.878 20.4421 288.447 20.2914C288.07 20.1549 287.881 19.75 288.016 19.3828C288.157 19.0156 288.573 18.8319 288.951 18.9638C289.057 19.0014 299.983 22.9797 313.494 31.7412C325.965 39.8296 343.271 53.7793 354.894 74.2967C355.088 74.6404 354.962 75.0688 354.608 75.2571C354.497 75.3183 354.376 75.3466 354.26 75.3466Z" fill="black"/>
<path d="M364.324 70.8693C363.981 70.8693 363.676 70.6292 363.613 70.2902C358.53 43.2523 327.819 23.0268 327.509 22.8243C327.175 22.6077 327.088 22.1699 327.311 21.8451C327.533 21.5202 327.984 21.4355 328.318 21.652C328.632 21.8545 359.847 42.4048 365.041 70.036C365.114 70.4173 364.852 70.7892 364.455 70.8599C364.412 70.8646 364.368 70.8693 364.324 70.8693Z" fill="black"/>
<path d="M121.57 286.848C121.386 286.848 121.198 286.777 121.057 286.641L119.392 285.021C119.106 284.744 119.106 284.296 119.392 284.023C119.678 283.745 120.137 283.745 120.418 284.023L122.084 285.643C122.369 285.921 122.369 286.368 122.084 286.641C121.943 286.782 121.754 286.848 121.57 286.848Z" fill="black"/>
<path d="M127.859 292.968C127.675 292.968 127.487 292.898 127.346 292.761L125.681 291.142C125.395 290.864 125.395 290.417 125.681 290.144C125.967 289.866 126.427 289.866 126.707 290.144L128.373 291.763C128.658 292.041 128.658 292.488 128.373 292.761C128.232 292.898 128.048 292.968 127.859 292.968Z" fill="black"/>
<path d="M119.905 292.968C119.721 292.968 119.532 292.898 119.392 292.761C119.106 292.484 119.106 292.036 119.392 291.763L121.057 290.144C121.343 289.866 121.803 289.866 122.084 290.144C122.369 290.421 122.369 290.869 122.084 291.142L120.418 292.761C120.278 292.898 120.089 292.968 119.905 292.968Z" fill="black"/>
<path d="M126.194 286.848C126.01 286.848 125.821 286.777 125.681 286.641C125.395 286.363 125.395 285.916 125.681 285.643L127.346 284.023C127.632 283.745 128.092 283.745 128.373 284.023C128.658 284.301 128.658 284.748 128.373 285.021L126.707 286.641C126.567 286.782 126.383 286.848 126.194 286.848Z" fill="black"/>
<path d="M11.0618 60.3234C10.8827 60.3234 10.7036 60.2575 10.5632 60.1304C10.2727 59.862 10.2582 59.4148 10.5341 59.1323C30.6143 38.5396 55.5742 22.297 82.7221 12.156C83.0949 12.0148 83.516 12.1984 83.6612 12.5609C83.8065 12.9234 83.6177 13.333 83.2449 13.4743C56.2955 23.5399 31.5196 39.6648 11.5894 60.1021C11.4442 60.2481 11.2506 60.3234 11.0618 60.3234Z" fill="black"/>
<path d="M20.546 35.743C20.3233 35.743 20.1007 35.6441 19.9603 35.4558C19.7231 35.1404 19.7957 34.6978 20.1152 34.4671C29.7002 27.6406 39.9678 21.6285 50.6421 16.6003C51.0052 16.4309 51.436 16.5768 51.6103 16.9299C51.7846 17.283 51.6345 17.702 51.2714 17.8715C40.6746 22.8667 30.4796 28.8317 20.9672 35.6065C20.8462 35.7006 20.6961 35.743 20.546 35.743Z" fill="black"/>
<path d="M137.061 40.6158C136.436 40.6158 135.812 40.5028 135.217 40.2768C133.909 39.7825 132.883 38.8173 132.322 37.5509C131.179 34.9709 132.365 31.9437 134.97 30.8043C136.223 30.2535 137.622 30.2206 138.9 30.7055C140.208 31.1998 141.234 32.165 141.795 33.4314C142.938 36.0114 141.752 39.0386 139.147 40.1779C138.479 40.4698 137.773 40.6158 137.061 40.6158ZM137.061 31.7742C136.553 31.7742 136.044 31.8778 135.57 32.0896C133.687 32.9135 132.83 35.1122 133.663 36.9906C134.069 37.9087 134.81 38.6055 135.749 38.9633C136.664 39.3117 137.661 39.2834 138.562 38.8927C140.445 38.0688 141.302 35.8701 140.469 33.9916C140.062 33.0736 139.322 32.3768 138.382 32.019C137.952 31.8589 137.506 31.7742 137.061 31.7742Z" fill="black"/>
<path d="M196.252 272.093C196.247 272.093 196.238 272.093 196.233 272.093C194.297 272.046 192.336 271.947 190.409 271.801C190.007 271.773 189.712 271.429 189.741 271.043C189.77 270.653 190.129 270.361 190.521 270.394C192.423 270.54 194.36 270.638 196.272 270.686C196.673 270.695 196.988 271.02 196.978 271.411C196.969 271.787 196.644 272.093 196.252 272.093ZM202.052 272.084C201.66 272.084 201.335 271.783 201.326 271.396C201.316 271.006 201.631 270.681 202.032 270.671C203.94 270.62 205.881 270.516 207.793 270.361C208.185 270.328 208.543 270.615 208.577 271.006C208.611 271.396 208.311 271.735 207.914 271.768C205.978 271.924 204.012 272.027 202.076 272.084C202.066 272.084 202.057 272.084 202.052 272.084ZM184.707 271.208C184.673 271.208 184.644 271.208 184.61 271.203C182.683 270.954 180.742 270.653 178.835 270.309C178.443 270.238 178.181 269.866 178.254 269.485C178.326 269.104 178.709 268.849 179.101 268.92C180.979 269.259 182.896 269.556 184.799 269.8C185.196 269.852 185.476 270.205 185.423 270.591C185.375 270.949 185.065 271.208 184.707 271.208ZM213.622 271.152C213.263 271.152 212.954 270.897 212.905 270.54C212.852 270.154 213.128 269.796 213.525 269.744C215.427 269.49 217.339 269.184 219.213 268.826C219.605 268.751 219.987 269 220.065 269.386C220.142 269.767 219.886 270.139 219.489 270.215C217.586 270.573 215.65 270.888 213.718 271.142C213.689 271.152 213.655 271.152 213.622 271.152ZM173.287 269.141C173.229 269.141 173.171 269.137 173.117 269.122C171.23 268.68 169.332 268.181 167.473 267.644C167.091 267.531 166.868 267.14 166.984 266.764C167.1 266.392 167.507 266.175 167.889 266.288C169.724 266.82 171.597 267.31 173.461 267.748C173.848 267.837 174.091 268.219 173.999 268.6C173.916 268.925 173.616 269.141 173.287 269.141ZM225.017 269C224.693 269 224.397 268.788 224.315 268.468C224.218 268.091 224.451 267.705 224.843 267.611C226.702 267.155 228.57 266.641 230.391 266.086C230.773 265.968 231.18 266.175 231.301 266.547C231.422 266.919 231.209 267.315 230.826 267.432C228.977 267.997 227.084 268.515 225.196 268.977C225.138 268.995 225.075 269 225.017 269ZM162.162 265.916C162.08 265.916 161.998 265.902 161.92 265.874C160.095 265.243 158.261 264.551 156.47 263.826C156.102 263.675 155.923 263.261 156.077 262.903C156.232 262.545 156.653 262.371 157.026 262.522C158.798 263.238 160.609 263.92 162.409 264.542C162.787 264.673 162.985 265.078 162.85 265.446C162.739 265.737 162.463 265.916 162.162 265.916ZM236.098 265.624C235.803 265.624 235.527 265.45 235.42 265.168C235.28 264.805 235.469 264.396 235.846 264.259C237.642 263.6 239.438 262.884 241.181 262.131C241.549 261.971 241.975 262.131 242.139 262.489C242.304 262.847 242.139 263.261 241.772 263.421C240 264.184 238.18 264.914 236.359 265.582C236.272 265.61 236.185 265.624 236.098 265.624ZM151.445 261.576C151.338 261.576 151.232 261.552 151.13 261.505C149.382 260.69 147.63 259.82 145.926 258.916C145.573 258.727 145.442 258.299 145.636 257.955C145.829 257.611 146.27 257.484 146.623 257.673C148.303 258.562 150.031 259.424 151.759 260.229C152.122 260.399 152.272 260.818 152.098 261.171C151.977 261.425 151.716 261.576 151.445 261.576ZM246.709 261.039C246.448 261.039 246.191 260.898 246.065 260.658C245.882 260.309 246.022 259.885 246.375 259.707C248.079 258.85 249.778 257.936 251.415 256.985C251.758 256.788 252.204 256.896 252.412 257.23C252.615 257.564 252.504 257.998 252.16 258.2C250.495 259.16 248.772 260.088 247.043 260.959C246.937 261.015 246.821 261.039 246.709 261.039ZM141.25 256.171C141.119 256.171 140.988 256.138 140.872 256.067C139.221 255.079 137.571 254.038 135.973 252.969C135.644 252.748 135.557 252.31 135.784 251.985C136.012 251.665 136.467 251.585 136.796 251.802C138.374 252.856 140.001 253.887 141.632 254.862C141.976 255.064 142.082 255.502 141.869 255.832C141.734 256.053 141.497 256.171 141.25 256.171ZM256.691 255.272C256.459 255.272 256.231 255.163 256.091 254.961C255.868 254.636 255.951 254.198 256.285 253.982C257.868 252.936 259.436 251.83 260.956 250.695C261.271 250.455 261.731 250.517 261.973 250.823C262.22 251.133 262.157 251.576 261.842 251.811C260.303 252.965 258.71 254.09 257.103 255.149C256.972 255.229 256.832 255.272 256.691 255.272ZM131.684 249.777C131.529 249.777 131.374 249.73 131.243 249.631C129.709 248.487 128.179 247.287 126.698 246.063C126.393 245.809 126.354 245.366 126.615 245.069C126.877 244.773 127.332 244.735 127.637 244.989C129.099 246.199 130.609 247.381 132.129 248.511C132.449 248.746 132.507 249.194 132.265 249.5C132.12 249.679 131.907 249.777 131.684 249.777ZM265.884 248.37C265.681 248.37 265.482 248.29 265.337 248.13C265.076 247.838 265.105 247.39 265.405 247.131C266.843 245.907 268.266 244.627 269.626 243.313C269.912 243.04 270.372 243.04 270.653 243.318C270.933 243.596 270.933 244.043 270.648 244.316C269.263 245.648 267.821 246.953 266.364 248.191C266.223 248.313 266.054 248.37 265.884 248.37ZM122.835 242.471C122.656 242.471 122.477 242.409 122.336 242.278C120.927 240.992 119.528 239.651 118.178 238.29C117.897 238.007 117.907 237.565 118.197 237.292C118.488 237.023 118.947 237.028 119.223 237.311C120.559 238.657 121.944 239.98 123.333 241.251C123.624 241.52 123.638 241.967 123.367 242.249C123.222 242.395 123.028 242.471 122.835 242.471ZM274.138 240.427C273.964 240.427 273.794 240.366 273.654 240.248C273.354 239.989 273.33 239.542 273.596 239.25C274.869 237.861 276.113 236.421 277.299 234.957C277.546 234.651 278.006 234.594 278.321 234.839C278.635 235.079 278.689 235.526 278.442 235.832C277.241 237.315 275.973 238.784 274.68 240.192C274.535 240.347 274.337 240.427 274.138 240.427ZM114.77 234.354C114.566 234.354 114.368 234.274 114.223 234.114C112.95 232.702 111.691 231.237 110.476 229.759C110.224 229.453 110.277 229.01 110.592 228.766C110.907 228.521 111.362 228.573 111.613 228.879C112.814 230.343 114.058 231.788 115.317 233.186C115.583 233.478 115.549 233.926 115.249 234.185C115.113 234.298 114.939 234.354 114.77 234.354ZM281.322 231.562C281.182 231.562 281.036 231.52 280.911 231.435C280.581 231.214 280.499 230.771 280.727 230.451C281.816 228.926 282.866 227.344 283.859 225.748C284.067 225.414 284.512 225.31 284.856 225.508C285.2 225.71 285.306 226.143 285.103 226.478C284.096 228.097 283.026 229.703 281.922 231.251C281.777 231.454 281.55 231.562 281.322 231.562ZM107.537 225.527C107.315 225.527 107.092 225.428 106.947 225.235C105.819 223.719 104.701 222.146 103.631 220.564C103.408 220.239 103.505 219.802 103.839 219.585C104.173 219.373 104.623 219.463 104.846 219.788C105.906 221.351 107.01 222.909 108.123 224.406C108.36 224.721 108.288 225.164 107.959 225.39C107.833 225.479 107.683 225.527 107.537 225.527ZM101.157 216.096C100.91 216.096 100.668 215.974 100.533 215.753C99.545 214.147 98.5768 212.485 97.6474 210.819C97.4586 210.475 97.5893 210.047 97.9427 209.863C98.2961 209.679 98.7366 209.807 98.9254 210.15C99.8451 211.803 100.804 213.446 101.777 215.032C101.98 215.367 101.869 215.8 101.525 216.002C101.414 216.064 101.283 216.096 101.157 216.096ZM95.6335 206.167C95.3673 206.167 95.1059 206.021 94.98 205.772C94.1377 204.096 93.3099 202.363 92.5208 200.626C92.3611 200.268 92.5257 199.854 92.8936 199.694C93.2615 199.538 93.6875 199.699 93.8521 200.056C94.6315 201.775 95.4496 203.488 96.2871 205.15C96.4613 205.499 96.3161 205.923 95.953 206.097C95.8514 206.144 95.74 206.167 95.6335 206.167ZM90.9475 195.833C90.6571 195.833 90.386 195.664 90.2746 195.386C89.5678 193.649 88.8804 191.86 88.2317 190.075C88.0962 189.708 88.2947 189.303 88.6723 189.176C89.0499 189.044 89.4662 189.237 89.5969 189.605C90.2407 191.375 90.9233 193.145 91.6252 194.868C91.7705 195.231 91.5914 195.64 91.2186 195.786C91.1315 195.819 91.0395 195.833 90.9475 195.833ZM87.0748 185.193C86.7649 185.193 86.4793 185 86.3825 184.699C85.8016 182.91 85.2497 181.078 84.7318 179.261C84.6253 178.885 84.8528 178.499 85.2352 178.39C85.6177 178.287 86.0194 178.508 86.1308 178.88C86.6439 180.683 87.1958 182.496 87.767 184.27C87.888 184.642 87.675 185.038 87.2926 185.156C87.22 185.179 87.1474 185.193 87.0748 185.193ZM83.9717 174.313C83.6425 174.313 83.3472 174.097 83.265 173.772C82.8099 171.954 82.3791 170.095 81.9821 168.24C81.8998 167.858 82.1515 167.482 82.5437 167.406C82.9309 167.326 83.323 167.571 83.4005 167.953C83.7975 169.789 84.2235 171.634 84.6737 173.437C84.7705 173.814 84.5284 174.2 84.1363 174.29C84.0879 174.304 84.0298 174.313 83.9717 174.313ZM81.59 163.259C81.2463 163.259 80.9365 163.019 80.8784 162.675C80.5395 160.834 80.2249 158.951 79.9392 157.082C79.8811 156.696 80.1522 156.338 80.5492 156.282C80.9413 156.22 81.3141 156.489 81.3721 156.875C81.6578 158.73 81.9676 160.599 82.3016 162.425C82.3742 162.812 82.108 163.174 81.7159 163.245C81.6771 163.254 81.6336 163.259 81.59 163.259ZM79.886 152.087C79.5229 152.087 79.2083 151.823 79.1647 151.465C78.9372 149.62 78.729 147.722 78.5499 145.83C78.5112 145.439 78.8065 145.095 79.2034 145.062C79.6052 145.025 79.9586 145.312 79.9925 145.698C80.1716 147.576 80.3798 149.46 80.6024 151.296C80.6509 151.682 80.3652 152.035 79.9683 152.082C79.9441 152.087 79.915 152.087 79.886 152.087ZM78.8113 140.844C78.4337 140.844 78.1142 140.557 78.0852 140.185C77.9593 138.33 77.848 136.428 77.7657 134.531C77.7463 134.14 78.061 133.81 78.4579 133.796C78.8597 133.782 79.1986 134.083 79.2131 134.469C79.2954 136.353 79.4019 138.245 79.5326 140.091C79.5568 140.482 79.2567 140.816 78.8549 140.844C78.8452 140.844 78.8258 140.844 78.8113 140.844ZM78.3127 129.559C77.9206 129.559 77.5962 129.253 77.5865 128.867C77.5623 127.633 77.5478 126.391 77.543 125.138C77.543 124.747 77.8625 124.432 78.2643 124.427C78.2643 124.427 78.2643 124.427 78.2691 124.427C78.6709 124.427 78.9952 124.743 78.9952 125.129C79.0001 126.372 79.0146 127.61 79.0388 128.839C79.0485 129.229 78.729 129.55 78.3272 129.559C78.3224 129.559 78.3175 129.559 78.3127 129.559Z" fill="white"/>
<path d="M97.8697 43.2193C97.7196 43.2193 97.5695 43.1769 97.4388 43.0828C97.1145 42.8521 97.0467 42.4095 97.2839 42.0941C98.4216 40.5828 99.656 39.0857 100.953 37.6403C101.215 37.3484 101.675 37.3155 101.98 37.5744C102.28 37.8333 102.314 38.2759 102.047 38.5725C100.779 39.9849 99.5689 41.4538 98.4554 42.9321C98.3151 43.1204 98.0924 43.2193 97.8697 43.2193ZM105.484 34.7025C105.296 34.7025 105.107 34.6319 104.966 34.4907C104.686 34.2129 104.691 33.7656 104.976 33.4926C106.346 32.1838 107.803 30.8891 109.304 29.6509C109.609 29.3966 110.069 29.4343 110.325 29.7309C110.587 30.0275 110.548 30.4748 110.243 30.7243C108.771 31.9437 107.339 33.2101 105.993 34.4954C105.852 34.6366 105.668 34.7025 105.484 34.7025ZM114.324 27.3863C114.101 27.3863 113.883 27.2875 113.738 27.0991C113.501 26.7837 113.569 26.3412 113.888 26.1105C115.433 24.9994 117.049 23.9071 118.7 22.8667C119.034 22.6548 119.484 22.749 119.702 23.0738C119.92 23.3987 119.823 23.8365 119.489 24.0484C117.868 25.0747 116.275 26.1481 114.755 27.2451C114.629 27.344 114.474 27.3863 114.324 27.3863ZM124.064 21.233C123.812 21.233 123.565 21.1059 123.435 20.8752C123.236 20.5362 123.357 20.1031 123.706 19.9148C125.376 18.992 127.114 18.0928 128.866 17.2406C129.224 17.0664 129.66 17.2077 129.839 17.5561C130.018 17.9045 129.873 18.3282 129.515 18.5024C127.782 19.3404 126.068 20.2302 124.422 21.1388C124.311 21.2048 124.185 21.233 124.064 21.233ZM134.457 16.1955C134.177 16.1955 133.91 16.0354 133.789 15.7717C133.63 15.4139 133.799 14.9996 134.167 14.8443C135.944 14.0957 137.764 13.3801 139.589 12.7163C139.966 12.5797 140.383 12.7633 140.523 13.1306C140.664 13.4978 140.475 13.9027 140.097 14.0392C138.296 14.6936 136.495 15.4045 134.743 16.139C134.651 16.1766 134.554 16.1955 134.457 16.1955ZM219.556 12.5279C219.474 12.5279 219.392 12.5138 219.314 12.4856C217.518 11.8641 215.674 11.285 213.825 10.7624C213.437 10.6542 213.219 10.2634 213.331 9.88675C213.442 9.51012 213.849 9.29826 214.231 9.40654C216.105 9.93854 217.978 10.527 219.798 11.1532C220.176 11.285 220.374 11.6852 220.239 12.0571C220.132 12.349 219.856 12.5279 219.556 12.5279ZM145.33 12.2266C145.02 12.2266 144.74 12.0336 144.638 11.737C144.517 11.3651 144.725 10.9696 145.107 10.8472C146.952 10.2728 148.84 9.7361 150.713 9.24647C151.101 9.1476 151.498 9.36888 151.604 9.74551C151.706 10.1222 151.478 10.5082 151.091 10.6118C149.237 11.092 147.378 11.624 145.553 12.1937C145.48 12.2172 145.403 12.2266 145.33 12.2266ZM208.408 9.35946C208.354 9.35946 208.296 9.35475 208.243 9.34063C206.389 8.92162 204.486 8.54498 202.589 8.22013C202.192 8.15422 201.93 7.78699 201.998 7.40094C202.066 7.01488 202.444 6.76065 202.84 6.82656C204.762 7.15612 206.689 7.53747 208.572 7.96119C208.964 8.05064 209.206 8.42728 209.114 8.80863C209.037 9.14289 208.742 9.35946 208.408 9.35946ZM156.547 9.30767C156.213 9.30767 155.912 9.08169 155.84 8.75213C155.753 8.37078 156.004 7.99414 156.397 7.91411C158.294 7.51393 160.226 7.15142 162.133 6.83598C162.53 6.77007 162.903 7.02901 162.971 7.41506C163.038 7.80112 162.772 8.16363 162.375 8.22954C160.487 8.54027 158.58 8.89808 156.706 9.29355C156.653 9.30296 156.6 9.30767 156.547 9.30767ZM168 7.42448C167.637 7.42448 167.327 7.16083 167.279 6.80302C167.231 6.41697 167.516 6.06387 167.913 6.01679C169.84 5.79081 171.796 5.60249 173.727 5.46596C174.119 5.433 174.473 5.7296 174.506 6.12037C174.536 6.51113 174.235 6.8454 173.834 6.87835C171.926 7.01488 169.99 7.1985 168.087 7.42448C168.058 7.42448 168.029 7.42448 168 7.42448ZM196.973 7.39623C196.944 7.39623 196.915 7.39623 196.886 7.39152C194.993 7.16554 193.057 6.98193 191.14 6.8454C190.738 6.81715 190.438 6.47817 190.467 6.09212C190.496 5.70136 190.849 5.40475 191.242 5.43771C193.183 5.57424 195.143 5.75785 197.06 5.98854C197.457 6.03562 197.743 6.38872 197.695 6.77478C197.651 7.13729 197.336 7.39623 196.973 7.39623ZM179.58 6.59587C179.188 6.59587 178.863 6.28985 178.854 5.90851C178.844 5.51774 179.159 5.19289 179.56 5.18348C181.502 5.13169 183.462 5.13169 185.403 5.17406C185.805 5.18348 186.125 5.50362 186.115 5.89438C186.105 6.28044 185.781 6.58646 185.389 6.58646C185.384 6.58646 185.379 6.58646 185.374 6.58646C183.453 6.54409 181.521 6.54879 179.599 6.59587C179.594 6.59587 179.589 6.59587 179.58 6.59587Z" fill="white"/>
<path d="M268.574 186.069L218.577 208.225L209.225 188.197L255.247 167.873L268.574 186.069Z" fill="white"/>
<path d="M251.322 172.326C258.656 188.823 278.291 196.436 295.253 189.308C312.216 182.175 320.044 163.08 312.714 146.583L259.9 27.1133L198.541 52.7718L251.322 172.326ZM276.795 147.501C283.596 144.658 291.424 147.671 294.348 154.285C297.272 160.9 294.174 168.513 287.372 171.356C280.571 174.2 272.743 171.187 269.819 164.572C266.856 158.042 269.993 150.345 276.795 147.501Z" fill="white"/>
<path d="M261.382 23.5917L315.271 145.543C323.191 163.405 314.656 184.176 296.29 191.883C287.406 195.65 277.536 195.73 268.532 192.246C259.528 188.762 252.513 182.062 248.64 173.423L194.756 51.4677L261.382 23.5917ZM270.415 187.025C270.507 187.062 270.594 187.095 270.686 187.133C278.243 190.038 286.622 189.981 294.097 186.789C301.576 183.597 307.366 177.877 310.391 170.443C313.378 163.094 313.32 154.944 310.038 147.675L258.341 30.8138L202.129 54.3019L253.825 171.163C257.107 178.437 262.984 184.068 270.415 187.025ZM288.142 144.921C292.126 146.508 295.21 149.483 296.904 153.245C300.419 161.225 296.614 170.514 288.409 173.932C280.203 177.35 270.652 173.649 267.137 165.669C263.623 157.689 267.428 148.4 275.633 144.982C279.627 143.283 283.974 143.264 288.084 144.799C288.05 144.884 288.142 144.921 288.142 144.921ZM278.015 168.97C280.552 169.982 283.495 170.019 286.177 168.927C288.767 167.797 290.766 165.815 291.802 163.353C292.877 160.796 292.794 157.986 291.725 155.505C290.563 152.986 288.525 151.042 285.993 150.034C283.364 148.989 280.474 149.069 277.923 150.109C272.559 152.294 270.09 158.41 272.375 163.537C273.532 166.051 275.57 167.995 278.015 168.97Z" fill="#D3D3D3"/>
<path d="M255.619 123.947L259.1 131.503L269.677 126.974L265.02 116.687L257.251 120.072C255.59 120.746 254.85 122.506 255.619 123.947Z" fill="black"/>
<path d="M260.078 133.952L260.703 135.227C261.346 136.715 263.104 137.313 264.633 136.692L265.945 136.084L264.145 132.073L260.078 133.952Z" fill="black"/>
<path d="M268.376 135.096L266.57 131.084L270.695 129.333L272.496 133.344L268.376 135.096Z" fill="black"/>
<path d="M273.189 117.883L272.564 116.607C271.92 115.12 270.163 114.522 268.633 115.143L267.355 115.661L269.156 119.672L273.189 117.883Z" fill="black"/>
<path d="M272.012 125.948L270.211 121.942L274.297 120.275L276.136 124.197L272.012 125.948Z" fill="black"/>
<path d="M274.959 132.266L276.271 131.659C277.8 131.033 278.415 129.324 277.776 127.836L277.152 126.56L273.027 128.311L274.959 132.266Z" fill="black"/>
<path d="M250.822 110.722L251.553 112.248L266.42 105.826L262.673 97.6483L261.269 98.218L264.372 104.908L250.822 110.722Z" fill="black"/>
<path d="M249.478 97.3329C250.853 100.351 254.096 101.434 257.417 100.082L257.799 99.927C260.68 98.6087 261.875 95.2755 260.641 92.4177L260.535 92.1682C259.857 90.7652 258.758 89.6071 257.344 88.9432L256.517 90.1579L256.609 90.1956C257.785 90.6664 258.777 91.575 259.261 92.6908C260.297 94.7482 259.348 97.2528 257.233 98.2603C257.107 98.3121 257.107 98.3121 256.976 98.3639L253.389 90.5581L253.263 90.6099C253.263 90.6099 252.755 90.817 252.499 90.9206C249.521 92.2059 248.321 94.8094 249.478 97.3329ZM255.573 98.9336C253.641 99.5032 251.685 98.6181 250.935 96.8809C250.31 95.605 250.523 93.8395 252.716 92.6531L255.573 98.9336Z" fill="black"/>
<path d="M244.722 83.5055L245.23 83.2984C244.441 84.4236 244.209 85.9772 244.833 87.2531L244.94 87.5026C246.208 90.2709 249.306 91.1984 252.666 89.7577C256.021 88.3171 257.43 85.4829 256.248 82.7522C255.696 81.2975 254.307 80.3323 252.71 80.1064L254.37 79.4284L253.726 77.9407L238.898 84.2729L239.542 85.7607L244.722 83.5055ZM254.651 83.0347C255.542 84.932 254.38 86.9376 251.921 88.0158C249.457 89.0939 247.172 88.4913 246.281 86.594C245.55 85.0686 246.131 82.9359 248.977 81.7024C252.109 80.2758 253.92 81.5093 254.651 83.0347Z" fill="black"/>
<path d="M240.177 72.9502C239.862 73.4446 239.18 74.8146 240.182 76.9614C241.45 79.7297 244.369 80.5819 247.632 79.1083C250.895 77.6347 252.265 74.8852 250.997 72.1169C250.498 70.7893 249.326 69.8053 247.821 69.617L249.264 68.9579C251.345 68.0398 253.025 68.8119 254.08 71.0812C254.506 72.0745 254.719 73.0821 254.671 74.1978L254.632 74.2873L256.215 74.3014L256.254 74.212C256.375 72.922 256.055 71.6649 255.615 70.4597C254.506 68.0633 252.11 65.9777 248.625 67.4701L238.299 71.8956L239.03 73.421L240.177 72.9502ZM249.578 72.4794C250.522 74.5039 249.491 76.4577 247.027 77.5311C244.563 78.6092 242.549 78.1149 241.697 76.1281C240.695 73.9813 241.581 72.3806 244.176 71.2506C246.853 70.1584 248.683 70.5821 249.578 72.4794Z" fill="black"/>
<path d="M235.201 65.9306C236.576 68.9484 239.819 70.0313 243.048 68.6424L243.431 68.4871C246.311 67.1641 247.633 63.7838 246.311 60.8931L246.205 60.6436C245.527 59.2406 244.428 58.0824 243.014 57.4186L242.061 58.685L242.114 58.8074C243.29 59.2782 244.283 60.1869 244.767 61.3027C245.803 63.3601 244.854 65.8647 242.739 66.8722C242.613 66.924 242.613 66.924 242.482 66.9758L238.929 59.0805L238.803 59.1323C238.803 59.1323 238.295 59.3394 238.038 59.443C235.153 60.7707 233.986 63.2894 235.201 65.9306ZM241.204 67.4984C239.272 68.068 237.317 67.1829 236.479 65.4127C235.855 64.1369 236.068 62.3714 238.261 61.185L241.204 67.4984Z" fill="black"/>
<path d="M230.457 55.0928C230.564 55.3424 230.617 55.4648 230.636 55.6766C231.406 57.1126 232.926 58.0259 234.582 57.8658L232.156 58.8545L232.8 60.3422L243.416 55.7237L243.542 55.6719L242.811 54.1465L238.304 56.0533C237.626 56.4017 236.847 56.5005 236.155 56.6371C234.281 56.816 232.742 56.2039 232.117 54.9281C232.064 54.8056 231.919 54.6456 231.904 54.4337L231.851 54.3113L230.457 55.0928Z" fill="black"/>
</g>
<defs>
<clipPath id="clip0">
<rect width="390" height="390" fill="white"/>
</clipPath>
</defs>
</svg>
