<svg width="390" height="390" viewBox="0 0 390 390" fill="none" xmlns="http://www.w3.org/2000/svg">
<g clip-path="url(#clip0)">
<path d="M93.964 374.247C112.727 382.685 175.009 393.76 219.689 388.74C277.015 382.3 322.207 350.413 347.603 319.401C431.876 216.483 377.434 28.0785 298.052 3.13053C283.649 -1.39648 269.762 -0.122524 252.667 1.44289C198.305 6.42119 182.15 32.6572 124.429 50.2998C71.8988 66.3583 65.9891 50.5255 42.6367 65.5403C-8.0188 98.1085 -5.66054 189.138 9.63993 256.493C15.8174 283.697 25.3021 343.371 93.964 374.247Z" fill="#CADDFF"/>
<path d="M81.0447 119.921C80.6642 119.921 80.3495 119.616 80.3401 119.235C80.3307 118.845 80.636 118.52 81.0259 118.511L83.5204 118.445C83.8962 118.426 84.2345 118.741 84.2439 119.131C84.2532 119.522 83.9479 119.846 83.558 119.855L81.0635 119.921C81.0588 119.921 81.0494 119.921 81.0447 119.921Z" fill="black"/>
<path d="M90.4646 119.672C90.0841 119.672 89.7694 119.367 89.76 118.986C89.7506 118.596 90.0559 118.271 90.4458 118.262L92.9403 118.196C92.945 118.196 92.9544 118.196 92.9591 118.196C93.3396 118.196 93.6544 118.502 93.6638 118.882C93.6732 119.273 93.3678 119.597 92.9779 119.606L90.4834 119.672C90.4787 119.672 90.474 119.672 90.4646 119.672Z" fill="black"/>
<path d="M87.1574 125.727C86.7768 125.727 86.4621 125.422 86.4527 125.041L86.3869 122.545C86.3775 122.154 86.6829 121.83 87.0728 121.821C87.4439 121.802 87.7868 122.117 87.7962 122.507L87.862 125.003C87.8714 125.393 87.5661 125.718 87.1761 125.727C87.1715 125.727 87.1667 125.727 87.1574 125.727Z" fill="black"/>
<path d="M86.9074 116.297C86.5268 116.297 86.2121 115.991 86.2027 115.611L86.1369 113.114C86.1275 112.724 86.4329 112.4 86.8228 112.39C87.1939 112.367 87.5368 112.687 87.5462 113.077L87.612 115.573C87.6214 115.963 87.3161 116.287 86.9261 116.297C86.9214 116.297 86.9167 116.297 86.9074 116.297Z" fill="black"/>
<path d="M239.04 257.758L166.672 258.214C166.202 258.214 166.047 258.651 166.047 259.069V320.685C166.047 326.584 124.928 341.909 124.528 341.129L124.477 347.649C124.472 348.862 125.538 349.939 126.901 349.939H127.807C127.812 349.939 127.817 349.939 127.826 349.939H188.502C191.316 349.939 194.097 349.309 196.648 348.242L230.011 334.186C236.015 331.657 239.806 326.222 239.806 320.29V258.613C239.806 258.195 239.51 257.758 239.04 257.758Z" fill="#99B9FF"/>
<path d="M158.717 254.622V316.252C158.717 322.325 154.809 327.863 148.674 330.486L126.167 340.1C124.696 340.73 125.199 342.699 126.829 342.699H188.661C191.442 342.699 194.185 342.149 196.703 341.092L221.639 330.585C227.825 327.981 231.767 322.424 231.767 316.318V254.622C231.767 254.368 231.537 254.166 231.255 254.166H159.229C158.947 254.166 158.717 254.373 158.717 254.622Z" fill="white"/>
<path d="M23.9082 289.545L321.481 290.194L326.648 290.204L336.255 290.222C338.984 290.222 341.23 288.088 341.577 285.371L366.457 90.7941C367.063 86.0602 363.614 81.5896 358.851 81.5896L50.5443 81.8717L23.9082 289.545Z" fill="#5479F7"/>
<path d="M347.289 81.552C352.653 81.552 357.018 86.9581 356.332 92.2984L331.274 285.385C330.926 288.102 328.62 290.133 325.891 290.133L323.542 290.222L19.7824 290.133C16.5081 290.133 13.9807 287.247 14.3988 283.994L39.9638 86.9769C40.3115 84.2598 42.3973 81.552 45.1266 81.552H347.289Z" fill="#99B9FF"/>
<path d="M33.0207 141.207C32.9925 141.207 32.9596 141.207 32.9267 141.202C32.5415 141.151 32.2691 140.798 32.3207 140.413L37.6151 99.6271C37.6668 99.2416 38.0191 98.969 38.4043 99.0207C38.7895 99.0724 39.062 99.425 39.0103 99.8105L33.716 140.596C33.669 140.948 33.3683 141.207 33.0207 141.207Z" fill="black"/>
<path d="M39.6781 290.843L19.7833 290.838C18.0263 290.838 16.3492 290.077 15.1842 288.756C14.0145 287.426 13.4742 285.658 13.7044 283.9L19.5531 238.827C19.6047 238.442 19.9571 238.164 20.3423 238.221C20.7275 238.272 21 238.625 20.9483 239.01L15.0996 284.083C14.9258 285.437 15.3439 286.8 16.2412 287.825C17.1384 288.845 18.4256 289.428 19.7833 289.428L39.6781 289.433C40.068 289.433 40.3828 289.748 40.3828 290.138C40.3828 290.528 40.068 290.843 39.6781 290.843Z" fill="black"/>
<path d="M261.726 290.909L160.88 290.881C160.491 290.881 160.176 290.566 160.176 290.175C160.176 289.785 160.491 289.47 160.88 289.47L261.726 289.498C262.116 289.498 262.431 289.813 262.431 290.204C262.431 290.594 262.112 290.909 261.726 290.909Z" fill="black"/>
<path d="M333.858 266.154C333.83 266.154 333.797 266.154 333.764 266.149C333.379 266.097 333.107 265.745 333.158 265.359L355.632 92.2091C355.947 89.774 355.097 87.1415 353.363 85.1671C351.738 83.3149 349.525 82.2572 347.289 82.2572H316.218C315.828 82.2572 315.514 81.9422 315.514 81.5521C315.514 81.1619 315.828 80.8469 316.218 80.8469H347.289C349.929 80.8469 352.527 82.0833 354.42 84.2363C356.45 86.5445 357.399 89.5155 357.032 92.3877L334.558 265.542C334.511 265.895 334.211 266.154 333.858 266.154Z" fill="black"/>
<path d="M296.243 27.7639C296.064 27.7639 295.881 27.6934 295.745 27.557C295.468 27.2844 295.468 26.8331 295.745 26.5604L297.384 24.9198C297.662 24.6425 298.108 24.6425 298.38 24.9198C298.658 25.1925 298.658 25.6438 298.38 25.9164L296.741 27.557C296.605 27.6934 296.426 27.7639 296.243 27.7639Z" fill="black"/>
<path d="M302.434 21.568C302.256 21.568 302.073 21.4974 301.936 21.3611C301.659 21.0838 301.659 20.6372 301.936 20.3645L303.576 18.7239C303.853 18.4465 304.299 18.4465 304.572 18.7239C304.849 19.0012 304.849 19.4478 304.572 19.7205L302.932 21.3611C302.796 21.4974 302.618 21.568 302.434 21.568Z" fill="black"/>
<path d="M304.074 27.7639C303.895 27.7639 303.712 27.6934 303.576 27.557L301.936 25.9164C301.659 25.6391 301.659 25.1925 301.936 24.9198C302.214 24.6425 302.66 24.6425 302.932 24.9198L304.572 26.5604C304.849 26.8378 304.849 27.2844 304.572 27.557C304.436 27.6934 304.257 27.7639 304.074 27.7639Z" fill="black"/>
<path d="M297.882 21.568C297.704 21.568 297.521 21.4974 297.384 21.3611L295.745 19.7205C295.468 19.4431 295.468 18.9965 295.745 18.7239C296.022 18.4465 296.468 18.4465 296.741 18.7239L298.38 20.3645C298.658 20.6419 298.658 21.0885 298.38 21.3611C298.244 21.4974 298.066 21.568 297.882 21.568Z" fill="black"/>
<path d="M6.21169 150.962C6.03318 150.962 5.84997 150.891 5.71373 150.755C5.43657 150.478 5.43657 150.031 5.71373 149.758L7.35324 148.118C7.6304 147.84 8.07669 147.84 8.34916 148.118C8.62632 148.395 8.62632 148.842 8.34916 149.114L6.70965 150.755C6.57342 150.891 6.3949 150.962 6.21169 150.962Z" fill="black"/>
<path d="M12.4031 144.761C12.2246 144.761 12.0414 144.691 11.9051 144.554C11.628 144.277 11.628 143.83 11.9051 143.558L13.5446 141.917C13.8218 141.64 14.2681 141.64 14.5406 141.917C14.8177 142.194 14.8177 142.641 14.5406 142.914L12.9011 144.554C12.7648 144.695 12.5863 144.761 12.4031 144.761Z" fill="black"/>
<path d="M14.0426 150.962C13.8641 150.962 13.6809 150.891 13.5446 150.755L11.9051 149.114C11.628 148.837 11.628 148.39 11.9051 148.118C12.1823 147.84 12.6286 147.84 12.9011 148.118L14.5406 149.758C14.8177 150.036 14.8177 150.482 14.5406 150.755C14.4043 150.891 14.2258 150.962 14.0426 150.962Z" fill="black"/>
<path d="M7.8512 144.761C7.67268 144.761 7.48947 144.691 7.35324 144.554L5.71373 142.914C5.43657 142.636 5.43657 142.19 5.71373 141.917C5.9909 141.64 6.43718 141.64 6.70965 141.917L8.34916 143.558C8.62632 143.835 8.62632 144.282 8.34916 144.554C8.21292 144.695 8.03441 144.761 7.8512 144.761Z" fill="black"/>
<path d="M281.568 14.8269C279.577 14.8269 277.951 13.205 277.951 11.2071C277.951 9.20923 279.572 7.5874 281.568 7.5874C283.56 7.5874 285.186 9.20923 285.186 11.2071C285.186 13.205 283.565 14.8269 281.568 14.8269ZM281.568 9.00239C280.352 9.00239 279.36 9.99429 279.36 11.2118C279.36 12.4294 280.352 13.4213 281.568 13.4213C282.785 13.4213 283.776 12.4294 283.776 11.2118C283.776 9.99429 282.785 9.00239 281.568 9.00239Z" fill="black"/>
<path d="M6.14068 186.388C4.14885 186.388 2.52344 184.766 2.52344 182.768C2.52344 180.775 4.14415 179.153 6.14068 179.153C8.13251 179.153 9.75792 180.775 9.75792 182.768C9.75792 184.766 8.13251 186.388 6.14068 186.388ZM6.14068 180.564C4.92397 180.564 3.93275 181.556 3.93275 182.768C3.93275 183.986 4.92397 184.978 6.14068 184.978C7.35739 184.978 8.34861 183.986 8.34861 182.768C8.34861 181.556 7.35739 180.564 6.14068 180.564Z" fill="black"/>
<path d="M373.578 186.755C372.681 186.755 371.831 186.426 371.159 185.819C370.445 185.17 370.022 184.282 369.975 183.318C369.928 182.355 370.257 181.429 370.905 180.709C371.554 179.995 372.441 179.572 373.404 179.525C375.392 179.417 377.097 180.963 377.196 182.956C377.242 183.92 376.914 184.846 376.265 185.565C375.617 186.28 374.729 186.703 373.766 186.75C373.7 186.755 373.639 186.755 373.578 186.755ZM373.583 180.935C373.545 180.935 373.508 180.935 373.47 180.94C372.883 180.968 372.338 181.226 371.943 181.664C371.549 182.101 371.347 182.665 371.375 183.252C371.403 183.84 371.662 184.385 372.098 184.78C372.535 185.175 373.094 185.377 373.686 185.349C374.274 185.321 374.818 185.062 375.213 184.625C375.608 184.188 375.81 183.624 375.781 183.036C375.725 181.852 374.748 180.935 373.583 180.935Z" fill="black"/>
<path d="M367.048 277.121C366.935 277.121 366.827 277.093 366.719 277.041C366.376 276.858 366.245 276.435 366.423 276.087C374.687 260.39 380.075 243.241 382.447 225.11C382.499 224.724 382.861 224.452 383.236 224.503C383.622 224.555 383.894 224.908 383.842 225.293C381.451 243.589 376.007 260.898 367.668 276.745C367.546 276.985 367.302 277.121 367.048 277.121Z" fill="black"/>
<path d="M384.021 217.616C384.002 217.616 383.983 217.616 383.965 217.616C383.575 217.583 383.288 217.245 383.316 216.86C383.509 214.434 383.645 211.961 383.73 209.512C383.744 209.122 384.073 208.807 384.458 208.83C384.848 208.844 385.153 209.169 385.139 209.559C385.055 212.032 384.914 214.523 384.721 216.972C384.693 217.339 384.383 217.616 384.021 217.616Z" fill="black"/>
<path d="M364.826 263.427C364.737 263.427 364.643 263.408 364.554 263.371C364.197 263.22 364.028 262.807 364.178 262.449C372.512 242.517 376.044 220.959 374.677 198.371C374.654 197.981 374.95 197.647 375.34 197.623C375.739 197.59 376.063 197.896 376.087 198.286C377.468 221.09 373.898 242.86 365.479 262.995C365.366 263.267 365.103 263.427 364.826 263.427Z" fill="black"/>
<path d="M188.882 71.4224C188.882 57.8507 182.671 37.6414 152.766 38.8683C154.452 21.6817 138.085 -1.9406 102.425 0.217131C85.2123 1.26074 81.6843 13.3469 79.8193 12.7405C55.814 4.96509 24.0198 22.4479 30.5449 50.0848C17.2081 51.4011 8.66296 62.1098 8.97301 75.4981C9.17501 84.1949 14.6948 90.8843 23.6487 90.8843H168.752C179.571 90.8843 188.595 82.5777 188.872 72.0711C188.877 71.8596 188.882 71.6386 188.882 71.4224Z" fill="#99B9FF"/>
<path d="M193.091 73.7862C193.091 60.5624 184.335 34.6179 155.054 35.8119C148.693 9.74048 135.258 2.11084 111.337 1.9181C87.9753 1.73006 83.6769 17.0457 81.8777 16.3829C56.7496 7.12675 30.1793 27.7404 35.2857 52.0396C22.226 53.323 15.2969 64.3185 15.2969 77.2837C15.2969 77.3401 15.2969 77.4012 15.2969 77.4576C15.3579 85.9334 22.5408 92.7498 31.3067 92.7498H173.38C183.973 92.7498 192.81 84.6595 193.077 74.4208C193.087 74.2093 193.091 73.9977 193.091 73.7862Z" fill="#CADDFF"/>
<path d="M173.383 93.4549H31.3102C22.1543 93.4549 14.6568 86.2813 14.5957 77.467V77.2884C14.5957 63.0586 22.361 52.9939 34.4483 51.4285C32.4893 40.7432 36.4777 29.931 45.2201 22.3719C55.3061 13.6517 69.3805 11.0896 81.9798 15.6684C82.2476 15.4615 82.7831 14.7611 83.2576 14.1312C86.2077 10.2529 93.0899 1.20825 110.913 1.20825C111.059 1.20825 111.2 1.20825 111.345 1.20825C124.245 1.31167 133.415 3.65745 140.199 8.58404C147.508 13.8961 152.413 22.3249 155.602 35.0786C166.13 34.773 174.873 37.8897 181.604 44.3582C190.605 53.0033 193.8 65.6112 193.8 73.7768C193.8 73.993 193.795 74.214 193.79 74.4302C193.508 84.9274 184.357 93.4549 173.383 93.4549ZM69.2913 14.841C60.9011 14.841 52.6566 17.8026 46.1362 23.439C37.5816 30.8336 33.7859 41.4719 35.975 51.8986C36.0173 52.096 35.9703 52.2981 35.8529 52.4627C35.7354 52.6225 35.5522 52.7259 35.3549 52.7494C23.6012 53.9059 16.005 63.5381 16.005 77.2931V77.467C16.0614 85.5103 22.9295 92.0541 31.3102 92.0541H173.383C183.601 92.0541 192.123 84.1377 192.376 74.4114C192.381 74.2046 192.386 74.0024 192.386 73.7956C192.386 65.9074 189.304 53.7319 180.623 45.3925C174.055 39.0838 165.463 36.0987 155.076 36.5265C154.743 36.5406 154.442 36.3149 154.362 35.9906C148.481 11.8841 136.821 2.84418 111.326 2.63734C111.19 2.63734 111.049 2.63734 110.913 2.63734C93.7805 2.63734 87.199 11.2918 84.3756 15.0008C83.2012 16.5474 82.5529 17.3983 81.6369 17.0598C77.6156 15.5649 73.4346 14.841 69.2913 14.841Z" fill="#5479F7"/>
<path d="M149.929 51.8101L172.506 40.7206C190.879 31.6948 208.026 20.3561 223.524 6.97719L224.632 0.109105C224.632 0.109105 232.29 0.193722 233.924 0.0997035C236.015 -0.0178202 238.143 0.715528 239.745 2.28564C256.567 18.7578 275.72 32.6679 296.583 43.56L311.348 51.2695C314.777 53.0606 316.041 56.2196 315.007 60.756L295.714 142.317C287.314 165.136 253.495 195.669 234.455 211.562C230.993 214.453 226.76 215.864 222.547 215.84C220.677 215.831 212.94 216.075 212.94 216.075C212.94 216.075 211.3 212.813 209.135 210.608C192.025 193.215 162.007 159.725 155.919 133.357L145.819 60.4552C145.02 56.9718 146.721 53.3896 149.929 51.8101Z" fill="#5479F7"/>
<path d="M141.379 52.2511L163.783 41.2462C182.014 32.2909 199.025 21.0416 214.4 7.76608L220.174 2.78307C223.176 0.192851 227.662 0.33388 230.5 3.10744C247.191 19.4526 266.193 33.2499 286.896 44.0621L301.543 51.7105C304.949 53.4875 306.504 57.5162 305.174 61.1218L286.031 142.049C277.697 164.688 243.78 195.268 224.886 211.04C217.571 217.146 206.804 216.601 200.124 209.808C183.146 192.546 153.363 159.325 147.326 133.159L137.306 60.8257C136.508 57.3658 138.194 53.8119 141.379 52.2511Z" fill="white"/>
<path d="M155.144 61.8598L173.695 52.7494C188.789 45.336 202.873 36.0187 215.608 25.0279L220.386 20.9005C222.871 18.7521 226.587 18.8697 228.936 21.1684C242.756 34.7024 258.489 46.1257 275.631 55.0764L287.76 61.4085C290.579 62.8799 291.866 66.2176 290.767 69.2027L274.912 136.21C268.011 154.957 239.928 180.277 224.285 193.331C218.23 198.385 209.313 197.938 203.784 192.311C189.728 178.02 165.065 150.51 160.067 128.848L151.771 68.9583C151.109 66.0954 152.504 63.1526 155.144 61.8598Z" fill="#CADDFF"/>
<path d="M213.202 215.952C208.251 215.952 203.309 214.048 199.626 210.306C182.437 192.833 152.705 159.597 146.64 133.319C146.636 133.3 146.631 133.277 146.631 133.258L144.043 114.558C143.991 114.172 144.259 113.815 144.644 113.763C145.029 113.707 145.386 113.979 145.438 114.365L148.026 133.032C154.03 158.967 183.56 191.954 200.636 209.315C207.015 215.797 217.473 216.319 224.444 210.499C243.653 194.464 277.096 164.232 285.364 141.847L304.498 60.962C304.503 60.9338 304.512 60.9056 304.521 60.8821C305.724 57.6196 304.305 53.9482 301.224 52.3405L286.576 44.692C265.798 33.8423 246.763 20.0215 230.011 3.61516C227.418 1.07195 223.387 0.949726 220.639 3.319L214.865 8.30201C199.452 21.6057 182.371 32.9021 164.097 41.8809L141.694 52.8858C138.786 54.3149 137.268 57.5162 137.997 60.6706C138.001 60.6894 138.006 60.7129 138.006 60.7317L142.304 91.772C142.356 92.1575 142.088 92.5148 141.703 92.5665C141.318 92.6229 140.961 92.3502 140.909 91.9648L136.611 60.9573C135.751 57.1684 137.583 53.3324 141.069 51.6212L163.472 40.6163C181.638 31.6939 198.621 20.4634 213.945 7.23489L219.718 2.25189C223.025 -0.601586 227.873 -0.451156 230.997 2.60446C247.651 18.912 266.568 32.6529 287.229 43.4369L301.876 51.0853C305.569 53.0127 307.279 57.4081 305.86 61.324L286.726 142.208C286.722 142.237 286.712 142.265 286.703 142.288C278.35 164.985 244.677 195.442 225.351 211.576C221.837 214.509 217.515 215.952 213.202 215.952Z" fill="black"/>
<path d="M234.195 81.4016L233.852 59.9371C233.697 53.0032 228.201 47.3245 221.276 47.0095C213.642 46.6569 207.31 52.9045 207.488 60.5482L207.639 67.2095C207.69 69.5317 205.774 71.4168 203.453 71.3228C201.32 71.2382 199.624 69.4941 199.596 67.3599L199.502 61.0371C199.216 48.7583 209.039 38.6794 221.704 39.1965V39.2059C232.165 39.6337 241.739 48.8429 242.003 60.0593L242.275 81.7354L234.195 81.4016Z" fill="white"/>
<path d="M242.271 82.4359C242.262 82.4359 242.252 82.4359 242.243 82.4359L234.163 82.1068C233.792 82.0927 233.491 81.7871 233.486 81.4111L233.143 59.9466C232.993 53.3887 227.764 48.0109 221.239 47.71C217.763 47.5549 214.47 48.81 211.966 51.2592C209.486 53.6849 208.109 57.0649 208.189 60.5295L208.339 67.1907C208.367 68.5117 207.87 69.748 206.925 70.6741C205.986 71.6002 204.741 72.0797 203.421 72.028C200.912 71.9246 198.92 69.8797 198.887 67.3693L198.794 61.0466C198.648 54.8178 200.978 49.0169 205.347 44.7155C209.688 40.447 215.513 38.2423 221.728 38.4914C221.77 38.4914 221.812 38.5008 221.855 38.5102C232.908 39.032 242.44 48.8617 242.703 60.0453L242.976 81.726C242.976 81.9188 242.9 82.1068 242.764 82.2384C242.633 82.3607 242.454 82.4359 242.271 82.4359ZM234.891 80.7247L241.562 80.9974L241.299 60.0641C241.054 49.5622 232.067 40.3295 221.676 39.9064C221.634 39.9064 221.596 39.9017 221.554 39.8923C215.766 39.6902 210.373 41.7539 206.343 45.7215C202.251 49.7455 200.071 55.1798 200.208 61.0184L200.302 67.3458C200.325 69.1087 201.725 70.5425 203.482 70.613C204.407 70.6459 205.281 70.3121 205.943 69.6634C206.606 69.0147 206.958 68.145 206.935 67.2189L206.784 60.5577C206.695 56.7029 208.227 52.9468 210.989 50.2485C213.775 47.5267 217.439 46.1211 221.31 46.2997C228.572 46.6335 234.393 52.6131 234.557 59.9183L234.891 80.7247Z" fill="black"/>
<path d="M225.228 140.413L216.18 140.77C203.651 140.455 192.579 125.473 193.767 107.863L195.67 79.6905L248.919 79.2628C253.644 79.244 257.605 83.4607 257.276 88.1805L255.632 111.972C254.556 127.979 241.261 140.413 225.228 140.413Z" fill="#5479F7"/>
<path d="M216.506 139.971C198.866 139.971 184.913 125.031 186.102 107.421L187.948 80.1089H244.25C246.839 80.1089 248.887 82.3042 248.713 84.8898L246.914 111.535C245.833 127.541 232.539 139.971 216.506 139.971Z" fill="white"/>
<path d="M216.505 140.676C201.124 140.676 187.863 129.21 185.65 114.007C185.594 113.622 185.861 113.265 186.247 113.208C186.632 113.152 186.989 113.42 187.045 113.805C189.155 128.322 201.82 139.266 216.505 139.266C232.106 139.266 245.156 127.062 246.208 111.483L248.017 84.6969C248.087 83.6815 247.74 82.7084 247.045 81.9656C246.349 81.2229 245.405 80.8092 244.386 80.8092H192.354C190.249 80.8092 188.492 82.4545 188.351 84.5512L188.098 88.2837C188.069 88.6739 187.731 88.9607 187.346 88.9419C186.956 88.9136 186.665 88.5799 186.688 88.1897L186.942 84.4572C187.135 81.6225 189.507 79.3989 192.349 79.3989H244.381C245.772 79.3989 247.12 79.9818 248.069 81.002C249.018 82.0221 249.511 83.3994 249.417 84.7909L247.608 111.577C246.514 127.894 232.848 140.676 216.505 140.676Z" fill="black"/>
<path d="M215.804 122.695C214.367 122.695 213.23 121.482 213.319 120.043L214.672 98.8138C214.757 97.5023 215.842 96.4822 217.157 96.4822C218.595 96.4822 219.732 97.695 219.642 99.1335L218.29 120.363C218.205 121.675 217.12 122.695 215.804 122.695Z" fill="black"/>
<path d="M223.159 107.232C226.738 103.65 226.738 97.8431 223.159 94.2614C219.58 90.6797 213.777 90.6797 210.198 94.2614C206.618 97.8431 206.618 103.65 210.198 107.232C213.777 110.813 219.58 110.813 223.159 107.232Z" fill="black"/>
<path d="M188.923 155.1C189.58 152.433 187.952 149.738 185.287 149.08C182.622 148.422 179.929 150.051 179.272 152.718C178.615 155.385 180.242 158.08 182.908 158.738C185.573 159.395 188.266 157.767 188.923 155.1Z" fill="#5479F7"/>
<path d="M200.654 157.837C202.827 156.159 203.229 153.036 201.553 150.861C199.876 148.687 196.755 148.284 194.581 149.962C192.408 151.64 192.006 154.763 193.683 156.938C195.36 159.113 198.481 159.515 200.654 157.837Z" fill="#5479F7"/>
<path d="M216.372 155.098C217.029 152.431 215.402 149.736 212.737 149.079C210.071 148.421 207.378 150.05 206.721 152.717C206.064 155.384 207.692 158.079 210.357 158.737C213.022 159.394 215.715 157.765 216.372 155.098Z" fill="#5479F7"/>
<path d="M228.498 157.839C230.671 156.161 231.073 153.037 229.396 150.863C227.719 148.688 224.598 148.286 222.425 149.964C220.252 151.642 219.85 154.765 221.527 156.94C223.203 159.114 226.325 159.517 228.498 157.839Z" fill="#5479F7"/>
<path d="M242.108 157.016C244.049 155.074 244.049 151.925 242.108 149.983C240.167 148.04 237.02 148.04 235.079 149.983C233.138 151.925 233.138 155.074 235.079 157.016C237.02 158.959 240.167 158.959 242.108 157.016Z" fill="#5479F7"/>
<path d="M257.352 154.65C257.986 151.977 256.334 149.296 253.663 148.662C250.993 148.028 248.314 149.681 247.68 152.354C247.047 155.026 248.698 157.707 251.369 158.341C254.04 158.975 256.719 157.322 257.352 154.65Z" fill="#5479F7"/>
<path d="M80.135 301.721C71.712 313.398 65.9573 330.768 61.1562 354.198C79.98 375.154 127.676 385.482 164.567 388.524C161.946 357.347 156.534 317.784 156.534 317.784L80.135 301.721Z" fill="black"/>
<path d="M167.09 217.297C167.09 217.297 185.904 229.97 194.698 227.582C207.072 224.226 212.521 192.673 213.052 189.876C213.583 187.074 215.969 172.873 218.44 167.575C220.766 162.596 222.18 157.496 222.927 154.365C223.378 152.475 224.66 151.563 225.938 151.756C227.061 151.925 227.803 152.804 227.173 155.62C226.445 158.878 225.797 162.155 225.2 164.942C225.012 165.821 224.655 166.649 225.271 166.023C226.708 164.571 228.587 163.146 230.053 163.678C232.815 164.679 235.756 173.996 232.792 181.372C229.828 188.748 225.083 187.92 224.265 191.394C223.443 194.868 219.168 238.935 215.749 247.007C210.825 258.609 163.637 250.142 163.637 250.142L167.09 217.297Z" fill="white"/>
<path d="M194.553 253.823C180.441 253.823 164.642 251.04 163.515 250.838L162.871 250.721L166.512 216.051L167.484 216.704C167.653 216.817 183.146 227.173 192.199 227.173C193.035 227.173 193.81 227.084 194.52 226.896C205.226 223.991 210.835 198.004 212.301 190.111L212.371 189.74C212.432 189.425 212.512 188.969 212.62 188.391C213.433 183.925 215.584 172.055 217.816 167.269C220.052 162.479 221.466 157.515 222.255 154.191C222.758 152.076 224.322 150.792 226.055 151.051C226.755 151.159 227.291 151.474 227.643 151.991C228.188 152.786 228.259 154.022 227.869 155.766C227.413 157.806 226.99 159.837 226.586 161.793C226.403 162.676 226.225 163.537 226.051 164.359C227.69 163.034 229.118 162.578 230.307 163.006C231.613 163.48 232.562 165.093 233.13 166.362C234.821 170.156 235.582 176.342 233.459 181.626C231.669 186.078 229.198 187.723 227.39 188.922C226.098 189.782 225.247 190.346 224.961 191.55C224.735 192.513 224.19 197.045 223.505 202.785C221.776 217.245 218.877 241.441 216.406 247.27C214.259 252.342 204.855 253.823 194.553 253.823ZM164.412 249.564C177.847 251.905 211.314 255.68 215.11 246.734C217.506 241.088 220.385 217.015 222.105 202.63C222.823 196.622 223.345 192.278 223.589 191.239C224.003 189.495 225.21 188.691 226.61 187.761C228.353 186.604 230.523 185.161 232.148 181.114C234.107 176.243 233.36 170.358 231.843 166.95C231.218 165.549 230.462 164.576 229.828 164.341C228.945 164.016 227.469 164.815 225.783 166.517C225.609 166.691 225.158 167.152 224.618 166.846C224.073 166.536 224.223 165.962 224.383 165.351C224.43 165.177 224.477 164.985 224.519 164.792C224.74 163.758 224.97 162.658 225.205 161.515C225.614 159.55 226.032 157.52 226.492 155.465C226.882 153.726 226.647 153.044 226.478 152.79C226.389 152.663 226.239 152.508 225.839 152.447C224.843 152.297 223.951 153.129 223.622 154.52C222.814 157.905 221.377 162.968 219.089 167.866C216.932 172.487 214.804 184.221 214.001 188.64C213.898 189.218 213.813 189.679 213.752 189.998L213.682 190.365C211.756 200.745 206.071 225.218 194.886 228.255C186.952 230.408 171.703 221.105 167.672 218.51L164.412 249.564Z" fill="black"/>
<path d="M55.8751 232.279L42.4443 263.62C42.247 264.076 42.0215 264.523 41.8007 264.969C37.5023 273.614 42.0638 284.163 51.4592 286.852L91.9629 298.459L93.034 281.267L71.3399 274.479C67.1449 273.168 65.2611 268.288 67.4831 264.49L71.2413 258.068L55.8751 232.279Z" fill="white"/>
<path d="M92.6162 299.38L51.2668 287.529C46.6067 286.194 42.8156 282.884 40.8614 278.451C38.9071 274.009 39.0199 268.984 41.1714 264.654L41.2325 264.527C41.4345 264.123 41.6271 263.738 41.7962 263.343L55.772 230.732L72.0636 258.068L68.0941 264.847C67.1451 266.469 66.9854 268.406 67.6666 270.159C68.343 271.912 69.7618 273.243 71.5563 273.802L93.7765 280.755L92.6162 299.38ZM55.9787 233.83L43.0928 263.897C42.9096 264.33 42.6982 264.748 42.4962 265.157L42.4351 265.284C40.4715 269.238 40.3681 273.83 42.1533 277.887C43.9384 281.94 47.4006 284.958 51.6567 286.18L91.3196 297.547L92.3014 281.78L71.1335 275.156C68.9256 274.465 67.1827 272.834 66.3512 270.676C65.5197 268.518 65.7123 266.135 66.8774 264.142L70.4241 258.082L55.9787 233.83Z" fill="black"/>
<path d="M87.8983 200.148C110.579 190.022 154.418 192.119 185.169 225.147C188.787 229.03 178.339 258.322 169.028 256.305C162.127 254.81 156.292 253.123 154.221 255.426C153.652 256.061 153.525 256.808 153.46 257.231C150.857 273.802 155.931 294.552 155.931 294.552C158.965 306.963 162.244 320.384 157.566 330.585C144.924 358.137 80.2693 349.492 65.152 341.171C58.9275 337.749 65.462 328.324 70.0376 297.584C73.4482 274.686 75.4306 255.713 71.212 263.032C69.1404 266.624 47.4698 245.023 49.7294 238.569C54.6902 224.423 63.4185 211.077 87.8983 200.148Z" fill="#5479F7"/>
<path d="M110.669 350.023C91.5583 350.023 72.3869 345.962 64.8095 341.792C60.4876 339.413 61.615 334.618 64.086 324.107C65.5705 317.798 67.6046 309.153 69.3381 297.485C73.5097 269.449 73.1198 263.455 72.6077 262.266C72.4574 262.416 72.1943 262.731 71.8185 263.389C71.4615 264.01 70.6253 264.565 68.6898 263.676C63.0244 261.072 46.8689 244.59 49.0627 238.343C53.5068 225.664 61.5634 211.134 87.6075 199.508C99.9343 194.003 117.142 192.607 133.636 195.776C147.602 198.46 167.967 205.648 185.682 224.668C188.28 227.46 184.85 239.814 180.218 247.97C176.474 254.566 172.444 257.772 168.873 256.996C168.032 256.813 167.206 256.63 166.402 256.451C160.972 255.233 156.284 254.185 154.738 255.901C154.301 256.39 154.207 256.987 154.151 257.344C151.6 273.591 156.561 294.181 156.612 294.388C159.6 306.61 162.987 320.459 158.205 330.881C155.02 337.824 148.443 342.986 138.662 346.216C130.423 348.933 120.553 350.019 110.669 350.023ZM72.6923 260.729C72.8097 260.729 72.9319 260.748 73.0587 260.79C74.111 261.157 76.0746 261.843 70.738 297.683C68.9905 309.412 66.9517 318.085 65.4625 324.422C63.0901 334.51 62.1083 338.685 65.4954 340.551C76.8028 346.77 114.403 352.736 138.225 344.871C147.621 341.768 153.916 336.861 156.932 330.289C161.507 320.313 158.327 307.301 155.25 294.721C155.198 294.51 150.172 273.647 152.765 257.123C152.835 256.677 152.981 255.75 153.7 254.956C155.795 252.624 160.615 253.706 166.722 255.074C167.525 255.252 168.347 255.436 169.183 255.619C172.058 256.239 175.638 253.198 179.006 247.275C183.948 238.568 186.424 227.521 184.662 225.631C167.21 206.889 147.142 199.804 133.382 197.163C117.161 194.046 100.268 195.404 88.1947 200.796C62.6391 212.206 54.7517 226.417 50.4063 238.813C48.748 243.547 63.1559 259.582 69.2911 262.398C70.1884 262.811 70.5736 262.755 70.6112 262.684C71.1373 261.749 71.8467 260.729 72.6923 260.729Z" fill="black"/>
<path d="M144.037 147.949C146.108 148.404 147.49 152.405 148.039 154.455C149.843 161.2 148.063 177.701 143.21 179.309C138.428 180.893 138.597 178.632 135.097 181.123C132.302 183.112 132.25 186.186 131.625 192.885C131.588 193.308 140.424 194.77 140.622 195.151C141.063 196.016 137.009 207.716 120.285 207.481C104.44 207.26 101.086 196.909 100.94 196.171C100.855 195.729 112.59 193.585 112.755 193.134C114.864 187.215 115.803 177.217 115.803 177.217C115.803 177.217 122.272 143.163 144.037 147.949Z" fill="white"/>
<path d="M120.77 208.191C120.605 208.191 120.441 208.191 120.272 208.186C103.261 207.947 100.269 196.425 100.245 196.307C100.09 195.499 100.889 195.301 102.641 194.869C103.788 194.587 105.333 194.248 106.822 193.919C108.786 193.487 111.417 192.908 112.173 192.645C114.17 186.844 115.09 177.25 115.1 177.151L115.109 177.085C115.264 176.276 118.999 157.209 130.348 149.711C134.497 146.971 139.152 146.143 144.188 147.253C146.64 147.793 148.082 151.879 148.721 154.267C150.525 161.003 148.881 178.166 143.432 179.971C141.125 180.733 139.89 180.653 138.898 180.592C137.846 180.521 137.207 180.484 135.502 181.697C133.191 183.342 132.965 185.876 132.462 191.432L132.368 192.471C133.181 192.72 135.178 193.134 136.573 193.426C140.834 194.314 141.026 194.403 141.242 194.826C141.646 195.611 140.815 197.605 139.875 199.123C138.175 201.873 132.932 208.191 120.77 208.191ZM101.8 196.547C102.59 198.658 106.484 206.579 120.295 206.776C129.165 206.908 134.177 203.594 136.813 200.801C138.931 198.554 139.749 196.434 139.918 195.621C139.204 195.419 137.555 195.076 136.291 194.812C131.307 193.773 130.851 193.656 130.926 192.824L131.063 191.31C131.589 185.495 131.852 182.576 134.689 180.554C136.798 179.05 137.818 179.116 138.992 179.196C139.908 179.252 140.942 179.323 142.99 178.646C147.246 177.235 149.102 161.149 147.364 154.647C146.678 152.081 145.353 148.969 143.892 148.644C139.241 147.624 134.948 148.381 131.133 150.901C120.479 157.938 116.678 176.46 116.509 177.329C116.434 178.091 115.499 187.568 113.423 193.383C113.239 193.896 113.211 193.971 107.132 195.306C105.263 195.705 102.825 196.241 101.8 196.547ZM132.331 192.946C132.331 192.951 132.331 192.951 132.331 192.946V192.946Z" fill="black"/>
<path d="M136.93 165.995C136.925 165.995 136.921 165.995 136.911 165.995C133.839 165.92 131.767 162.827 131.077 159.799C130.457 157.073 130.983 154.835 132.42 154.102C135.695 152.428 138.602 157.289 138.725 157.496C138.922 157.83 138.809 158.262 138.476 158.46C138.142 158.657 137.71 158.544 137.513 158.211C137.489 158.173 135.126 154.304 133.064 155.352C132.275 155.757 132.012 157.529 132.453 159.48C133.022 161.976 134.633 164.524 136.949 164.58C137.339 164.59 137.644 164.914 137.635 165.304C137.625 165.694 137.311 165.995 136.93 165.995Z" fill="black"/>
<path d="M150.934 140.488C152.357 145.203 147.608 146.848 144.075 150.28C140.43 153.825 140.387 158.347 138.189 158.464C137.916 158.478 136.878 157.397 136.314 156.034C135.365 153.745 129.211 153.655 132.861 161.971C138.607 175.045 153.607 206.691 147.42 230.605C142.464 249.766 133.961 259.3 93.5604 260.113C59.7462 260.795 44.0981 221.452 47.0811 205.681C53.7237 170.555 90.3565 207.848 92.5973 159.268C94.1664 125.215 124.039 106.782 146.349 131.787C148.604 134.306 150.027 137.493 150.934 140.488Z" fill="black"/>
<path d="M104.657 59.9935L101.871 58.2447C101.42 57.9627 101.171 57.4503 101.232 56.9285C101.303 56.3738 101.345 55.8238 101.369 55.2737C101.387 54.7472 101.721 54.2865 102.21 54.0797L105.235 52.801C105.831 52.5519 106.17 51.922 106.052 51.292L105.573 48.7206C105.456 48.0907 104.911 47.6206 104.267 47.5924L100.974 47.4561C100.443 47.4326 99.9687 47.1129 99.7573 46.624C99.5412 46.121 99.3064 45.6274 99.048 45.1432C98.799 44.6731 98.846 44.1043 99.1654 43.6859L101.143 41.0722C101.533 40.5598 101.51 39.8452 101.091 39.3563L99.3815 37.3631C98.9634 36.8742 98.2541 36.7379 97.6809 37.0341L94.7684 38.5478C94.2986 38.7922 93.7255 38.7499 93.298 38.4302C92.8564 38.1012 92.4007 37.7909 91.9309 37.4995C91.48 37.2174 91.231 36.7003 91.2967 36.1738L91.6914 32.9301C91.7665 32.2908 91.3907 31.6844 90.78 31.4681L88.2949 30.5891C87.6842 30.3728 87.003 30.6032 86.6601 31.1485L84.9032 33.9079C84.6213 34.3545 84.1045 34.6037 83.5737 34.5379C83.0147 34.4673 82.4603 34.4203 81.906 34.4015C81.3752 34.378 80.9101 34.049 80.6987 33.5695L79.4068 30.5562C79.1531 29.9638 78.5189 29.6254 77.8801 29.7429L75.2869 30.213C74.648 30.3305 74.1783 30.8664 74.1548 31.5057L74.0232 34.7729C74.0044 35.2994 73.6803 35.7695 73.1964 35.9764C72.6844 36.1926 72.1817 36.4276 71.6885 36.6862C71.2187 36.9306 70.6503 36.8789 70.2228 36.5593L67.5827 34.5943C67.0659 34.2088 66.3472 34.2276 65.8539 34.646L63.848 36.3383C63.3547 36.752 63.2185 37.4524 63.5191 38.0213L65.0506 40.9123C65.2996 41.3824 65.2526 41.9466 64.9331 42.3696C64.6043 42.8068 64.2896 43.2581 63.9936 43.7235C63.7117 44.1701 63.1903 44.4146 62.6595 44.3534L59.3898 43.9586C58.7462 43.8786 58.1355 44.2547 57.9195 44.8611L57.0363 47.3244C56.8202 47.9309 57.0551 48.6031 57.6 48.9463L60.3858 50.695C60.8367 50.9771 61.0857 51.4895 61.0246 52.0113C60.9542 52.566 60.9119 53.116 60.8884 53.666C60.8649 54.1925 60.5361 54.6532 60.0475 54.8601L57.0222 56.1387C56.4256 56.3926 56.0873 57.0178 56.2048 57.6477L56.684 60.2191C56.8014 60.8491 57.3463 61.3192 57.9899 61.3474L61.283 61.4837C61.8139 61.5072 62.2883 61.8222 62.495 62.3064C62.7111 62.8141 62.9507 63.3124 63.2138 63.806C63.4628 64.2714 63.4064 64.8402 63.0916 65.2586L61.1139 67.8723C60.724 68.3847 60.7475 69.0992 61.1656 69.5881L62.8755 71.5813C63.2936 72.0702 64.003 72.2066 64.5761 71.9104L67.4887 70.3967C67.9585 70.1522 68.5316 70.1946 68.9591 70.5142C69.4007 70.8433 69.8564 71.1535 70.3261 71.445C70.7771 71.7271 71.0261 72.2442 70.9603 72.7707L70.5657 76.0143C70.4906 76.6537 70.8664 77.2601 71.4771 77.4763L73.9622 78.3554C74.5729 78.5716 75.254 78.3413 75.597 77.796L77.3539 75.0365C77.6358 74.5899 78.1525 74.3408 78.6834 74.4066C79.2424 74.4771 79.7967 74.5241 80.3511 74.5429C80.8819 74.5664 81.347 74.8955 81.5584 75.375L82.8502 78.3789C83.1039 78.9712 83.7381 79.3097 84.377 79.1922L86.9701 78.7221C87.609 78.6045 88.0788 78.0686 88.1023 77.4293L88.2338 74.1622C88.2573 73.6356 88.5815 73.1656 89.07 72.9587C89.5774 72.7425 90.0753 72.5121 90.5639 72.2583C91.0337 72.0138 91.6068 72.0608 92.0343 72.3805L94.6744 74.3455C95.1912 74.731 95.9099 74.7122 96.4032 74.2938L98.4091 72.6014C98.9024 72.1878 99.0386 71.4873 98.7379 70.9185L97.2065 68.0274C96.9575 67.5573 97.0045 66.9932 97.3239 66.5701C97.6528 66.1329 97.9675 65.6816 98.2635 65.2162C98.5453 64.7697 99.0668 64.5252 99.5976 64.5863L102.867 64.9812C103.511 65.0611 104.122 64.685 104.338 64.0786L105.221 61.6153C105.442 61.0089 105.207 60.3367 104.657 59.9935ZM80.1772 65.6581C73.9481 65.1269 69.3208 59.6879 69.8517 53.5062C70.3778 47.3291 75.8553 42.7504 82.0892 43.2816C88.3184 43.8128 92.9456 49.2518 92.4148 55.4336C91.884 61.6106 86.4064 66.1893 80.1772 65.6581Z" fill="white"/>
<path d="M134.577 43.9445L132.971 42.3227C132.712 42.0594 132.623 41.674 132.75 41.3308C132.886 40.9688 133.004 40.6021 133.102 40.2308C133.201 39.8782 133.497 39.6196 133.859 39.5538L136.109 39.1683C136.55 39.0931 136.879 38.7218 136.903 38.2752L136.987 36.4606C137.006 36.014 136.715 35.6097 136.283 35.4922L134.075 34.8811C133.718 34.7824 133.45 34.4909 133.384 34.1242C133.318 33.7482 133.234 33.3768 133.14 33.0101C133.046 32.6528 133.168 32.2768 133.45 32.0417L135.202 30.5844C135.545 30.2977 135.644 29.8135 135.437 29.4139L134.596 27.7968C134.39 27.3972 133.934 27.195 133.497 27.3079L131.289 27.872C130.932 27.9613 130.552 27.8438 130.312 27.5617C130.068 27.2703 129.805 26.9882 129.532 26.7155C129.269 26.4523 129.184 26.0621 129.311 25.7189L130.091 23.5847C130.246 23.1663 130.082 22.6962 129.706 22.4518L128.165 21.4646C127.785 21.2201 127.291 21.2718 126.972 21.5821L125.346 23.171C125.083 23.4296 124.693 23.5142 124.351 23.3873C123.984 23.2509 123.613 23.1334 123.242 23.03C122.885 22.9313 122.622 22.6351 122.556 22.2731L122.143 20.0355C122.063 19.5936 121.687 19.2645 121.241 19.2457L119.413 19.1517C118.962 19.1282 118.558 19.4197 118.441 19.8475L117.835 22.0381C117.736 22.3907 117.445 22.6586 117.083 22.7197C116.703 22.7855 116.322 22.8655 115.951 22.9595C115.594 23.0488 115.218 22.9266 114.979 22.6445L113.503 20.8958C113.212 20.5526 112.724 20.4539 112.324 20.656L110.699 21.4834C110.3 21.6855 110.098 22.1368 110.21 22.5693L110.788 24.7693C110.882 25.1266 110.765 25.5027 110.478 25.7377C110.187 25.9822 109.905 26.236 109.628 26.504C109.365 26.7625 108.975 26.8425 108.627 26.7155L106.476 25.9305C106.053 25.7753 105.578 25.9352 105.339 26.3066L104.352 27.8344C104.108 28.2104 104.164 28.704 104.479 29.0237L106.086 30.6455C106.344 30.9088 106.433 31.2943 106.307 31.6374C106.17 31.9994 106.053 32.3661 105.954 32.7375C105.856 33.09 105.56 33.3486 105.198 33.4144L102.948 33.7999C102.506 33.8751 102.177 34.2465 102.154 34.693L102.069 36.5076C102.05 36.9542 102.342 37.3585 102.774 37.476L104.982 38.0871C105.339 38.1859 105.607 38.4773 105.672 38.8346C105.738 39.2154 105.823 39.5914 105.921 39.9628C106.015 40.3154 105.888 40.6915 105.607 40.9265L103.854 42.3838C103.511 42.6706 103.413 43.1548 103.619 43.5543L104.46 45.1715C104.667 45.571 105.123 45.7732 105.56 45.6604L107.768 45.0962C108.125 45.0069 108.505 45.1244 108.745 45.4065C108.989 45.698 109.252 45.98 109.524 46.2527C109.788 46.5159 109.872 46.9061 109.745 47.2493L108.965 49.3835C108.81 49.8019 108.975 50.272 109.351 50.5164L110.892 51.5036C111.272 51.7481 111.765 51.6964 112.085 51.3861L113.71 49.7972C113.973 49.5386 114.363 49.454 114.706 49.5809C115.073 49.7173 115.444 49.8348 115.815 49.9382C116.172 50.0369 116.435 50.3331 116.501 50.6951L116.9 52.9327C116.98 53.3746 117.356 53.7037 117.802 53.7225L119.629 53.8165C120.08 53.84 120.484 53.5485 120.602 53.1208L121.208 50.9301C121.306 50.5775 121.598 50.3096 121.964 50.2485C122.34 50.1827 122.716 50.1028 123.087 50.0087C123.444 49.9194 123.824 50.0416 124.064 50.3237L125.539 52.0724C125.83 52.4156 126.319 52.5143 126.718 52.3122L128.344 51.4848C128.743 51.2827 128.945 50.8314 128.832 50.3989L128.254 48.1989C128.16 47.8416 128.278 47.4655 128.564 47.2305C128.856 46.986 129.137 46.7322 129.415 46.4642C129.678 46.2057 130.068 46.1258 130.415 46.2527L132.567 47.0377C132.99 47.1929 133.464 47.033 133.704 46.6617L134.69 45.1339C134.949 44.7578 134.897 44.2642 134.577 43.9445ZM117.116 43.9069C112.982 42.5624 110.713 38.1482 112.047 34.0537C113.381 29.9545 117.811 27.7262 121.941 29.0707C126.075 30.4152 128.344 34.8294 127.009 38.9239C125.68 43.0184 121.25 45.2514 117.116 43.9069Z" fill="white"/>
</g>
<defs>
<clipPath id="clip0">
<rect width="390" height="390" fill="white"/>
</clipPath>
</defs>
</svg>
