<svg width="112" height="58" viewBox="0 0 112 58" fill="none" xmlns="http://www.w3.org/2000/svg">
<path d="M112 57.5419H0V38.6838H112V57.5419ZM86.5313 43.3988C85.3206 43.3768 84.1503 43.8347 83.2751 44.673C82.8544 45.0964 82.5228 45.6 82.2999 46.1541C82.077 46.7081 81.9674 47.3014 81.9775 47.8986C81.9674 48.4957 82.0768 49.0887 82.2994 49.6426C82.5219 50.1966 82.8531 50.7002 83.2732 51.1238C84.145 51.9613 85.312 52.4193 86.5197 52.398C87.134 52.4221 87.746 52.3106 88.3125 52.0714C88.8789 51.8323 89.386 51.4713 89.7977 51.0141L88.9982 50.2225C88.6944 50.5617 88.3213 50.8314 87.9043 51.0135C87.4872 51.1955 87.0359 51.2856 86.5811 51.2776C86.1337 51.293 85.6879 51.2161 85.2714 51.0515C84.8549 50.887 84.4767 50.6385 84.1602 50.3214C83.8438 50.0042 83.5958 49.6253 83.4317 49.2081C83.2677 48.7909 83.191 48.3443 83.2066 47.8962C83.191 47.4481 83.2677 47.0016 83.4317 46.5844C83.5958 46.1672 83.8438 45.7882 84.1602 45.4711C84.4767 45.1539 84.8549 44.9054 85.2714 44.7409C85.6879 44.5764 86.1337 44.4994 86.5811 44.5148C87.0354 44.5022 87.4871 44.589 87.9046 44.7691C88.322 44.9493 88.6953 45.2184 88.9982 45.5578L89.7977 44.7663C89.3864 44.3127 88.8807 43.9551 88.3163 43.7188C87.7519 43.4825 87.1425 43.3733 86.5313 43.3988ZM28.489 43.3988C27.2702 43.3764 26.0919 43.8368 25.2101 44.6797C24.7901 45.1018 24.4588 45.6039 24.2358 46.1563C24.0127 46.7088 23.9025 47.3004 23.9114 47.8962C23.9025 48.4921 24.0127 49.0837 24.2358 49.6361C24.4588 50.1885 24.7901 50.6906 25.2101 51.1127C26.0994 51.9367 27.266 52.3947 28.4775 52.3955C29.6889 52.3963 30.8562 51.9399 31.7466 51.1171C32.1664 50.6941 32.4975 50.1912 32.7202 49.638C32.9429 49.0848 33.0527 48.4926 33.0433 47.8962C33.0521 47.3006 32.942 46.7092 32.7193 46.1568C32.4966 45.6044 32.1659 45.1022 31.7466 44.6797C30.8722 43.8387 29.7011 43.3782 28.489 43.3988ZM14.8651 43.3988C14.2657 43.374 13.6676 43.4729 13.108 43.6894C12.5483 43.9059 12.0392 44.2354 11.6121 44.6574C11.185 45.0794 10.8491 45.5848 10.6253 46.1423C10.4015 46.6998 10.2946 47.2975 10.3112 47.8982C10.3015 48.495 10.4109 49.0877 10.6331 49.6416C10.8553 50.1954 11.1857 50.6992 11.605 51.1234C12.4775 51.9608 13.6452 52.4188 14.8535 52.3975C15.4668 52.4181 16.0773 52.3051 16.6428 52.0662C17.2082 51.8274 17.7151 51.4684 18.1285 51.0141L17.331 50.2245C17.0269 50.5633 16.6537 50.8328 16.2367 51.0148C15.8197 51.1968 15.3686 51.2871 14.9138 51.2795C14.4664 51.295 14.0205 51.2181 13.604 51.0537C13.1875 50.8892 12.8091 50.6408 12.4925 50.3237C12.1759 50.0066 11.9278 49.6277 11.7636 49.2105C11.5994 48.7934 11.5225 48.3468 11.5379 47.8986C11.5225 47.4503 11.5993 47.0037 11.7635 46.5863C11.9278 46.169 12.176 45.79 12.4927 45.4729C12.8094 45.1558 13.1879 44.9073 13.6045 44.7429C14.0212 44.5785 14.4672 44.5017 14.9148 44.5173C15.3689 44.5054 15.8202 44.5925 16.2374 44.7726C16.6546 44.9527 17.0277 45.2214 17.331 45.5602L18.1275 44.7687C17.7176 44.3144 17.2127 43.9561 16.6488 43.7193C16.085 43.4826 15.4759 43.3731 14.8651 43.3988ZM95.1235 43.4955V44.5898H98.0683V52.2988H99.2843V44.5922H102.229V43.498L95.1235 43.4955ZM69.5856 43.4955V52.2959H75.8189V51.2051H70.8094V48.3633H75.117V47.2962H70.8084V44.5922H75.6437V43.498L69.5856 43.4955ZM55.9356 45.7348V45.7382L61.0862 52.2964H62.0932V43.498H60.866V50.0596L55.7136 43.498H54.7061V52.2984H55.9332V45.7372L55.9356 45.7348ZM41.0585 45.7348L41.0624 45.7382L46.2129 52.2988H47.217V43.498H45.9908V50.0596L40.8364 43.498H39.8304V52.2984H41.0566V45.7372L41.0585 45.7348ZM28.489 51.28C28.0431 51.2938 27.5991 51.2156 27.1847 51.0502C26.7702 50.8848 26.3942 50.6358 26.0799 50.3187C25.7656 50.0016 25.5199 49.6231 25.3578 49.2067C25.1958 48.7904 25.121 48.3451 25.1381 47.8986C25.1306 47.4549 25.2114 47.0141 25.3757 46.6019C25.54 46.1897 25.7846 45.8145 26.0953 45.498C26.4059 45.1815 26.7764 44.9301 27.185 44.7585C27.5937 44.587 28.0323 44.4986 28.4754 44.4986C28.9185 44.4986 29.3572 44.587 29.7658 44.7585C30.1745 44.9301 30.5449 45.1815 30.8556 45.498C31.1662 45.8145 31.4109 46.1897 31.5752 46.6019C31.7395 47.0141 31.8203 47.4549 31.8127 47.8986C31.8262 48.3419 31.7499 48.7834 31.5883 49.1963C31.4267 49.6092 31.1832 49.985 30.8726 50.3011C30.5619 50.6171 30.1905 50.8668 29.7808 51.035C29.3712 51.2033 28.9317 51.2866 28.489 51.28Z" fill="#245EC7"/>
<path d="M0.199103 24.6668L4.64385 0.539146C4.68219 0.393215 4.76502 0.262896 4.8808 0.166343C4.99658 0.0697902 5.13955 0.0118115 5.28978 0.000483504H5.86329C5.99047 0.00720358 6.11366 0.0472223 6.22057 0.116544C6.32747 0.185865 6.41435 0.282064 6.47253 0.395535L13.9649 18.7424H14.1098L21.5655 0.395535C21.6197 0.279003 21.7056 0.180136 21.8134 0.110264C21.9211 0.0403932 22.0463 0.00234592 22.1747 0.000483504H22.7472C22.8974 0.0119083 23.0402 0.0699307 23.1559 0.166476C23.2716 0.263022 23.3544 0.393288 23.3927 0.539146L27.8022 24.6677C27.8399 24.7663 27.8515 24.873 27.8358 24.9775C27.8202 25.0819 27.7778 25.1805 27.7128 25.2636C27.6478 25.3468 27.5625 25.4117 27.465 25.452C27.3676 25.4923 27.2614 25.5066 27.1567 25.4936H24.8274C24.6764 25.489 24.5303 25.4384 24.4086 25.3485C24.2869 25.2587 24.1954 25.1339 24.1463 24.9907L21.4921 8.94063H21.3859L14.9329 25.4569C14.887 25.5795 14.8031 25.684 14.6934 25.7552C14.5837 25.8263 14.454 25.8602 14.3236 25.8519H13.6782C13.5487 25.855 13.4214 25.819 13.3127 25.7485C13.204 25.6781 13.1191 25.5764 13.0689 25.4569L6.58019 8.94063H6.43536L3.8555 24.9903C3.81444 25.1314 3.72995 25.2561 3.61406 25.3464C3.49817 25.4366 3.35679 25.488 3.21006 25.4931H0.878342C0.77321 25.5036 0.66713 25.4879 0.56948 25.4475C0.471831 25.4071 0.385621 25.3433 0.318472 25.2616C0.251323 25.1799 0.205305 25.0829 0.184485 24.9791C0.163665 24.8754 0.168686 24.7681 0.199103 24.6668ZM34.6265 24.9898L28.3887 12.0643C28.3344 11.9638 28.3081 11.8504 28.3128 11.7362C28.3175 11.622 28.353 11.5112 28.4154 11.4155C28.4778 11.3198 28.565 11.2428 28.6675 11.1926C28.7701 11.1425 28.8843 11.121 28.998 11.1306H31.3635C31.4894 11.142 31.6107 11.1839 31.7168 11.2527C31.823 11.3215 31.9108 11.4152 31.9727 11.5256L36.418 21.0765H36.4537L40.757 11.528C40.8249 11.3912 40.9342 11.2793 41.0694 11.2083C41.2045 11.1374 41.3586 11.111 41.5096 11.133H43.5541C43.6699 11.1162 43.7881 11.1329 43.8947 11.1812C44.0013 11.2294 44.092 11.3071 44.156 11.4052C44.22 11.5033 44.2547 11.6177 44.256 11.7349C44.2573 11.8521 44.2251 11.9672 44.1633 12.0667L33.1927 35.8331C33.1403 35.954 33.0558 36.0582 32.9484 36.1341C32.8409 36.2101 32.7147 36.255 32.5834 36.264H30.4323C30.3147 36.2744 30.1965 36.2523 30.0908 36.1998C29.985 36.1474 29.8957 36.0668 29.8327 35.9668C29.7698 35.8668 29.7355 35.7514 29.7338 35.6332C29.7321 35.515 29.763 35.3986 29.823 35.2969L34.6265 24.9898ZM50.753 25.4926C50.6392 25.5022 50.525 25.4807 50.4225 25.4306C50.3199 25.3804 50.2328 25.3034 50.1704 25.2077C50.1079 25.1121 50.0725 25.0012 50.0678 24.887C50.0631 24.7728 50.0893 24.6594 50.1437 24.5589L61.1506 0.395051C61.2161 0.2877 61.3049 0.196465 61.4103 0.128087C61.5158 0.0597096 61.6352 0.0159358 61.7598 0H62.1185C62.2431 0.0159358 62.3626 0.0597096 62.468 0.128087C62.5735 0.196465 62.6622 0.2877 62.7277 0.395051L73.6612 24.5594C73.7156 24.66 73.7417 24.7735 73.7369 24.8878C73.7321 25.002 73.6965 25.1129 73.6339 25.2085C73.5713 25.3042 73.484 25.3811 73.3813 25.4311C73.2786 25.4812 73.1643 25.5024 73.0505 25.4926H70.7922C70.6155 25.5019 70.4405 25.4547 70.2923 25.3579C70.1441 25.2611 70.0304 25.1197 69.9677 24.954L67.747 20.0349H56.0232C55.3063 21.6867 54.5532 23.3022 53.8363 24.954C53.7658 25.1142 53.6504 25.2504 53.504 25.346C53.3576 25.4417 53.1866 25.4926 53.0118 25.4926H50.753ZM57.4208 16.9476H66.3837L61.9742 7.10947H61.7951L57.4208 16.9476ZM75.1071 24.8104V1.04154C75.1129 0.862339 75.1865 0.692041 75.3129 0.565169C75.4394 0.438298 75.6094 0.364345 75.7883 0.358302H77.8298C78.0086 0.364331 78.1784 0.438149 78.3048 0.564817C78.4313 0.691484 78.505 0.861542 78.511 1.04058V24.8104C78.505 24.9894 78.4313 25.1595 78.3048 25.2861C78.1784 25.4128 78.0086 25.4866 77.8298 25.4926H75.7863C75.6079 25.4861 75.4386 25.4121 75.3126 25.2855C75.1865 25.1589 75.1131 24.9891 75.1071 24.8104ZM80.891 24.631C80.891 21.8661 83.4361 20.5378 83.4361 20.5378C82.6988 19.5287 82.3091 18.3067 82.3258 17.0563C82.3083 16.2354 82.4551 15.4194 82.7574 14.6562C83.0598 13.893 83.5116 13.1981 84.0863 12.6126C84.6609 12.027 85.3468 11.5626 86.1035 11.2467C86.8601 10.9308 87.6723 10.7698 88.492 10.7732H94.7679C94.8581 10.7701 94.9481 10.7857 95.0322 10.8189C95.1162 10.852 95.1925 10.9022 95.2564 10.9662C95.3203 11.0302 95.3703 11.1066 95.4035 11.1908C95.4366 11.275 95.4521 11.3651 95.449 11.4555V12.3501C95.449 12.6015 95.3042 12.9245 95.0546 12.9603L93.083 13.499C93.083 13.499 94.6245 14.6478 94.6245 17.3407C94.6245 20.3928 92.259 23.1915 88.5302 23.1915C86.702 23.1915 85.6983 22.617 85.4111 22.617C85.0137 22.7204 84.6584 22.9455 84.3949 23.2609C84.1314 23.5762 83.9727 23.9661 83.9411 24.3762C83.9411 25.202 84.5865 25.8481 85.6621 25.8481H90.5379C93.657 25.8481 96.1664 27.5356 96.1664 30.6593C96.1664 33.8187 93.2983 36.6194 88.5306 36.6194C83.4757 36.6194 81.4341 34.0344 81.4341 31.7003C81.4341 29.5462 83.1909 28.5409 83.5491 28.3252V28.2174C82.777 27.9906 82.0998 27.5178 81.6202 26.8708C81.1405 26.2238 80.8845 25.4378 80.891 24.632V24.631ZM88.563 20.43C90.3555 20.43 91.5744 19.0655 91.5744 17.1269C91.5744 15.1884 90.3555 13.8239 88.563 13.8239C86.7348 13.8239 85.4082 15.1884 85.4082 17.1269C85.4082 19.0655 86.7348 20.43 88.563 20.43ZM84.7627 31.1297C84.7627 32.6016 86.3042 33.679 88.4911 33.679C90.6779 33.679 92.5781 32.5668 92.5781 30.8425C92.5781 30.2681 92.2194 28.7962 89.8896 28.7962C88.8497 28.7962 87.7746 28.7962 86.7348 28.8682C86.5195 28.9393 84.7627 29.5157 84.7627 31.1297ZM96.892 18.2758C96.892 14.2185 100.118 10.7718 104.133 10.7718C108.148 10.7718 111.375 14.2185 111.375 18.2758C111.375 22.4048 108.148 25.8519 104.133 25.8519C100.118 25.8519 96.8925 22.4048 96.8925 18.2758H96.892ZM100.083 18.2758C100.083 20.753 101.875 22.764 104.133 22.764C106.392 22.764 108.184 20.7535 108.184 18.2758C108.184 15.8702 106.392 13.8955 104.133 13.8955C101.875 13.8955 100.085 15.8702 100.085 18.2758H100.083Z" fill="#245EC7"/>
</svg>
