<svg width="390" height="390" viewBox="0 0 390 390" fill="none" xmlns="http://www.w3.org/2000/svg">
<g clip-path="url(#clip0)">
<path d="M6.68671 312.338C18.2336 339.739 45.0166 352.783 62.1325 361.124C129.6 393.994 231.877 390.583 305.275 331.426C322.452 317.582 407.087 245.033 386.912 146.249C369.077 58.9218 280.936 7.94615 206.856 0.92103C145.484 -4.90113 65.4551 16.7992 37.3562 69.9129C19.6858 103.314 41.1253 114.033 26.8714 189.815C14.5303 255.414 -7.44025 278.824 6.68671 312.338Z" fill="#CADDFF"/>
<path d="M235.126 282.222H146.868L121.828 373.6H260.165L235.126 282.222Z" fill="#99B9FF"/>
<path d="M367.202 42.5031H14.7897C7.01193 42.5031 0.705078 48.8093 0.705078 56.5863V298.18C0.705078 305.957 7.01193 312.263 14.7897 312.263H367.202C374.98 312.263 381.287 305.957 381.287 298.18V56.5863C381.287 48.8093 374.98 42.5031 367.202 42.5031Z" fill="#99B9FF"/>
<path d="M367.202 312.968H14.7896C6.63582 312.968 0 306.333 0 298.18V56.5863C0 48.4334 6.63582 41.7983 14.7896 41.7983H367.207C375.361 41.7983 381.997 48.4334 381.997 56.5863V298.18C381.992 306.333 375.361 312.968 367.202 312.968ZM14.7896 43.208C7.41125 43.208 1.40988 49.2087 1.40988 56.5863V298.18C1.40988 305.558 7.41125 311.558 14.7896 311.558H367.207C374.585 311.558 380.587 305.558 380.587 298.18V56.5863C380.587 49.2087 374.585 43.208 367.207 43.208H14.7896Z" fill="black"/>
<path d="M275.189 364.211H106.808C101.967 364.211 98.043 368.135 98.043 372.975C98.043 377.815 101.967 381.739 106.808 381.739H275.189C280.03 381.739 283.954 377.815 283.954 372.975C283.954 368.135 280.03 364.211 275.189 364.211Z" fill="#99B9FF"/>
<path d="M275.188 382.444H155.678C155.287 382.444 154.973 382.129 154.973 381.739C154.973 381.349 155.287 381.034 155.678 381.034H275.188C279.629 381.034 283.248 377.421 283.248 372.975C283.248 368.53 279.634 364.916 275.188 364.916H135.338C134.948 364.916 134.633 364.601 134.633 364.211C134.633 363.821 134.948 363.507 135.338 363.507H275.188C280.409 363.507 284.658 367.755 284.658 372.975C284.658 378.196 280.409 382.444 275.188 382.444Z" fill="black"/>
<path d="M349 281.263H33.2159C26.2746 281.263 20.6445 275.634 20.6445 268.693V75.3027C20.6445 68.3622 26.2746 62.7327 33.2159 62.7327H349C355.941 62.7327 361.571 68.3622 361.571 75.3027V268.693C361.571 275.634 355.941 281.263 349 281.263Z" fill="white"/>
<path d="M349.728 199.424H32.2617V95.1093C32.2617 94.9308 32.4074 94.7851 32.586 94.7851H349.728V199.424Z" fill="#CADDFF"/>
<path d="M352.604 74.0188C354.193 72.4296 354.193 69.853 352.604 68.2638C351.015 66.6746 348.438 66.6746 346.848 68.2638C345.259 69.853 345.259 72.4296 346.848 74.0188C348.438 75.608 351.015 75.608 352.604 74.0188Z" fill="white"/>
<path d="M132.01 271.856H40.222C35.8279 271.856 32.2656 268.294 32.2656 263.9V206.623H132.01V271.856Z" fill="#CADDFF"/>
<path d="M240.867 206.623H141.123V271.856H240.867V206.623Z" fill="#CADDFF"/>
<path d="M341.608 271.856H249.984V206.623H349.728V263.74C349.728 268.223 346.096 271.856 341.608 271.856Z" fill="#CADDFF"/>
<path d="M201.588 52.7472L212.768 137.284C217.092 169.975 234.913 199.358 261.907 218.3L288.018 236.622C294.677 241.293 303.602 241.077 310.026 236.091L332.871 218.352C357.431 199.283 373.461 171.277 377.461 140.441L388.829 52.8411C389.976 43.9975 384.407 35.6707 375.797 33.3541L318.979 18.0586C302.413 13.5991 284.959 13.6696 268.43 18.2653L214.479 33.2554C205.921 35.6284 200.427 43.9458 201.588 52.7472Z" fill="#5479F7"/>
<path d="M207.433 56.1869L217.974 135.916C222.053 166.747 238.859 194.462 264.321 212.328L288.947 229.611C295.226 234.019 303.647 233.812 309.705 229.108L331.253 212.38C354.417 194.391 369.536 167.978 373.309 138.895L384.034 56.2762C385.115 47.9353 379.865 40.0831 371.74 37.8981L318.155 23.4719C302.534 19.2662 286.066 19.3367 270.478 23.6646L219.591 37.8041C211.521 40.0456 206.338 47.8836 207.433 56.1869Z" fill="white"/>
<path d="M298.995 233.507C295.353 233.507 291.706 232.402 288.548 230.184L263.922 212.901C238.371 194.974 221.372 166.944 217.279 136.005L206.738 56.2762C205.6 47.6768 211.047 39.4441 219.403 37.1227L270.29 22.9879C285.992 18.6271 302.605 18.5614 318.339 22.7952L371.928 37.2167C380.355 39.4816 385.858 47.7191 384.735 56.3654L374.01 138.985C372.121 153.552 367.464 167.4 360.165 180.144C352.871 192.892 343.289 203.921 331.686 212.929L310.138 229.658C306.853 232.224 302.929 233.507 298.995 233.507ZM294.667 21.0754C286.588 21.0754 278.51 22.1655 270.661 24.3459L219.779 38.4807C212.095 40.6141 207.09 48.189 208.133 56.0929L218.675 135.822C222.716 166.371 239.499 194.048 264.731 211.75L289.356 229.033C295.419 233.286 303.427 233.093 309.278 228.554L330.826 211.82C353.999 193.828 368.841 167.898 372.614 138.806L383.339 56.1869C384.373 48.2313 379.307 40.6611 371.562 38.5794L317.972 24.1533C310.345 22.0998 302.506 21.0754 294.667 21.0754Z" fill="black"/>
<path d="M261.262 142.438H259.594C256.182 142.438 253.414 139.671 253.414 136.259V70.1949C253.414 66.7833 256.182 64.0156 259.594 64.0156H261.262C264.674 64.0156 267.442 66.7833 267.442 70.1949V136.254C267.442 139.671 264.674 142.438 261.262 142.438Z" fill="#5479F7"/>
<path d="M278.774 121.918H276.979C273.304 121.918 270.324 118.938 270.324 115.264V50.1533C270.324 46.4786 273.304 43.4994 276.979 43.4994H278.774C282.449 43.4994 285.429 46.4786 285.429 50.1533V115.264C285.429 118.938 282.449 121.918 278.774 121.918Z" fill="#5479F7"/>
<path d="M297.12 113.643H295.325C291.649 113.643 288.67 110.663 288.67 106.989V41.8782C288.67 38.2035 291.649 35.2243 295.325 35.2243H297.12C300.795 35.2243 303.774 38.2035 303.774 41.8782V106.989C303.774 110.663 300.795 113.643 297.12 113.643Z" fill="#5479F7"/>
<path d="M315.279 121.922H314.932C310.162 121.922 306.289 118.055 306.289 113.281V52.141C306.289 47.3714 310.157 43.4994 314.932 43.4994H315.279C318.658 43.4994 321.403 46.239 321.403 49.6223L322.728 119.892C322.724 123.271 318.663 121.922 315.279 121.922Z" fill="#5479F7"/>
<path d="M308.456 189.918L277.157 188.837C267.56 188.837 253.772 171.389 253.772 161.498L253.053 123.365C253.053 113.473 262.161 103.582 271.762 103.582L300.185 101.782C318.325 101.782 325.727 120.846 329.684 141.353L334.722 171.211C334.717 181.102 318.053 189.918 308.456 189.918Z" fill="#5479F7"/>
<path d="M323.447 128.167L335.079 106.392C342.72 95.6028 356.307 98.1121 351.269 112.83L334.839 172.287C334.421 173.824 332.611 173.354 332.245 171.803L323.447 128.167Z" fill="#5479F7"/>
<path d="M103.766 80.7725L99.2549 77.0038C98.5265 76.3976 98.2022 75.4249 98.4466 74.518C98.7003 73.5547 98.9165 72.5914 99.0904 71.6234C99.2549 70.6976 99.9551 69.9599 100.867 69.7108L106.535 68.1789C107.653 67.8782 108.405 66.8491 108.349 65.7025L108.123 61.0316C108.067 59.8851 107.221 58.9264 106.079 58.7197L100.275 57.6812C99.3348 57.512 98.5734 56.826 98.3197 55.9143C98.0565 54.9698 97.7557 54.0394 97.4173 53.1184C97.0884 52.2303 97.314 51.2341 97.9813 50.5621L102.117 46.4128C102.93 45.5999 103.062 44.3311 102.437 43.3631L99.8893 39.4206C99.2643 38.4526 98.0471 38.039 96.9568 38.4291L91.4301 40.4027C90.5372 40.7222 89.5314 40.5061 88.8547 39.8388C88.1545 39.1527 87.4213 38.4902 86.66 37.8558C85.9269 37.2449 85.6167 36.2722 85.8564 35.3559L87.3367 29.7076C87.6281 28.5986 87.1018 27.4332 86.0725 26.9022L81.8852 24.7454C80.856 24.2144 79.5965 24.4634 78.854 25.3374L75.0708 29.7969C74.4599 30.5158 73.487 30.8354 72.5659 30.591C71.5931 30.3326 70.6203 30.1164 69.6428 29.9425C68.7123 29.7781 67.9603 29.0826 67.7113 28.1757L66.1369 22.5556C65.8267 21.4466 64.7881 20.6947 63.632 20.7464L58.923 20.9485C57.7669 21.0002 56.8035 21.8366 56.6014 22.9691L55.5769 28.7208C55.4124 29.6465 54.731 30.403 53.8193 30.6521C52.8606 30.9105 51.9112 31.2066 50.976 31.5449C50.0831 31.8645 49.0868 31.6342 48.41 30.9716L44.2086 26.8552C43.3815 26.047 42.1079 25.9107 41.1304 26.5263L37.1639 29.0403C36.1911 29.6559 35.7776 30.8636 36.177 31.9443L38.1884 37.4329C38.5127 38.321 38.3012 39.3172 37.6339 39.9892C36.9431 40.6799 36.2804 41.4036 35.646 42.1601C35.035 42.8838 34.0528 43.1892 33.127 42.9496L27.4311 41.4459C26.3126 41.1545 25.1377 41.6667 24.6066 42.6864L22.4448 46.831C21.9138 47.8507 22.1675 49.1007 23.0558 49.8431L27.5674 53.6118C28.2958 54.218 28.6201 55.1907 28.3757 56.0976C28.1219 57.0609 27.9057 58.0242 27.7319 58.9922C27.5674 59.918 26.8671 60.6557 25.9554 60.9048L20.2877 62.4367C19.1692 62.7374 18.4173 63.7665 18.4737 64.9131L18.6993 69.584C18.7556 70.7305 19.6016 71.6891 20.7436 71.8959L26.5476 72.9344C27.4828 73.0989 28.2488 73.7802 28.4979 74.6872C28.7611 75.6411 29.0665 76.5809 29.4049 77.5113C29.7292 78.3947 29.4989 79.3862 28.8363 80.0535L24.7006 84.2028C23.8876 85.0157 23.756 86.2845 24.3811 87.2525L26.9282 91.195C27.5533 92.163 28.7705 92.5765 29.8608 92.1865L35.3875 90.2129C36.2804 89.8934 37.2861 90.1095 37.9629 90.7768C38.6631 91.4629 39.3962 92.1254 40.1576 92.7598C40.8907 93.3707 41.2009 94.3434 40.9612 95.2597L39.4808 100.908C39.1895 102.017 39.7158 103.182 40.745 103.713L44.9324 105.87C45.9616 106.401 47.2211 106.152 47.9636 105.278L51.7468 100.819C52.3577 100.1 53.3305 99.7802 54.2516 100.025C55.2198 100.283 56.1973 100.499 57.1748 100.673C58.1053 100.838 58.8572 101.533 59.1063 102.44L60.6713 108.069C60.9814 109.178 62.0201 109.93 63.1761 109.879L67.8851 109.676C69.0412 109.625 70.0047 108.788 70.2067 107.656L71.2313 101.904C71.3957 100.974 72.0866 100.222 73.003 99.9729C73.9523 99.7144 74.8922 99.4231 75.818 99.0895C76.7157 98.7699 77.7167 98.9908 78.3981 99.6581L82.5995 103.774C83.4267 104.583 84.705 104.719 85.6778 104.103L89.6442 101.589C90.617 100.974 91.0306 99.7661 90.6311 98.6853L88.6197 93.1968C88.2955 92.3087 88.5069 91.3125 89.1743 90.6405C89.8651 89.9498 90.5277 89.2261 91.1622 88.4696C91.7731 87.7459 92.7554 87.4404 93.6812 87.6801L99.3818 89.1697C100.505 89.4611 101.675 88.9489 102.206 87.9292L104.368 83.7846C104.908 82.7649 104.655 81.5149 103.766 80.7725ZM59.017 84.8841C48.1046 82.4359 41.2244 71.6844 43.6541 60.8719C46.0791 50.0593 56.8928 43.2785 67.8052 45.7267C78.7177 48.175 85.5979 58.9264 83.1682 69.739C80.7432 80.5516 69.9295 87.3324 59.017 84.8841Z" fill="#5479F7"/>
<path d="M160.665 59.5937L158.207 56.3279C157.812 55.8016 157.747 55.0967 158.052 54.5187C158.376 53.9078 158.677 53.2876 158.945 52.6579C159.203 52.0564 159.791 51.6664 160.449 51.6476L164.528 51.5066C165.332 51.4784 166.004 50.9004 166.149 50.1157L166.737 46.9203C166.883 46.1356 166.46 45.3508 165.717 45.036L161.953 43.4195C161.342 43.1563 160.938 42.5737 160.909 41.9158C160.881 41.2344 160.825 40.5578 160.74 39.8811C160.66 39.2279 160.966 38.5888 161.525 38.2411L164.979 36.0889C165.656 35.666 165.947 34.8296 165.679 34.073L164.58 31.0045C164.307 30.248 163.551 29.7781 162.752 29.872L158.701 30.3373C158.043 30.4124 157.399 30.107 157.046 29.5478C156.68 28.9745 156.29 28.4106 155.871 27.8608C155.472 27.3345 155.416 26.625 155.721 26.0423L157.615 22.4569C157.986 21.752 157.817 20.878 157.206 20.3564L154.711 18.2324C154.1 17.7108 153.207 17.6779 152.563 18.1525L149.297 20.5726C148.77 20.9626 148.061 21.0237 147.478 20.7135C146.862 20.3846 146.237 20.0839 145.603 19.8113C144.997 19.5529 144.602 18.9608 144.574 18.3076L144.404 14.2523C144.372 13.4535 143.784 12.7815 142.995 12.6311L139.775 12.0249C138.986 11.8746 138.201 12.2928 137.886 13.0259L136.288 16.7569C136.03 17.3584 135.452 17.7625 134.794 17.786C134.103 17.8095 133.412 17.8612 132.726 17.9411C132.073 18.0163 131.434 17.7014 131.081 17.1469L128.891 13.6978C128.459 13.0212 127.618 12.7251 126.861 12.9883L123.783 14.0596C123.026 14.3228 122.556 15.0746 122.655 15.8688L123.148 19.9006C123.228 20.5538 122.927 21.1928 122.368 21.5406C121.79 21.8977 121.231 22.283 120.681 22.6966C120.155 23.0913 119.44 23.143 118.853 22.8328L115.229 20.925C114.515 20.5491 113.641 20.7135 113.124 21.3197L111.009 23.782C110.488 24.3882 110.464 25.2717 110.948 25.9154L113.406 29.1813C113.801 29.7076 113.867 30.4124 113.561 30.9904C113.237 31.6013 112.936 32.2216 112.668 32.8513C112.41 33.4527 111.822 33.8428 111.164 33.8616L107.085 34.0025C106.281 34.0307 105.609 34.6087 105.464 35.3935L104.876 38.5888C104.731 39.3736 105.153 40.1583 105.896 40.4732L109.66 42.0897C110.267 42.3481 110.675 42.9308 110.704 43.584C110.732 44.27 110.788 44.9561 110.873 45.6375C110.953 46.2859 110.643 46.9203 110.083 47.268L106.629 49.4202C105.952 49.8431 105.661 50.6796 105.929 51.4361L107.029 54.5046C107.301 55.2612 108.058 55.7311 108.857 55.6371L112.908 55.1719C113.566 55.0967 114.21 55.4021 114.562 55.9613C114.929 56.5346 115.319 57.0985 115.737 57.6483C116.136 58.1746 116.193 58.8842 115.887 59.4668L113.993 63.0522C113.622 63.7571 113.791 64.6311 114.402 65.1527L116.898 67.2767C117.509 67.7983 118.402 67.8312 119.045 67.3566L122.312 64.9366C122.838 64.5465 123.548 64.4855 124.13 64.7956C124.746 65.1245 125.371 65.4253 126.006 65.6978C126.612 65.9563 127.007 66.5484 127.035 67.2015L127.204 71.2568C127.237 72.0557 127.824 72.7276 128.614 72.878L131.833 73.4842C132.623 73.6346 133.407 73.2163 133.722 72.4833L135.325 68.7522C135.583 68.1507 136.171 67.7466 136.829 67.7231C137.515 67.6996 138.196 67.6479 138.873 67.5728C139.531 67.4976 140.175 67.8077 140.527 68.3669L142.717 71.816C143.15 72.4927 143.991 72.7887 144.748 72.5256L147.826 71.4542C148.582 71.191 149.052 70.4392 148.954 69.6451L148.46 65.6132C148.38 64.9601 148.681 64.321 149.24 63.9733C149.818 63.6161 150.378 63.2308 150.927 62.8173C151.454 62.4226 152.168 62.3709 152.756 62.681L156.379 64.5888C157.093 64.9648 157.967 64.8003 158.484 64.1941L160.599 61.7318C161.121 61.1209 161.149 60.2375 160.665 59.5937ZM129.737 55.3035C122.739 51.9201 119.783 43.5605 123.134 36.6293C126.485 29.6982 134.874 26.8176 141.871 30.201C148.869 33.5843 151.825 41.944 148.474 48.8751C145.119 55.8063 136.73 58.6868 129.737 55.3035Z" fill="#5479F7"/>
<path d="M67.1442 355.302L64.7005 372.473L58.4406 372.496L58.1445 355.612L67.1442 355.302Z" fill="white"/>
<path d="M58.4405 373.201C58.0552 373.201 57.7403 372.891 57.7356 372.51L57.4395 355.622C57.4348 355.236 57.7356 354.917 58.1209 354.903L67.1207 354.597C67.3274 354.593 67.5295 354.677 67.6705 354.832C67.8115 354.987 67.8726 355.194 67.8444 355.401L65.3959 372.571C65.3442 372.919 65.0481 373.177 64.7004 373.177L58.4405 373.201ZM58.8635 356.289L59.1361 371.786L64.0894 371.768L66.3311 356.03L58.8635 356.289Z" fill="black"/>
<path d="M64.9106 388.891C62.4574 389.154 58.7965 389.258 53.9136 388.83C52.1653 388.675 50.9341 387.058 51.216 385.324C51.9727 380.663 54.0922 372.444 57.4289 368.671L59.0784 371.02L60.056 368.591C60.211 368.328 64.3608 368.154 64.4501 368.647L64.7038 371.02L67.0583 368.384L66.9315 377.049C66.9174 378.008 67.0067 378.962 67.1993 379.897L67.8197 382.89C68.1909 384.695 67.7304 386.603 66.4709 387.947C65.9727 388.468 65.4229 388.835 64.9106 388.891Z" fill="#5479F7"/>
<path d="M60.1553 389.821C58.3929 389.821 56.2969 389.742 53.8484 389.53C52.8145 389.441 51.8934 388.938 51.2542 388.116C50.6151 387.298 50.3472 386.236 50.5164 385.212C50.7185 383.985 52.5936 373.069 56.8984 368.206C57.0394 368.046 57.2509 367.961 57.4671 367.971C57.6833 367.985 57.8807 368.093 58.0028 368.272L58.9052 369.559L59.3986 368.337C59.4127 368.304 59.4268 368.272 59.4503 368.239C59.9673 367.379 63.8585 367.698 64.117 367.75C64.3426 367.792 65.0334 367.919 65.1415 368.539C65.1462 368.553 65.1462 368.572 65.1462 368.586L65.2308 369.376L66.5279 367.924C66.7253 367.703 67.0354 367.628 67.308 367.736C67.5806 367.844 67.7592 368.107 67.7592 368.403L67.6323 377.068C67.6182 377.97 67.7028 378.877 67.8861 379.765L68.5064 382.759C68.9388 384.84 68.3654 386.964 66.9838 388.44C66.3352 389.131 65.6444 389.535 64.9911 389.605C63.8256 389.713 62.2231 389.821 60.1553 389.821ZM57.3872 369.841C54.4359 373.812 52.5701 381.382 51.9075 385.437C51.8041 386.081 51.9733 386.739 52.368 387.251C52.7628 387.759 53.3315 388.069 53.9706 388.125C59.1777 388.581 62.7494 388.412 64.8313 388.191C65.1368 388.158 65.5457 387.895 65.9451 387.462C67.0167 386.321 67.4537 384.667 67.1153 383.031L66.495 380.038C66.2929 379.051 66.1942 378.041 66.2083 377.035L66.307 370.264L65.212 371.49C65.0287 371.697 64.7373 371.777 64.4695 371.692C64.2063 371.608 64.0136 371.373 63.9854 371.096L63.7739 369.108C63.0596 368.995 61.2738 369.037 60.5735 369.155L59.7135 371.284C59.6148 371.523 59.3986 371.692 59.1401 371.721C58.8864 371.749 58.6326 371.636 58.4822 371.425L57.3872 369.841Z" fill="black"/>
<path d="M60.4331 386.758C58.7037 386.758 56.5607 386.626 54.1404 386.199C53.755 386.133 53.5012 385.766 53.567 385.381C53.6328 384.996 54.0041 384.742 54.3847 384.808C60.3814 385.86 64.6674 385.024 64.7097 385.014C65.0904 384.934 65.4617 385.184 65.5416 385.564C65.6168 385.945 65.3724 386.316 64.9917 386.396C64.8742 386.424 63.1777 386.758 60.4331 386.758Z" fill="black"/>
<path d="M62.4348 380.174H56.7577C56.3676 380.174 56.0527 379.859 56.0527 379.469C56.0527 379.079 56.3676 378.765 56.7577 378.765H62.4348C62.8248 378.765 63.1397 379.079 63.1397 379.469C63.1397 379.859 62.8248 380.174 62.4348 380.174Z" fill="black"/>
<path d="M112.062 356.834L114.267 376.847L122.684 378.609L122.171 355.147L112.062 356.834Z" fill="white"/>
<path d="M122.683 379.314C122.636 379.314 122.585 379.31 122.538 379.3L114.121 377.538C113.825 377.477 113.599 377.228 113.566 376.927L111.362 356.914C111.32 356.543 111.578 356.204 111.945 356.143L122.054 354.452C122.256 354.419 122.462 354.475 122.617 354.602C122.773 354.733 122.867 354.926 122.871 355.128L123.383 378.595C123.388 378.812 123.294 379.014 123.13 379.155C123.008 379.258 122.848 379.314 122.683 379.314ZM114.91 376.265L121.96 377.74L121.485 355.974L112.838 357.421L114.91 376.265Z" fill="black"/>
<path d="M110.703 386.391C110.52 382.886 110.515 376.424 112.649 373.314L119.383 375.71V374.272C119.383 373.807 119.712 373.426 120.135 373.403L123.89 373.187C125.291 373.107 126.686 373.398 127.969 374.028C131.743 375.884 143.234 380.644 144.827 385.996C145.297 387.575 144.061 389.154 142.416 389.201C138.638 389.309 129.544 389.427 113.232 388.872C111.873 388.825 110.774 387.749 110.703 386.391Z" fill="#5479F7"/>
<path d="M134.883 390C129.868 390 122.782 389.906 113.213 389.577C111.474 389.516 110.097 388.163 110.003 386.429C109.811 382.787 109.825 376.189 112.071 372.914C112.25 372.651 112.588 372.543 112.889 372.651L118.683 374.714V374.272C118.683 373.436 119.304 372.745 120.103 372.698L123.858 372.482C125.366 372.393 126.898 372.712 128.289 373.394C128.741 373.614 129.3 373.878 129.939 374.178C134.859 376.486 144.019 380.785 145.513 385.799C145.791 386.734 145.617 387.735 145.034 388.539C144.433 389.366 143.464 389.883 142.445 389.911C140.814 389.953 138.342 390 134.883 390ZM111.409 386.354C111.46 387.354 112.254 388.135 113.26 388.167C129.399 388.717 138.445 388.609 142.398 388.496C142.985 388.478 143.54 388.186 143.883 387.707C144.207 387.261 144.306 386.711 144.151 386.194C142.839 381.786 133.713 377.505 129.328 375.447C128.679 375.142 128.111 374.878 127.655 374.653C126.485 374.08 125.192 373.812 123.928 373.887L120.173 374.103C120.145 374.103 120.084 374.164 120.084 374.268V375.705C120.084 375.936 119.971 376.147 119.783 376.283C119.595 376.415 119.356 376.448 119.139 376.373L112.941 374.164C111.676 376.467 111.117 380.851 111.409 386.354Z" fill="black"/>
<path d="M132.275 386.673C127.491 386.673 121.029 386.462 113.97 385.644C113.585 385.597 113.308 385.249 113.35 384.864C113.397 384.479 113.745 384.201 114.13 384.244C128.454 385.907 140.297 385.042 140.415 385.033C140.796 385 141.143 385.296 141.172 385.682C141.2 386.072 140.908 386.41 140.523 386.438C140.462 386.443 137.294 386.673 132.275 386.673Z" fill="black"/>
<path d="M130.189 380.945C130.048 380.945 129.902 380.903 129.775 380.813L123.29 376.152C122.975 375.926 122.9 375.485 123.13 375.17C123.356 374.855 123.797 374.784 124.112 375.01L130.598 379.671C130.913 379.897 130.988 380.339 130.757 380.654C130.621 380.846 130.405 380.945 130.189 380.945Z" fill="black"/>
<path d="M114.689 226.984C114.689 226.984 126.758 309.763 124.187 365.01L120.423 365.386C118.397 365.588 116.362 365.64 114.327 365.537L110.756 365.358C110.756 365.358 96.3656 281.433 89.1799 267.495C89.1799 267.495 69.639 342.131 68.8824 362.351C68.8824 362.351 60.1976 363.225 56.734 361.979C54.8729 342.464 54.3372 322.268 54.2432 309.585C53.9753 273.294 57.4436 256.809 59.3469 248.985C61.0952 241.805 62.9656 235.969 64.3332 232.022L68.9012 218.987L114.689 226.984Z" fill="black"/>
<path d="M88.5038 270.625C88.4427 270.625 88.3769 270.615 88.3158 270.601C87.9398 270.498 87.7189 270.112 87.8223 269.737L89.8291 262.429C90.4447 260.197 92.2305 258.52 94.5004 258.05L96.3803 257.66C96.7609 257.58 97.1322 257.824 97.2121 258.21C97.292 258.59 97.0476 258.962 96.6623 259.041L94.7824 259.431C93.0342 259.793 91.6572 261.086 91.1872 262.805L89.1805 270.112C89.0959 270.418 88.8139 270.625 88.5038 270.625Z" fill="black"/>
<path d="M61.9791 257.016C61.6407 257.016 61.3399 256.772 61.2835 256.429C61.2177 256.043 61.4809 255.682 61.8616 255.616C72.1819 253.896 74.2356 246.058 74.3155 245.724C74.4095 245.348 74.7901 245.118 75.1661 245.207C75.5421 245.301 75.7771 245.677 75.6831 246.058C75.6596 246.147 73.3615 255.127 62.0919 257.007C62.059 257.011 62.0214 257.016 61.9791 257.016Z" fill="#CADDFF"/>
<path d="M115.234 251.575C115.14 251.575 115.046 251.556 114.952 251.518C108.307 248.633 108.471 242.313 108.471 242.252C108.485 241.862 108.824 241.566 109.204 241.575C109.594 241.589 109.895 241.918 109.881 242.303C109.872 242.534 109.782 247.735 115.511 250.226C115.868 250.381 116.033 250.795 115.878 251.152C115.765 251.415 115.506 251.575 115.234 251.575Z" fill="#CADDFF"/>
<path d="M113.716 158.086C105.736 157.184 88.695 155.572 76.9742 156.644C73.4354 156.968 68.327 159.13 65.6388 161.451C57.7153 168.288 42.7612 183.349 40.2657 201.421C39.8992 204.058 41.6286 206.534 44.2322 207.107L58.0443 210.166C58.0443 210.166 52.5364 231.867 52.9781 235.617C53.4199 239.366 64.8352 245.743 79.1078 240.508C90.2364 236.429 105.989 233.187 115.99 236.702C116.084 236.735 117.043 244.418 117.142 244.432C120.351 244.897 123.589 243.647 123.514 239.136L121.992 215.702L140.296 213.287L141.932 212.741C146.881 211.092 149.437 205.636 147.529 200.782C143.229 189.838 136.739 172.113 124.717 162.33C122.147 160.243 117.01 158.458 113.716 158.086Z" fill="#5479F7"/>
<path d="M105.393 230.213H134.004C135.244 230.213 136.33 229.367 136.626 228.159L146.523 188.255C146.946 186.549 145.654 184.899 143.901 184.899H115.29C114.049 184.899 112.964 185.745 112.668 186.953L102.77 226.857C102.347 228.563 103.64 230.213 105.393 230.213Z" fill="black"/>
<path d="M141.871 205.293L140.907 209.321L137.448 208.169C135.54 207.535 133.712 206.689 131.997 205.646L130.014 204.443C128.533 203.545 126.611 204.246 126.033 205.881C124.811 209.353 125.051 215.171 137.509 218.822C144.385 220.838 146.354 212.032 145.466 207.14C145.24 205.89 144.625 205.091 143.995 204.584C143.238 203.982 142.11 204.358 141.871 205.293Z" fill="white"/>
<path d="M139.422 219.823C138.75 219.823 138.045 219.715 137.317 219.503C131.226 217.718 127.321 215.208 125.699 212.041C124.703 210.091 124.59 207.883 125.375 205.651C125.723 204.664 126.484 203.898 127.467 203.55C128.439 203.202 129.506 203.31 130.39 203.846L132.373 205.049C134.046 206.059 135.832 206.886 137.683 207.507L140.414 208.414L141.199 205.134C141.199 205.129 141.199 205.124 141.203 205.124C141.377 204.452 141.871 203.917 142.529 203.696C143.187 203.475 143.906 203.602 144.446 204.039C145.367 204.776 145.945 205.777 146.171 207.018C146.834 210.65 146.03 215.862 143.243 218.366C142.157 219.334 140.865 219.823 139.422 219.823ZM128.613 204.758C128.388 204.758 128.157 204.795 127.936 204.875C127.358 205.082 126.907 205.538 126.701 206.12C126.038 208.005 126.118 209.781 126.95 211.402C128.388 214.208 132.006 216.482 137.712 218.155C139.54 218.69 141.081 218.413 142.289 217.323C144.611 215.237 145.372 210.575 144.775 207.272C144.611 206.374 144.202 205.66 143.553 205.138C143.314 204.946 143.064 205.002 142.966 205.035C142.867 205.068 142.637 205.176 142.562 205.467L141.603 209.49C141.556 209.682 141.434 209.847 141.26 209.941C141.086 210.035 140.884 210.058 140.696 209.992L137.237 208.841C135.287 208.193 133.402 207.319 131.64 206.252L129.657 205.049C129.332 204.856 128.97 204.758 128.613 204.758Z" fill="black"/>
<path d="M75.7115 182.193C74.2781 183.659 72.6521 184.913 70.8709 185.928C64.8648 189.349 50.517 197.629 46.95 200.674C42.4008 204.56 40.2249 206.008 43.8812 216.003C49.8403 232.294 77.6148 190.472 77.6148 190.472C77.6148 190.472 85.7733 191.948 87.6062 184.801C87.6062 184.801 91.8593 185.6 93.631 184.829C94.9892 184.241 94.9328 181.934 93.1188 181.681L81.3839 179.491C79.7672 179.199 78.113 179.73 76.9663 180.905L75.7115 182.193Z" fill="white"/>
<path d="M48.2889 220.471C48.0869 220.471 47.8895 220.462 47.6921 220.439C45.6525 220.199 44.1486 218.784 43.2181 216.247C39.6464 206.482 41.404 204.471 46.0895 200.486L46.489 200.143C50.103 197.056 64.4978 188.748 70.5227 185.318C72.2474 184.336 73.8218 183.118 75.2082 181.704L76.4583 180.421C77.7695 179.077 79.6587 178.476 81.5056 178.805L93.2452 180.994C94.3073 181.14 95.1109 181.925 95.2566 182.987C95.4023 184.049 94.8478 185.078 93.9125 185.482C92.3664 186.149 89.4338 185.806 88.1085 185.604C86.1488 191.624 79.7527 191.417 77.9574 191.234C75.5654 194.782 57.9278 220.471 48.2889 220.471ZM76.2139 182.686C74.7382 184.199 73.0558 185.496 71.2182 186.539C65.231 189.946 50.9254 198.203 47.4054 201.21L47.0013 201.553C42.8703 205.068 41.1644 206.525 44.5387 215.758C45.2812 217.788 46.3668 218.86 47.8519 219.038C48.007 219.057 48.1621 219.066 48.3218 219.066C56.0574 219.066 71.5848 198.273 77.0222 190.087C77.1773 189.852 77.4546 189.735 77.7366 189.782C78.042 189.838 85.2747 191.046 86.9196 184.627C87.0135 184.265 87.3707 184.039 87.7326 184.11C88.8558 184.321 92.0562 184.744 93.3486 184.185C93.7669 184.002 93.9078 183.532 93.8561 183.175C93.8232 182.916 93.6635 182.475 93.0149 182.381L81.2472 180.186C79.8655 179.937 78.4462 180.393 77.464 181.403L76.2139 182.686Z" fill="black"/>
<path d="M102.901 142.744L103.78 154.962C103.973 156.55 105.119 157.861 106.67 158.265L110.961 159.383L108.174 161.503C101.999 166.202 93.4503 166.211 87.2656 161.522L82.8574 158.18L88.1915 156.992C89.7235 156.649 90.9031 155.422 91.1804 153.876L93.5349 137.711L102.901 142.744Z" fill="white"/>
<path d="M97.7126 165.722C93.8777 165.722 90.0476 164.51 86.8471 162.081L82.4389 158.74C82.218 158.575 82.1193 158.298 82.1757 158.03C82.2321 157.762 82.4436 157.551 82.7115 157.494L88.0455 156.306C89.305 156.024 90.2637 155.023 90.494 153.754L92.8438 137.613C92.8767 137.387 93.0177 137.19 93.2245 137.086C93.4313 136.983 93.6709 136.988 93.8777 137.096L103.244 142.133C103.455 142.246 103.596 142.462 103.615 142.702L104.494 154.919C104.649 156.193 105.58 157.255 106.858 157.588L111.149 158.707C111.412 158.773 111.609 158.984 111.661 159.252C111.713 159.515 111.609 159.788 111.398 159.952L108.611 162.071C105.401 164.501 101.552 165.722 97.7126 165.722ZM84.4973 158.533L87.6931 160.958C93.6004 165.441 101.848 165.431 107.746 160.939L109.377 159.698L106.487 158.946C104.644 158.467 103.305 156.935 103.075 155.046L102.219 143.181L94.0798 138.806L91.871 153.975C91.5373 155.826 90.1509 157.269 88.3369 157.678L84.4973 158.533Z" fill="black"/>
<path d="M116.788 125.738C113.85 124.183 116.214 129.023 106.552 120.663C102.703 117.331 102.567 123.548 101.566 122.688C97.8717 119.507 97.9986 119.61 95.6676 119.206C94.1262 118.938 92.0584 121.067 91.4474 123.083C90.6391 125.743 92.4061 127.336 91.8046 133.463C91.3816 137.768 90.0281 139.878 91.2641 141.104C92.5189 142.34 94.5585 140.827 96.0295 142.077C97.9328 143.688 95.7616 147.279 97.1668 149.821C98.055 151.423 100.964 153.312 107.092 153.167C108.084 153.143 108.925 152.41 109.09 151.428C109.296 150.169 109.55 148.576 109.668 147.034C110.218 139.69 108.634 137.246 110.194 135.991C112.581 134.069 116.637 137.65 118.357 135.963C120.138 134.206 120.81 127.867 116.788 125.738Z" fill="black"/>
<path d="M102.174 129.859L102.296 131.866C102.353 132.81 102.348 133.759 102.273 134.704C102.136 136.475 101.92 139.525 101.934 141.24C101.948 143.759 109.74 144.252 109.74 144.252L110.727 143.153L111.644 143.19C111.822 143.2 112.001 143.167 112.156 143.087C112.551 142.88 112.743 142.462 112.677 142.053C112.311 139.826 111.662 134.911 112.377 131.09C112.381 131.09 108.048 127.571 102.174 129.859Z" fill="white"/>
<path d="M109.74 144.957C109.726 144.957 109.712 144.957 109.697 144.957C108.288 144.868 101.248 144.271 101.229 141.245C101.219 139.487 101.44 136.358 101.572 134.647C101.642 133.741 101.647 132.815 101.595 131.908L101.473 129.901C101.454 129.596 101.638 129.314 101.92 129.201C108.1 126.795 112.635 130.385 112.827 130.54C113.029 130.705 113.123 130.963 113.076 131.217C112.372 134.986 113.053 139.972 113.377 141.936C113.495 142.655 113.138 143.369 112.484 143.712C112.231 143.844 111.934 143.909 111.615 143.895L111.032 143.872L110.266 144.727C110.13 144.873 109.942 144.957 109.74 144.957ZM102.911 130.338L103.001 131.819C103.062 132.791 103.052 133.778 102.977 134.756C102.845 136.442 102.629 139.53 102.639 141.236C102.643 142.312 106.102 143.266 109.448 143.524L110.21 142.678C110.351 142.523 110.557 142.434 110.764 142.443L111.681 142.481C111.746 142.486 111.803 142.476 111.84 142.457C111.977 142.387 112.01 142.255 111.991 142.161C111.587 139.722 111.018 135.164 111.62 131.396C110.586 130.714 107.258 128.863 102.911 130.338Z" fill="black"/>
<path d="M100.806 136.043C100.806 136.043 100.519 131.217 98.3523 131.828C96.1905 132.434 96.6417 137.739 100.806 136.043Z" fill="white"/>
<path d="M237.572 22.1937C237.502 22.1937 237.426 22.1843 237.356 22.1608C231.444 20.2483 225.325 18.7493 219.159 17.7014C203.566 15.0511 187.808 15.2579 172.323 18.317C171.942 18.3922 171.571 18.1431 171.496 17.7625C171.421 17.3819 171.67 17.0107 172.05 16.9355C187.705 13.8435 203.632 13.632 219.394 16.3105C225.626 17.3678 231.81 18.8856 237.788 20.8169C238.159 20.9344 238.362 21.3338 238.239 21.705C238.145 22.0011 237.868 22.1937 237.572 22.1937Z" fill="black"/>
<path d="M240.054 15.1169C239.989 15.1169 239.918 15.1075 239.852 15.0888C235.204 13.6978 230.425 12.4996 225.645 11.5315C202.89 6.90765 179.862 7.21309 157.201 12.4385C156.82 12.5278 156.444 12.2881 156.355 11.9122C156.265 11.5315 156.505 11.1556 156.881 11.0663C179.74 5.79867 202.97 5.48853 225.927 10.15C230.744 11.1274 235.566 12.3351 240.256 13.7401C240.628 13.8529 240.844 14.2429 240.731 14.6188C240.637 14.9196 240.355 15.1169 240.054 15.1169Z" fill="black"/>
<path d="M307.661 359.691C307.417 359.691 307.177 359.564 307.046 359.334C306.853 358.995 306.97 358.563 307.313 358.375L309.461 357.158C309.8 356.965 310.232 357.083 310.42 357.426C310.613 357.764 310.495 358.197 310.152 358.385L308.004 359.602C307.901 359.658 307.779 359.691 307.661 359.691Z" fill="black"/>
<path d="M315.181 355.429C314.936 355.429 314.697 355.302 314.565 355.072C314.372 354.733 314.49 354.301 314.833 354.113L316.981 352.896C317.319 352.703 317.752 352.821 317.939 353.164C318.132 353.502 318.015 353.935 317.672 354.127L315.524 355.344C315.42 355.401 315.303 355.429 315.181 355.429Z" fill="black"/>
<path d="M315.134 361.749C314.884 361.749 314.645 361.618 314.513 361.383L313.343 359.249C313.155 358.906 313.282 358.479 313.62 358.291C313.959 358.103 314.391 358.23 314.579 358.568L315.749 360.701C315.937 361.044 315.81 361.472 315.472 361.66C315.364 361.721 315.246 361.749 315.134 361.749Z" fill="black"/>
<path d="M311.036 354.282C310.787 354.282 310.547 354.151 310.416 353.916L309.245 351.782C309.057 351.439 309.184 351.012 309.523 350.824C309.861 350.636 310.293 350.763 310.481 351.101L311.652 353.234C311.84 353.577 311.713 354.005 311.374 354.193C311.266 354.254 311.149 354.282 311.036 354.282Z" fill="black"/>
<path d="M355.615 334.494C354.389 334.494 353.204 334.09 352.222 333.324C351.024 332.389 350.262 331.031 350.084 329.499C349.722 326.379 351.931 323.508 355.009 323.104C356.494 322.911 357.96 323.306 359.14 324.227C360.338 325.162 361.1 326.52 361.278 328.052C361.64 331.172 359.431 334.043 356.353 334.447C356.104 334.48 355.86 334.494 355.615 334.494ZM355.742 324.467C355.559 324.467 355.375 324.481 355.192 324.504C352.871 324.81 351.207 326.981 351.484 329.34C351.621 330.491 352.189 331.511 353.087 332.215C353.966 332.901 355.061 333.198 356.17 333.052C358.491 332.746 360.155 330.575 359.878 328.217C359.741 327.065 359.173 326.046 358.275 325.341C357.537 324.767 356.654 324.467 355.742 324.467Z" fill="black"/>
<path d="M335.047 352.313C334.201 352.313 333.383 352.036 332.702 351.505C331.874 350.861 331.353 349.926 331.226 348.869C330.977 346.721 332.5 344.743 334.619 344.466C335.644 344.33 336.659 344.607 337.472 345.241C338.299 345.885 338.82 346.82 338.947 347.877C339.196 350.025 337.674 352.003 335.554 352.28C335.385 352.304 335.216 352.313 335.047 352.313ZM335.127 345.843C335.018 345.843 334.915 345.847 334.807 345.866C333.444 346.045 332.467 347.323 332.631 348.709C332.711 349.386 333.045 349.983 333.571 350.396C334.083 350.796 334.722 350.974 335.371 350.885C336.734 350.706 337.711 349.428 337.547 348.042C337.467 347.365 337.133 346.768 336.607 346.355C336.179 346.017 335.662 345.843 335.127 345.843Z" fill="black"/>
<path d="M205.959 160.798L193.904 168.189L205.959 160.798Z" fill="white"/>
<path d="M193.904 168.89C193.669 168.89 193.434 168.772 193.303 168.551C193.1 168.218 193.204 167.785 193.533 167.583L205.587 160.192C205.921 159.99 206.353 160.093 206.555 160.422C206.758 160.756 206.654 161.188 206.325 161.39L194.271 168.782C194.158 168.857 194.031 168.89 193.904 168.89Z" fill="black"/>
<path d="M184.904 134.154L149.742 155.709L184.904 134.154Z" fill="white"/>
<path d="M149.742 156.414C149.507 156.414 149.272 156.296 149.14 156.075C148.938 155.742 149.042 155.309 149.375 155.107L184.538 133.553C184.871 133.35 185.304 133.454 185.506 133.783C185.708 134.116 185.604 134.549 185.275 134.751L150.113 156.305C149.996 156.376 149.869 156.414 149.742 156.414Z" fill="black"/>
<path d="M188.292 118.628L169.785 129.972L188.292 118.628Z" fill="white"/>
<path d="M169.791 130.677C169.556 130.677 169.321 130.559 169.189 130.338C168.987 130.005 169.091 129.572 169.42 129.37L187.927 118.027C188.26 117.825 188.693 117.928 188.895 118.257C189.097 118.591 188.993 119.023 188.664 119.225L170.157 130.569C170.045 130.644 169.918 130.677 169.791 130.677Z" fill="black"/>
</g>
<defs>
<clipPath id="clip0">
<rect width="390" height="390" fill="white"/>
</clipPath>
</defs>
</svg>
