<svg width="32" height="30" viewBox="0 0 48 46" fill="none" xmlns="http://www.w3.org/2000/svg">
<path d="M24 0C10.74 0 0 10.5597 0 23.584C0 34.0061 6.876 42.8442 16.41 45.9593C17.61 46.1813 18.05 45.4522 18.05 44.8253C18.05 44.2651 18.03 42.7813 18.02 40.816C11.344 42.2389 9.936 37.6518 9.936 37.6518C8.844 34.9298 7.266 34.2026 7.266 34.2026C5.092 32.7404 7.434 32.7699 7.434 32.7699C9.844 32.935 11.11 35.1991 11.11 35.1991C13.25 38.8055 16.728 37.7638 18.1 37.1605C18.316 35.6354 18.934 34.5957 19.62 34.0061C14.29 33.4165 8.688 31.3883 8.688 22.3517C8.688 19.7771 9.618 17.6742 11.158 16.0233C10.888 15.4278 10.078 13.0301 11.368 9.78145C11.368 9.78145 13.378 9.14861 17.968 12.1988C19.888 11.6741 21.928 11.4146 23.968 11.4028C26.008 11.4146 28.048 11.6741 29.968 12.1988C34.528 9.14861 36.538 9.78145 36.538 9.78145C37.828 13.0301 37.018 15.4278 36.778 16.0233C38.308 17.6742 39.238 19.7771 39.238 22.3517C39.238 31.4119 33.628 33.4067 28.288 33.9865C29.128 34.694 29.908 36.1405 29.908 38.3495C29.908 41.5058 29.878 44.0411 29.878 44.8076C29.878 45.4266 30.298 46.1636 31.528 45.9278C41.13 42.8344 48 33.9904 48 23.584C48 10.5597 37.254 0 24 0Z" fill="#A8A8A8"/>
</svg>
