<svg width="44" height="44" viewBox="0 0 44 44" fill="none" xmlns="http://www.w3.org/2000/svg">
<path d="M0 0V44H44V0H0ZM36.5554 10.4205L34.1982 12.6795C33.992 12.8366 33.8937 13.092 33.933 13.3375V29.9652C33.8937 30.2205 33.992 30.4759 34.1982 30.6232L36.5063 32.8821V33.383H24.917V32.9018L27.3036 30.5839C27.5393 30.3482 27.5393 30.2795 27.5393 29.9259V16.4804L20.9 33.3339H20.0062L12.2768 16.4804V27.775C12.208 28.2464 12.375 28.7277 12.7089 29.0714L15.8125 32.833V33.3339H6.99286V32.833L10.0964 29.0714C10.4304 28.7277 10.5777 28.2464 10.4991 27.775V14.7125C10.5384 14.3491 10.4009 13.9955 10.1259 13.75L7.36607 10.4205V9.91964H15.9402L22.5598 24.4554L28.3839 9.92946H36.5554V10.4205Z" fill="#A8A8A8"/>
</svg>
