<svg width="45" height="36" viewBox="0 0 45 36" fill="none" xmlns="http://www.w3.org/2000/svg">
<path d="M0 31.932C0.732622 32.0022 1.46433 32.0391 2.19512 32.0391C6.4875 32.0391 10.318 30.7431 13.6829 28.1529C11.6845 28.1286 9.89085 27.5274 8.30579 26.3511C6.7189 25.1757 5.63506 23.6754 5.04878 21.8502C5.53628 21.9483 6.11067 21.9951 6.76829 21.9951C7.62256 21.9951 8.43933 21.8862 9.21951 21.6711C7.07378 21.2652 5.29848 20.2257 3.89634 18.558C2.49329 16.8885 1.79268 14.9625 1.79268 12.7791V12.6702C3.08598 13.3911 4.48628 13.7637 5.99908 13.7862C4.73232 12.9699 3.7253 11.8971 2.98171 10.5642C2.23811 9.2331 1.86585 7.7877 1.86585 6.228C1.86585 4.5954 2.2939 3.0726 3.14634 1.6551C5.43841 4.4631 8.23811 6.7014 11.5436 8.37C14.8482 10.0368 18.3896 10.9665 22.1716 11.16C22.0006 10.368 21.9146 9.6714 21.9146 9.072C21.9146 6.5754 22.8174 4.4397 24.622 2.664C26.4274 0.8883 28.6088 0 31.1716 0C33.8287 0 36.0723 0.9603 37.9024 2.8809C40.0235 2.448 41.9753 1.7037 43.7561 0.6489C43.0729 2.8323 41.7302 4.5126 39.7317 5.6889C41.5125 5.4738 43.2686 4.9932 45 4.2489C43.8293 6.0489 42.3046 7.6212 40.4259 8.964V10.1538C40.4259 12.5748 40.0655 15.0057 39.3466 17.4429C38.6287 19.8792 37.5293 22.2066 36.054 24.4287C34.5777 26.6472 32.8162 28.6227 30.7674 30.3489C28.7195 32.0769 26.2619 33.4521 23.3954 34.4718C20.5299 35.4924 17.4503 36 14.1567 36C9.06037 35.9991 4.34085 34.6437 0 31.932Z" fill="#A8A8A8"/>
</svg>
