<svg width="46" height="41" viewBox="0 0 46 41" fill="none" xmlns="http://www.w3.org/2000/svg">
<path d="M0.919561 30.8367L17.0353 3.39941C19.6676 -1.13314 26.3241 -1.13314 28.9469 3.39941L45.0721 30.8367C47.7044 35.3692 44.4283 41 39.1163 41L6.93219 41C1.62024 41 -1.71274 35.3134 0.919561 30.8367ZM23.0006 34.9132C24.4019 34.9132 25.5666 33.7684 25.5666 32.391C25.5666 31.0135 24.402 29.8687 23.0006 29.8687C21.5992 29.8687 20.4346 31.0135 20.4914 32.4561C20.4251 33.7684 21.656 34.9132 23.0006 34.9132ZM20.6618 18.6072C20.7754 20.5617 20.8985 22.5068 21.0122 24.4613C21.069 25.0942 21.069 25.6712 21.069 26.2948C21.1258 27.3279 21.9496 28.1283 23.0006 28.1283C24.0516 28.1283 24.8659 27.3837 24.9322 26.3507C25.1026 23.3072 25.2825 20.3197 25.453 17.2763C25.5098 16.4759 25.5666 15.6661 25.6329 14.8657C25.6329 13.5441 24.8754 12.4552 23.6445 12.1108C22.4135 11.8223 21.1921 12.3994 20.6618 13.5441C20.4819 13.9443 20.4251 14.3445 20.4251 14.8099C20.4819 16.085 20.605 17.3507 20.6618 18.6072Z" fill="#A8A8A8"/>
</svg>
